<?xml version="1.0" encoding="iso-8859-1"?>
<!-- Generator: Adobe Illustrator 19.0.0, SVG Export Plug-In . SVG Version: 6.00 Build 0)  -->
<svg version="1.1" id="Capa_1" xmlns="http://www.w3.org/2000/svg" xmlns:xlink="http://www.w3.org/1999/xlink" x="0px" y="0px"
	 viewBox="0 0 489.987 489.987" style="enable-background:new 0 0 489.987 489.987;" xml:space="preserve">
<g>
	<g>
		<path d="M459.293,148.487c28.8-35.8,26.8-88.3-6.6-121.7s-85.9-35.4-121.7-6.6l57.2,57.2l-25.9,25.9
			c-31.8-26.7-72.7-42.7-117.3-42.7s-85.5,16-117.3,42.6l-25.9-25.9l57.2-57.2c-35.7-28.7-88.6-26.8-121.7,6.7
			c-33.4,33.1-35.4,85.6-6.6,121.7l57.2-57.2l25.4,25.4c-31.6,32.9-51,77.5-51,126.7c0,100.9,81.8,182.8,182.8,182.8
			s182.8-81.8,182.8-182.8c0-49.2-19.4-93.8-51-126.7l25.4-25.4L459.293,148.487z M399.793,243.387c0,85.5-69.3,154.8-154.8,154.8
			s-154.8-69.3-154.8-154.8s69.3-154.8,154.8-154.8S399.793,157.887,399.793,243.387z"/>
		<path d="M307.593,435.887l21,54.1h56.4l-29.9-76.6C340.293,423.087,324.293,430.487,307.593,435.887z"/>
		<path d="M104.993,489.987h56.4l21-54.1c-16.7-5.4-32.7-13.2-47.4-22.6L104.993,489.987z"/>
		<path d="M244.993,108.787c-74.3,0-134.9,60.7-134.9,134.9s60.6,135,134.9,135s134.9-60.7,134.9-134.9
			C379.893,169.087,319.293,108.787,244.993,108.787z M309.493,165.387l8-8c3.8-3.8,9.9-3.8,13.7,0c3.8,3.8,3.8,9.9,0,13.7l-8,8
			c-3.8,3.8-9.9,3.8-13.7,0C305.593,175.287,305.593,169.187,309.493,165.387z M235.293,131.387c0-5.4,4.3-9.7,9.7-9.7
			s9.7,4.3,9.7,9.7v11.3c0,5.4-4.3,9.7-9.7,9.7s-9.7-4.3-9.7-9.7V131.387z M144.093,253.286h-11.3c-5.4,0-9.7-4.3-9.7-9.7
			c0-5.4,4.3-9.7,9.7-9.7h11.3c5.4,0,9.7,4.3,9.7,9.7C153.793,248.987,149.493,253.286,144.093,253.286z M158.793,157.387
			c3.8-3.8,9.9-3.8,13.7,0l8,8c3.8,3.8,3.8,9.9,0,13.7c-3.8,3.9-9.9,3.9-13.7,0l-8-8
			C154.893,167.287,154.893,161.187,158.793,157.387z M180.493,321.786l-8,8c-3.8,3.9-9.9,3.9-13.7,0s-3.8-9.9,0-13.7l8-8
			c3.8-3.8,9.9-3.8,13.7,0C184.393,311.887,184.393,317.987,180.493,321.786z M254.693,355.786c0,5.4-4.3,9.7-9.7,9.7
			s-9.7-4.3-9.7-9.7v-11.3c0-5.4,4.3-9.7,9.7-9.7s9.7,4.3,9.7,9.7V355.786z M244.993,253.487v-0.4c-5.4,0-9.7-4.3-9.7-9.7v-63
			c0-5.4,4.3-9.7,9.7-9.7s9.7,4.3,9.7,9.7v53.7h45.9c5.4,0,9.7,4.3,9.7,9.7c0,5.4-4.3,9.7-9.7,9.7H244.993z M331.193,329.786
			c-3.8,3.8-9.9,3.9-13.7,0l-8-8c-3.8-3.8-3.8-9.9,0-13.7s9.9-3.8,13.7,0l8,8C335.093,319.887,335.093,325.987,331.193,329.786z
			 M357.193,233.887c5.4,0,9.7,4.3,9.7,9.7c0,5.4-4.3,9.7-9.7,9.7h-11.3c-5.4,0-9.7-4.3-9.7-9.7s4.3-9.7,9.7-9.7H357.193z"/>
	</g>
</g>
<g>
</g>
<g>
</g>
<g>
</g>
<g>
</g>
<g>
</g>
<g>
</g>
<g>
</g>
<g>
</g>
<g>
</g>
<g>
</g>
<g>
</g>
<g>
</g>
<g>
</g>
<g>
</g>
<g>
</g>
</svg>
