<?xml version="1.0" encoding="iso-8859-1"?>
<!-- Generator: Adobe Illustrator 19.0.0, SVG Export Plug-In . SVG Version: 6.00 Build 0)  -->
<svg version="1.1" id="Capa_1" xmlns="http://www.w3.org/2000/svg" xmlns:xlink="http://www.w3.org/1999/xlink" x="0px" y="0px"
	 viewBox="0 0 489.75 489.75" style="enable-background:new 0 0 489.75 489.75;" xml:space="preserve">
<g>
	<path d="M29.175,436.65c-38.9-38.9-38.9-102.3,0-141.6l232.1-232.1c52.1-52.1,137.3-52.1,189.4,0s52.1,137.3,0,189.4l-144.3,144.2
		c-6.6,6.6-17.5,6.6-24.1,0s-6.6-17.5,0-24.1l144.3-144.3c38.9-38.9,38.9-101.9,0-140.8s-101.9-38.9-140.8,0l-232.1,232.2
		c-25.7,25.7-25.7,67.3,0,92.9s67.3,25.7,92.9,0l212.7-212.6c13.6-13.6,13.6-35.4,0-49s-35.4-13.6-49,0l-132.2,132.2
		c-6.6,6.6-17.5,6.6-24.1,0s-6.6-17.5,0-24.1l132.2-132.2c26.8-26.8,70.8-26.8,97.6,0s26.8,70.8,0,97.6l-212.7,212.7
		C131.375,475.55,68.075,475.55,29.175,436.65z"/>
</g>
<g>
</g>
<g>
</g>
<g>
</g>
<g>
</g>
<g>
</g>
<g>
</g>
<g>
</g>
<g>
</g>
<g>
</g>
<g>
</g>
<g>
</g>
<g>
</g>
<g>
</g>
<g>
</g>
<g>
</g>
</svg>
