<?xml version="1.0" encoding="iso-8859-1"?>
<!-- Generator: Adobe Illustrator 19.0.0, SVG Export Plug-In . SVG Version: 6.00 Build 0)  -->
<svg version="1.1" id="Capa_1" xmlns="http://www.w3.org/2000/svg" xmlns:xlink="http://www.w3.org/1999/xlink" x="0px" y="0px"
	 viewBox="0 0 490 490" style="enable-background:new 0 0 490 490;" xml:space="preserve">
<g>
	<g>
		<rect x="32.01" y="309.6" width="108.5" height="180.4"/>
		<rect x="187.61" y="248.1" width="108.5" height="241.9"/>
		<rect x="342.71" y="166.1" width="108.5" height="323.9"/>
		<g>
			<path d="M237.11,114.7c-1.9,5.8,1.6,12.1,7.4,13.6l17.9,5.4l-231.5,95.6c-5.7,2.4-8.4,8.9-6.1,14.6c2.4,5.7,8.9,8.4,14.6,6.1
				l236.3-96.8l-7.3,20.1c-2.1,5.7,0.9,12.1,6.7,14.1c5.8,2,12.1-1.1,14-6.9l14.7-43.5c2.2-6.5-1.4-13.6-8-15.7l-44.6-14
				C244.91,105.8,239.11,108.9,237.11,114.7z"/>
		</g>
		<path d="M397.21,0c-38.1,0-68.8,30.7-68.8,68.8s30.7,68.8,68.8,68.8s68.8-30.7,68.8-68.8C466.01,30.7,435.31,0,397.21,0z
			 M404.11,109.2v4.8c0,3.8-3.1,6.9-6.9,6.9s-6.9-3.1-6.9-6.9v-4.8c-4-1.2-7.8-3.5-10.7-6.6c-2.6-2.8-2.5-7.1,0.3-9.8
			c2.8-2.6,7.1-2.5,9.8,0.3c2,2.1,4.7,3.3,7.5,3.3c5.7,0,10.3-4.6,10.3-10.3s-4.6-10.3-10.3-10.3c-13.3,0-24.2-10.8-24.2-24.2
			c0-10.9,7.3-20.2,17.2-23.1v-4.8c0-3.8,3.1-6.9,6.9-6.9s6.9,3.1,6.9,6.9v4.8c4,1.2,7.8,3.5,10.7,6.6c2.6,2.8,2.5,7.1-0.3,9.8
			c-2.8,2.6-7.1,2.5-9.8-0.3c-2-2.1-4.7-3.3-7.5-3.3c-5.7,0-10.3,4.6-10.3,10.3s4.6,10.3,10.3,10.3c13.3,0,24.2,10.8,24.2,24.2
			C421.31,97,414.01,106.2,404.11,109.2z"/>
	</g>
</g>
<g>
</g>
<g>
</g>
<g>
</g>
<g>
</g>
<g>
</g>
<g>
</g>
<g>
</g>
<g>
</g>
<g>
</g>
<g>
</g>
<g>
</g>
<g>
</g>
<g>
</g>
<g>
</g>
<g>
</g>
</svg>
