<?xml version="1.0" encoding="iso-8859-1"?>
<!-- Generator: Adobe Illustrator 19.0.0, SVG Export Plug-In . SVG Version: 6.00 Build 0)  -->
<svg version="1.1" id="Capa_1" xmlns="http://www.w3.org/2000/svg" xmlns:xlink="http://www.w3.org/1999/xlink" x="0px" y="0px"
	 viewBox="0 0 490 490" style="enable-background:new 0 0 490 490;" xml:space="preserve">
<g>
	<g>
		<polygon points="86.15,0 13.05,0 13.05,490 476.45,490 476.45,416.9 86.15,416.9 		"/>
		<rect x="399.15" y="205" width="77.8" height="176.9"/>
		<rect x="282.85" y="274.9" width="77.8" height="106.9"/>
		<rect x="166.95" y="53.7" width="77.8" height="328.2"/>
		<path d="M120.75,65h15.6c6.2,0,11.7-5.1,11.7-11.7s-5.1-11.7-11.7-11.7h-15.6c-6.2,0-11.7,5.1-11.7,11.7S114.55,65,120.75,65z"/>
		<path d="M120.75,138.9h15.6c6.2,0,11.7-5.1,11.7-11.7c0-6.2-5.1-11.7-11.7-11.7h-15.6c-6.2,0-11.7,5.1-11.7,11.7
			C109.05,133.8,114.55,138.9,120.75,138.9z"/>
		<path d="M120.75,212.7h15.6c6.2,0,11.7-5.1,11.7-11.7c0-6.2-5.1-11.7-11.7-11.7h-15.6c-6.2,0-11.7,5.1-11.7,11.7
			C109.05,207.3,114.55,212.7,120.75,212.7z"/>
		<path d="M120.75,286.2h15.6c6.2,0,11.7-5.1,11.7-11.7s-5.1-11.7-11.7-11.7h-15.6c-6.2,0-11.7,5.1-11.7,11.7
			C109.05,281.2,114.55,286.2,120.75,286.2z"/>
		<path d="M120.75,360.1h15.6c6.2,0,11.7-5.1,11.7-11.7c0-6.2-5.1-11.7-11.7-11.7h-15.6c-6.2,0-11.7,5.1-11.7,11.7
			C109.05,355,114.55,360.1,120.75,360.1z"/>
	</g>
</g>
<g>
</g>
<g>
</g>
<g>
</g>
<g>
</g>
<g>
</g>
<g>
</g>
<g>
</g>
<g>
</g>
<g>
</g>
<g>
</g>
<g>
</g>
<g>
</g>
<g>
</g>
<g>
</g>
<g>
</g>
</svg>
