<?xml version="1.0" encoding="iso-8859-1"?>
<!-- Generator: Adobe Illustrator 19.0.0, SVG Export Plug-In . SVG Version: 6.00 Build 0)  -->
<svg version="1.1" id="Capa_1" xmlns="http://www.w3.org/2000/svg" xmlns:xlink="http://www.w3.org/1999/xlink" x="0px" y="0px"
	 viewBox="0 0 489.7 489.7" style="enable-background:new 0 0 489.7 489.7;" xml:space="preserve">
<g>
	<g>
		<rect y="29.15" width="489.7" height="28.8"/>
		<path d="M38.5,300.85c0,27.2,21.8,49,49,49h314.8c27.2,0,49-21.8,49-49V81.65H38.5V300.85z M153.6,270.15h28v-62.6
			c0-5.4,4.3-9.7,9.7-9.7s9.7,4.3,9.7,9.7v63h35v-113.5c0-5.4,4.3-9.7,9.7-9.7s9.7,4.3,9.7,9.7v113.1h35v-90.2
			c0-5.4,4.3-9.7,9.7-9.7c5.4,0,9.7,4.3,9.7,9.7v90.2h28c5.4,0,9.7,4.3,9.7,9.7c0,5.4-4.3,9.7-9.7,9.7H153.6c-5.4,0-9.7-4.3-9.7-9.7
			C143.8,274.35,148.1,270.15,153.6,270.15z"/>
		<polygon points="283.8,373.85 315.2,460.55 360.7,460.55 329.2,373.85 		"/>
		<polygon points="129.1,460.55 174.6,460.55 206,373.85 160.6,373.85 		"/>
	</g>
</g>
<g>
</g>
<g>
</g>
<g>
</g>
<g>
</g>
<g>
</g>
<g>
</g>
<g>
</g>
<g>
</g>
<g>
</g>
<g>
</g>
<g>
</g>
<g>
</g>
<g>
</g>
<g>
</g>
<g>
</g>
</svg>
