<?xml version="1.0" encoding="iso-8859-1"?>
<!-- Generator: Adobe Illustrator 19.0.0, SVG Export Plug-In . SVG Version: 6.00 Build 0)  -->
<svg version="1.1" id="Capa_1" xmlns="http://www.w3.org/2000/svg" xmlns:xlink="http://www.w3.org/1999/xlink" x="0px" y="0px"
	 viewBox="0 0 490.025 490.025" style="enable-background:new 0 0 490.025 490.025;" xml:space="preserve">
<g>
	<g>
		<rect x="5.196" width="66.8" height="483.1"/>
		<rect x="105.796" y="47" width="66.8" height="435.7"/>
		<circle cx="297.296" cy="302.9" r="53.4"/>
		<path d="M206.696,388.8v93.9h66.8v-57.2C247.496,420.5,224.296,407.3,206.696,388.8z"/>
		<path d="M273.596,180.3v-69.5h-66.8V217C224.296,198.4,247.496,185.3,273.596,180.3z"/>
		<path d="M374.396,162.5h-66.8v16c25.1,2,48.1,11.5,66.8,26.2L374.396,162.5L374.396,162.5z"/>
		<path d="M465.696,398l-53.8-45.1c-12.5,28.5-35.2,51.5-63.6,64.2l44.8,54c19.4,23.7,54.8,25.3,76.6,3.9
			C491.396,452.8,489.496,417.4,465.696,398z"/>
		<path d="M402.396,302.9c0-58.1-47.1-105.1-105.1-105.1s-105.1,47.1-105.1,105.1s47,105.1,105.1,105.1S402.396,360.9,402.396,302.9
			z M297.296,377.3c-41.1,0-74.4-33.3-74.4-74.4s33.3-74.4,74.4-74.4s74.4,33.3,74.4,74.4S338.396,377.3,297.296,377.3z"/>
		<path d="M307.596,427.3v55.4h66.8v-3.5l-46.6-55.2C321.196,425.6,314.496,426.8,307.596,427.3z"/>
	</g>
</g>
<g>
</g>
<g>
</g>
<g>
</g>
<g>
</g>
<g>
</g>
<g>
</g>
<g>
</g>
<g>
</g>
<g>
</g>
<g>
</g>
<g>
</g>
<g>
</g>
<g>
</g>
<g>
</g>
<g>
</g>
</svg>
