<?xml version="1.0" encoding="iso-8859-1"?>
<!-- Generator: Adobe Illustrator 19.0.0, SVG Export Plug-In . SVG Version: 6.00 Build 0)  -->
<svg version="1.1" id="Capa_1" xmlns="http://www.w3.org/2000/svg" xmlns:xlink="http://www.w3.org/1999/xlink" x="0px" y="0px"
	 viewBox="0 0 490 490" style="enable-background:new 0 0 490 490;" xml:space="preserve">
<g>
	<g>
		<rect y="0.25" width="490" height="60.7"/>
		<path d="M45.9,341.65h189.4v86.7c-12.8,4.3-22.2,15.9-22.2,29.9c0,17.5,14.4,31.5,32.3,31.5s32.3-14,32.3-31.5
			c0-14-9.3-26.1-22.2-29.9v-86.7h189.4V85.85h-399L45.9,341.65L45.9,341.65z M112,273.65h25.3v-89.1c0-7,5.4-12.4,12.4-12.4
			s12.4,5.4,12.4,12.4v89.1H201v-132.2c0-7,5.4-12.4,12.4-12.4s12.4,5.4,12.4,12.4v132.2h38.9v-73.5c0-7,5.4-12.4,12.4-12.4
			s12.4,5.4,12.4,12.4v73.5h38.9v-97.2c0-7,5.4-12.4,12.4-12.4s12.4,5.4,12.4,12.4v96.8h25.3c7,0,12.4,5.4,12.4,12.4
			s-5.4,12.4-12.4,12.4H112c-7,0-12.4-5.4-12.4-12.4C99.6,279.05,105,273.65,112,273.65z"/>
	</g>
</g>
<g>
</g>
<g>
</g>
<g>
</g>
<g>
</g>
<g>
</g>
<g>
</g>
<g>
</g>
<g>
</g>
<g>
</g>
<g>
</g>
<g>
</g>
<g>
</g>
<g>
</g>
<g>
</g>
<g>
</g>
</svg>
