<?xml version="1.0" encoding="iso-8859-1"?>
<!-- Generator: Adobe Illustrator 19.0.0, SVG Export Plug-In . SVG Version: 6.00 Build 0)  -->
<svg version="1.1" id="Capa_1" xmlns="http://www.w3.org/2000/svg" xmlns:xlink="http://www.w3.org/1999/xlink" x="0px" y="0px"
	 viewBox="0 0 489.958 489.958" style="enable-background:new 0 0 489.958 489.958;" xml:space="preserve">
<g>
	<g>
		<polygon points="71.2,9.897 0,9.897 0,487.597 477.7,487.597 477.7,416.397 71.2,416.397 		"/>
		<rect x="114" y="60.697" width="89.4" height="321.7"/>
		<rect x="255" y="167.097" width="89.4" height="210.8"/>
		<rect x="388.3" y="254.897" width="89.4" height="127.1"/>
		<path d="M489.7,200.897l-10.8-57.7c-1.2-6.9-7.7-11.6-14.6-10c-6.9,1.2-11.6,7.7-10,14.6l5.4,29.7l-252.4-173
			c-5.8-3.9-13.5-2.3-17.7,3.5c-3.9,5.4-2.3,13.5,3.5,17.3l252.4,173l-29.6,5.3c-6.8,1.2-11.3,7.8-10.1,14.6l0,0
			c1.3,6.8,7.8,11.3,14.6,10l58-10.7C486,216.097,491.2,208.697,489.7,200.897z"/>
	</g>
</g>
<g>
</g>
<g>
</g>
<g>
</g>
<g>
</g>
<g>
</g>
<g>
</g>
<g>
</g>
<g>
</g>
<g>
</g>
<g>
</g>
<g>
</g>
<g>
</g>
<g>
</g>
<g>
</g>
<g>
</g>
</svg>
