<?xml version="1.0" encoding="iso-8859-1"?>
<!-- Generator: Adobe Illustrator 19.0.0, SVG Export Plug-In . SVG Version: 6.00 Build 0)  -->
<svg version="1.1" id="Capa_1" xmlns="http://www.w3.org/2000/svg" xmlns:xlink="http://www.w3.org/1999/xlink" x="0px" y="0px"
	 viewBox="0 0 490 490" style="enable-background:new 0 0 490 490;" xml:space="preserve">
<g>
	<g>
		<path d="M294.4,322.8c0,7.4-6.2,13.6-13.6,13.6h-71.6c-7.4,0-13.6-6.2-13.6-13.6v-62.2L0,174.6V490h490V175l-195.6,85.6V322.8z"/>
		<path d="M174.3,71.2c0-27.6,22.4-50,50-50h41.4c27.3,0,49.7,22.4,49.7,50v10.1h25V67.7c0-37.3-30.3-67.7-67.3-67.7h-56
			c-37.3,0-67.7,30.3-67.7,67.7v13.6h25V71.2H174.3z"/>
		<polygon points="0,108.5 0,144.7 245.4,251.2 490,145.1 490,108.5 		"/>
	</g>
</g>
<g>
</g>
<g>
</g>
<g>
</g>
<g>
</g>
<g>
</g>
<g>
</g>
<g>
</g>
<g>
</g>
<g>
</g>
<g>
</g>
<g>
</g>
<g>
</g>
<g>
</g>
<g>
</g>
<g>
</g>
</svg>
