<?xml version="1.0" encoding="iso-8859-1"?>
<!-- Generator: Adobe Illustrator 19.0.0, SVG Export Plug-In . SVG Version: 6.00 Build 0)  -->
<svg version="1.1" id="Capa_1" xmlns="http://www.w3.org/2000/svg" xmlns:xlink="http://www.w3.org/1999/xlink" x="0px" y="0px"
	 viewBox="0 0 489.9 489.9" style="enable-background:new 0 0 489.9 489.9;" xml:space="preserve">
<g>
	<g>
		<path d="M162.348,49.8c0-13.6,10.9-24.5,24.5-24.5h116.6c13.6,0,24.5,10.9,24.5,24.5v21.4h25.3V49.8c0-27.6-22.5-49.8-49.8-49.8
			h-116.6c-27.2,0-49.8,22.2-49.8,49.8v21.4h25.3V49.8z"/>
		<path d="M420.448,96.8h-350.6c-35,0-63.4,28.4-63.4,63.4v266.3c0,35,28.4,63.4,63.4,63.4h350.2c35,0,63.4-28.4,63.4-63.4V160.2
			C483.848,125.2,455.448,96.8,420.448,96.8z M245.148,395.7c-57.9,0-104.9-47-104.9-104.9s47-104.9,104.9-104.9
			s104.9,47,104.9,104.9S303.048,395.7,245.148,395.7z"/>
	</g>
</g>
<g>
</g>
<g>
</g>
<g>
</g>
<g>
</g>
<g>
</g>
<g>
</g>
<g>
</g>
<g>
</g>
<g>
</g>
<g>
</g>
<g>
</g>
<g>
</g>
<g>
</g>
<g>
</g>
<g>
</g>
</svg>
