<?xml version="1.0" encoding="iso-8859-1"?>
<!-- Generator: Adobe Illustrator 19.0.0, SVG Export Plug-In . SVG Version: 6.00 Build 0)  -->
<svg version="1.1" id="Capa_1" xmlns="http://www.w3.org/2000/svg" xmlns:xlink="http://www.w3.org/1999/xlink" x="0px" y="0px"
	 viewBox="0 0 489.7 489.7" style="enable-background:new 0 0 489.7 489.7;" xml:space="preserve">
<g>
	<g>
		<g>
			<path d="M169,25.2h151.2V80h25.3V12.4c0-7-5.4-12.4-12.4-12.4H156.6c-7,0-12.4,5.4-12.4,12.4v67.2h25.3V25.2H169z"/>
			<path d="M6.2,105.3v384.4h477.3V105.3H6.2z M107.2,430.2c0,7-5.4,12.4-12.4,12.4s-12.4-5.4-12.4-12.4V164.7
				c0-7,5.4-12.4,12.4-12.4s12.4,5.4,12.4,12.4V430.2z M207.5,430.2c0,7-5.4,12.4-12.4,12.4s-12.4-5.4-12.4-12.4V164.7
				c0-7,5.4-12.4,12.4-12.4s12.4,5.4,12.4,12.4V430.2z M307.4,430.2c0,7-5.4,12.4-12.4,12.4s-12.4-5.4-12.4-12.4V164.7
				c0-7,5.4-12.4,12.4-12.4s12.4,5.4,12.4,12.4V430.2z M407.6,430.2c0,7-5.4,12.4-12.4,12.4s-12.4-5.4-12.4-12.4V164.7
				c0-7,5.4-12.4,12.4-12.4s12.4,5.4,12.4,12.4V430.2z"/>
		</g>
	</g>
</g>
<g>
</g>
<g>
</g>
<g>
</g>
<g>
</g>
<g>
</g>
<g>
</g>
<g>
</g>
<g>
</g>
<g>
</g>
<g>
</g>
<g>
</g>
<g>
</g>
<g>
</g>
<g>
</g>
<g>
</g>
</svg>
