<?xml version="1.0" encoding="iso-8859-1"?>
<!-- Generator: Adobe Illustrator 19.0.0, SVG Export Plug-In . SVG Version: 6.00 Build 0)  -->
<svg version="1.1" id="Capa_1" xmlns="http://www.w3.org/2000/svg" xmlns:xlink="http://www.w3.org/1999/xlink" x="0px" y="0px"
	 viewBox="0 0 490 490" style="enable-background:new 0 0 490 490;" xml:space="preserve">
<g>
	<g>
		<g>
			<path d="M5.65,106.9v51.3c13.2,33.1,45.9,56.8,83.6,56.8h311.5c37.7,0,70.4-23.7,83.6-56.8v-51.3
				C484.35,106.9,5.65,106.9,5.65,106.9z"/>
			<path d="M375.95,241.5v47.4h-46.3v-47.4h-168.8v47.4h-46.3v-47.4h-25.3c-32.7,0-62.6-13.6-83.6-35.4V490h478.7V206.1
				c-21,21.8-50.9,35.4-83.6,35.4H375.95z"/>
			<path d="M163.95,26.4h162.9v54.1h26.4V13.2c0-7.4-5.8-13.2-13.2-13.2h-189.3c-7.4,0-13.2,5.8-13.2,13.2v67.3h26.4V26.4z"/>
		</g>
	</g>
</g>
<g>
</g>
<g>
</g>
<g>
</g>
<g>
</g>
<g>
</g>
<g>
</g>
<g>
</g>
<g>
</g>
<g>
</g>
<g>
</g>
<g>
</g>
<g>
</g>
<g>
</g>
<g>
</g>
<g>
</g>
</svg>
