<?xml version="1.0" encoding="iso-8859-1"?>
<!-- Generator: Adobe Illustrator 19.0.0, SVG Export Plug-In . SVG Version: 6.00 Build 0)  -->
<svg version="1.1" id="Capa_1" xmlns="http://www.w3.org/2000/svg" xmlns:xlink="http://www.w3.org/1999/xlink" x="0px" y="0px"
	 viewBox="0 0 489.7 489.7" style="enable-background:new 0 0 489.7 489.7;" xml:space="preserve">
<g>
	<g>
		<path d="M288,328.938c0,7-5.4,12.4-12.4,12.4h-61.4c-7,0-12.4-5.4-12.4-12.4v-87.4H26.9v239.8h435.7v-239.8H287.7L288,328.938
			L288,328.938z"/>
		<rect y="91.138" width="489.7" height="125.9"/>
		<path d="M178.8,45.238c42.4-16.3,89.8-16.3,132.1,0v21.4h24.9v-29.5c0-5.1-2.7-9.3-7.4-11.3c-52.9-23.3-113.9-23.3-166.7,0
			c-4.7,1.9-7.4,6.6-7.4,11.3v29.5h24.5L178.8,45.238L178.8,45.238z"/>
	</g>
</g>
<g>
</g>
<g>
</g>
<g>
</g>
<g>
</g>
<g>
</g>
<g>
</g>
<g>
</g>
<g>
</g>
<g>
</g>
<g>
</g>
<g>
</g>
<g>
</g>
<g>
</g>
<g>
</g>
<g>
</g>
</svg>
