<?xml version="1.0" encoding="iso-8859-1"?>
<!-- Generator: Adobe Illustrator 19.0.0, SVG Export Plug-In . SVG Version: 6.00 Build 0)  -->
<svg version="1.1" id="Capa_1" xmlns="http://www.w3.org/2000/svg" xmlns:xlink="http://www.w3.org/1999/xlink" x="0px" y="0px"
	 viewBox="0 0 490 490" style="enable-background:new 0 0 490 490;" xml:space="preserve">
<g>
	<g>
		<path d="M189.8,26.9h110.8v38.9h24.9V14.4c0-7-5.4-12.4-12.4-12.4H177.3c-7,0-12.4,5.4-12.4,12.4v51.3h24.9V26.9z"/>
		<path d="M437.8,90.6H52.2C23.4,90.6,0,114,0,142.7v41.6h490v-41.6C490,114,466.6,90.6,437.8,90.6z"/>
		<path d="M390.8,209.2v58.3c0,7-5.4,12.4-12.4,12.4s-12.4-5.4-12.4-12.4v-58.3l0,0H124.1l0,0v58.3c0,7-5.4,12.4-12.4,12.4
			c-7,0-12.4-5.4-12.4-12.4v-58.3l0,0H0v226.7C0,464.7,23.3,488,52.1,488h385.7c28.8,0,52.1-23.3,52.1-52.1V209.2H390.8L390.8,209.2
			z"/>
	</g>
</g>
<g>
</g>
<g>
</g>
<g>
</g>
<g>
</g>
<g>
</g>
<g>
</g>
<g>
</g>
<g>
</g>
<g>
</g>
<g>
</g>
<g>
</g>
<g>
</g>
<g>
</g>
<g>
</g>
<g>
</g>
</svg>
