<?xml version="1.0" encoding="iso-8859-1"?>
<!-- Generator: Adobe Illustrator 19.0.0, SVG Export Plug-In . SVG Version: 6.00 Build 0)  -->
<svg version="1.1" id="Capa_1" xmlns="http://www.w3.org/2000/svg" xmlns:xlink="http://www.w3.org/1999/xlink" x="0px" y="0px"
	 viewBox="0 0 489.8 489.8" style="enable-background:new 0 0 489.8 489.8;" xml:space="preserve">
<g>
	<g>
		<rect x="204.95" y="387.2" width="80.5" height="102.6"/>
		<path d="M0.05,0v489.8h178.4V372.4c0-8.2,5.8-14.8,13.2-14.8h106.5c7.4,0,13.2,6.6,13.2,14.8v117.4h178.4V0H0.05z M114.75,312.5
			h-54v-54h54V312.5z M114.75,211.5h-54v-54h54V211.5z M114.75,110.4h-54V56h54V110.4z M219.65,312.5h-54.4v-54h54v54H219.65z
			 M219.65,211.5h-54.4v-54h54v54H219.65z M219.65,110.4h-54.4V56h54v54.4H219.65z M324.65,312.5h-54.4v-54h54v54H324.65z
			 M324.65,211.5h-54.4v-54h54v54H324.65z M324.65,110.4h-54.4V56h54v54.4H324.65z M429.25,312.5h-54v-54h54V312.5z M429.25,211.5
			h-54v-54h54V211.5z M429.25,110.4h-54V56h54V110.4z"/>
	</g>
</g>
<g>
</g>
<g>
</g>
<g>
</g>
<g>
</g>
<g>
</g>
<g>
</g>
<g>
</g>
<g>
</g>
<g>
</g>
<g>
</g>
<g>
</g>
<g>
</g>
<g>
</g>
<g>
</g>
<g>
</g>
</svg>
