<?xml version="1.0" encoding="iso-8859-1"?>
<!-- Generator: Adobe Illustrator 19.0.0, SVG Export Plug-In . SVG Version: 6.00 Build 0)  -->
<svg version="1.1" id="Capa_1" xmlns="http://www.w3.org/2000/svg" xmlns:xlink="http://www.w3.org/1999/xlink" x="0px" y="0px"
	 viewBox="0 0 489.5 489.5" style="enable-background:new 0 0 489.5 489.5;" xml:space="preserve">
<g>
	<g>
		<path d="M366.5,99c6.6,0,12-5.4,12-12V12c0-6.6-5.4-12-12-12s-12,5.4-12,12v75C354.5,93.5,359.9,99,366.5,99z"/>
		<path d="M122.5,99c6.6,0,12-5.4,12-12V12c0-6.6-5.4-12-12-12s-12,5.4-12,12v75C110.4,93.5,115.5,99,122.5,99z"/>
		<path d="M403.1,49.2v37.3c0,19.8-16.3,36.1-36.1,36.1s-36.1-16.3-36.1-36.1V49.2H158.6v37.3c0,19.8-16.3,36.1-36.1,36.1
			s-36.1-16.3-36.1-36.1V49.2H5.9V137l0,0h477.7V49.2H403.1z"/>
		<path d="M5.9,161.1L5.9,161.1v328.4h477.7v-328h-0.8H5.9V161.1z M416.7,442.1H72.3c-6.6,0-12-5.4-12-12c0-6.6,5.4-12,12-12H417
			c6.6,0,12,5.4,12,12C428.7,436.7,423.3,442.1,416.7,442.1z M416.7,372.2H72.3c-6.6,0-12-5.4-12-12c0-6.6,5.4-12,12-12H417
			c6.6,0,12,5.4,12,12C428.7,366.7,423.3,372.2,416.7,372.2z M416.7,302.6H72.3c-6.6,0-12-5.4-12-12c0-6.6,5.4-12,12-12H417
			c6.6,0,12,5.4,12,12C428.7,297.2,423.3,302.6,416.7,302.6z M416.7,233H72.3c-6.6,0-12-5.4-12-12s5.4-12,12-12H417
			c6.6,0,12,5.4,12,12C428.7,227.6,423.3,233,416.7,233z"/>
	</g>
</g>
<g>
</g>
<g>
</g>
<g>
</g>
<g>
</g>
<g>
</g>
<g>
</g>
<g>
</g>
<g>
</g>
<g>
</g>
<g>
</g>
<g>
</g>
<g>
</g>
<g>
</g>
<g>
</g>
<g>
</g>
</svg>
