<?xml version="1.0" encoding="iso-8859-1"?>
<!-- Generator: Adobe Illustrator 19.0.0, SVG Export Plug-In . SVG Version: 6.00 Build 0)  -->
<svg version="1.1" id="Capa_1" xmlns="http://www.w3.org/2000/svg" xmlns:xlink="http://www.w3.org/1999/xlink" x="0px" y="0px"
	 viewBox="0 0 490 490" style="enable-background:new 0 0 490 490;" xml:space="preserve">
<g>
	<g>
		<path d="M460.837,325.8c-37.6-37.6-98.5-37.6-136,0c-37.6,37.6-37.6,98.5,0,136c37.6,37.6,98.5,37.6,136,0
			S498.337,363.4,460.837,325.8z M439.837,408h-49.8c-5.1,0-8.9-3.9-8.9-8.9v-60.2c0-5,3.9-8.9,8.9-8.9c5.1,0,8.9,3.9,8.9,8.9v51.3
			h40.8c5,0,8.9,3.9,8.9,8.9C448.737,404.1,444.837,408,439.837,408z"/>
		<path d="M362.538,87c6.2,0,11.3-5.1,11.3-11.3V11.3c0-6.2-5.1-11.3-11.3-11.3s-11.3,5.1-11.3,11.3v64.5
			C351.237,82,356.237,87,362.538,87z"/>
		<path d="M261.438,87c6.2,0,11.3-5.1,11.3-11.3V11.3c0-6.2-5.1-11.3-11.3-11.3s-11.3,5.1-11.3,11.3v64.5
			C250.538,82,255.638,87,261.438,87z"/>
		<path d="M160.837,87c6.2,0,11.3-5.1,11.3-11.3V11.3c0-6.2-5.1-11.3-11.3-11.3s-11.3,5.1-11.3,11.3v64.5
			C149.538,82,154.538,87,160.837,87z"/>
		<path d="M60.137,87c6.2,0,11.3-5.1,11.3-11.3V11.3c0-6.3-5.1-11.3-11.3-11.3s-11.3,5-11.3,11.3v64.5
			C48.838,82,53.938,87,60.137,87z"/>
		<path d="M421.138,44.3h-25.2v31.5c0,18.7-15.2,33.8-33.8,33.8s-33.8-15.2-33.8-33.8V44.3h-33.4v31.5c0,18.7-15.2,33.8-33.8,33.8
			s-33.8-15.2-33.8-33.8V44.3h-32.6v31.5c0,18.7-15.2,33.8-33.8,33.8s-33.8-15.2-33.8-33.8V44.3h-33.4v31.5
			c0,18.7-15.2,33.8-33.8,33.8s-34-15.2-34-33.8V44.3h-24.9v92.5h420.1V44.3z"/>
		<path d="M309.337,310.4c30.4-30.4,73.3-40.8,112.2-31v-120H1.037v267h278.2C267.938,386.4,277.938,341.7,309.337,310.4z
			 M303.038,205.6h56v44.3h-56V205.6z M119.238,354.4h-56v-43.9h56V354.4z M119.238,249.5h-56v-43.9h56V249.5z M239.337,354.4h-56
			v-43.9h56V354.4z M239.337,249.5h-56v-43.9h56V249.5z"/>
	</g>
</g>
<g>
</g>
<g>
</g>
<g>
</g>
<g>
</g>
<g>
</g>
<g>
</g>
<g>
</g>
<g>
</g>
<g>
</g>
<g>
</g>
<g>
</g>
<g>
</g>
<g>
</g>
<g>
</g>
<g>
</g>
</svg>
