<?xml version="1.0" encoding="iso-8859-1"?>
<!-- Generator: Adobe Illustrator 19.0.0, SVG Export Plug-In . SVG Version: 6.00 Build 0)  -->
<svg version="1.1" id="Capa_1" xmlns="http://www.w3.org/2000/svg" xmlns:xlink="http://www.w3.org/1999/xlink" x="0px" y="0px"
	 viewBox="0 0 489.6 489.6" style="enable-background:new 0 0 489.6 489.6;" xml:space="preserve">
<g>
	<g>
		<path d="M263.1,35.25c-22.9,0-44.7,3.5-65.3,9.7c7,15.5,10.9,31.5,10.9,48.6c0,63.7-52.1,115.8-115.8,115.8
			c-16.3,0-32.3-3.5-47.4-10.1c-5.8,19.8-8.9,41.2-8.9,63c0,125.1,101.4,226.5,226.5,226.5s226.5-101.4,226.5-226.5
			C489.6,136.65,388.2,35.25,263.1,35.25z M97.5,269.95h-33c-4.7,0-8.2-3.5-8.2-8.2s3.5-8.2,8.2-8.2h33c4.7,0,8.2,3.5,8.2,8.2
			S102.2,269.95,97.5,269.95z M254.5,63.55c0-4.7,3.5-8.2,8.2-8.2s8.2,3.5,8.2,8.2v33c0,4.7-3.5,8.2-8.2,8.2s-8.2-3.5-8.2-8.2V63.55
			z M271.2,460.35c0,4.7-3.5,8.2-8.2,8.2s-8.2-3.5-8.2-8.2v-33c0-4.7,3.5-8.2,8.2-8.2s8.2,3.5,8.2,8.2V460.35z M348.8,269.95h-85.7
			c-4.7,0-8.2-3.5-8.2-8.2v-124.5c0-4.7,3.5-8.2,8.2-8.2s8.2,3.5,8.2,8.2v116h77.5c4.7,0,8.2,3.5,8.2,8.2
			C356.9,266.45,353,269.95,348.8,269.95z M461.2,269.95h-33c-4.7,0-8.2-3.5-8.2-8.2s3.5-8.2,8.2-8.2h33c4.7,0,8.2,3.5,8.2,8.2
			S465.9,269.95,461.2,269.95z M397.2,115.65c3.3-3.3,8.2-3.3,11.5,0s3.3,8.2,0,11.5l-23.4,23.4c-3.3,3.3-8.2,3.3-11.5,0
			c-3.3-3.3-3.3-8.2,0-11.5L397.2,115.65z M374.2,384.45c-3.3-3.3-3.3-8.2,0-11.5s8.2-3.3,11.5,0l23.4,23.4c3.3,3.3,3.3,8.2,0,11.5
			s-8.2,3.3-11.5,0L374.2,384.45z M128.5,407.85c-3.3,3.3-8.2,3.3-11.5,0s-3.3-8.2,0-11.5l23.4-23.4c3.3-3.3,8.2-3.3,11.5,0
			s3.3,8.2,0,11.5L128.5,407.85z"/>
		<path d="M92.5,0.85C41.4,0.85,0,42.25,0,93.35s41.4,92.5,92.5,92.5s92.5-41.4,92.5-92.5S143.6,0.85,92.5,0.85z M100.4,139.75v5.5
			c0,4.4-3.6,7.9-7.9,7.9s-7.9-3.6-7.9-7.9v-5.5c-4.7-1.4-8.9-4-12.3-7.6c-3-3.2-2.9-8.2,0.3-11.2c3.2-3,8.2-2.9,11.2,0.3
			c2.3,2.4,5.4,3.7,8.7,3.7c6.6,0,11.9-5.3,11.9-11.9s-5.3-11.9-11.9-11.9c-15.3,0-27.8-12.5-27.8-27.8c0-12.6,8.4-23.2,19.9-26.6
			v-5.5c0-4.4,3.6-7.9,7.9-7.9s7.9,3.6,7.9,7.9v5.6c4.7,1.4,8.9,4,12.3,7.6c3,3.2,2.9,8.2-0.3,11.2c-3.2,3-8.2,2.9-11.2-0.3
			c-2.3-2.4-5.4-3.7-8.7-3.7c-6.6,0-11.9,5.3-11.9,11.9s5.3,11.9,11.9,11.9c15.3,0,27.8,12.5,27.8,27.8
			C120.3,125.75,111.9,136.35,100.4,139.75z"/>
	</g>
</g>
<g>
</g>
<g>
</g>
<g>
</g>
<g>
</g>
<g>
</g>
<g>
</g>
<g>
</g>
<g>
</g>
<g>
</g>
<g>
</g>
<g>
</g>
<g>
</g>
<g>
</g>
<g>
</g>
<g>
</g>
</svg>
