<?xml version="1.0" encoding="iso-8859-1"?>
<!-- Generator: Adobe Illustrator 19.0.0, SVG Export Plug-In . SVG Version: 6.00 Build 0)  -->
<svg version="1.1" id="Capa_1" xmlns="http://www.w3.org/2000/svg" xmlns:xlink="http://www.w3.org/1999/xlink" x="0px" y="0px"
	 viewBox="0 0 489.6 489.6" style="enable-background:new 0 0 489.6 489.6;" xml:space="preserve">
<g>
	<g>
		<path d="M426.4,255.7c2.3-7.4,3.9-15.2,3.9-22.9c0-38.9-31.5-70.7-70.7-70.7c-18.7,0-35.8,7.4-48.6,19.4
			c-10.6-64.6-68-56.1-73.5-55.6c16.3,21.8,26,49,26,78.1c0.8,71.9-57.9,130.6-129.8,130.6c-46.6,0-87.4-24.5-110.4-61
			C8.9,286.4,0,305.1,0,326.1c0,38.9,31.5,70.7,70.7,70.7c0,0,347.5,0,348.2,0c38.9,0,70.7-31.5,70.7-70.7
			C489.4,289.5,461.8,259.6,426.4,255.7z"/>
		<path d="M133.7,92.8c-61.4,0-110.8,49.7-110.8,110.8c0,61,49.4,111.2,110.8,111.2c61,0,110.8-49.7,110.8-110.8
			S194.8,92.8,133.7,92.8z M143.8,262.8v7c0,5.6-4.5,10.1-10.1,10.1s-10.1-4.5-10.1-10.1v-7c-5.9-1.8-11.3-5.1-15.6-9.6
			c-3.8-4.1-3.6-10.4,0.4-14.3c4.1-3.8,10.4-3.6,14.3,0.4c2.9,3.1,6.8,4.8,11,4.8c8.3,0,15.1-6.8,15.1-15.1s-6.8-15.1-15.1-15.1
			c-19.5,0-35.3-15.8-35.3-35.3c0-16,10.6-29.5,25.2-33.8v-7c0-5.6,4.5-10.1,10.1-10.1s10.1,4.5,10.1,10.1v7
			c5.9,1.8,11.3,5.1,15.6,9.6c3.8,4.1,3.6,10.4-0.4,14.3c-4.1,3.8-10.4,3.6-14.3-0.4c-2.9-3.1-6.8-4.8-11-4.8
			c-8.3,0-15.1,6.8-15.1,15.1s6.8,15.1,15.1,15.1c19.5,0,35.3,15.8,35.3,35.3C169,244.9,158.4,258.5,143.8,262.8z"/>
	</g>
</g>
<g>
</g>
<g>
</g>
<g>
</g>
<g>
</g>
<g>
</g>
<g>
</g>
<g>
</g>
<g>
</g>
<g>
</g>
<g>
</g>
<g>
</g>
<g>
</g>
<g>
</g>
<g>
</g>
<g>
</g>
</svg>
