<?xml version="1.0" encoding="iso-8859-1"?>
<!-- Generator: Adobe Illustrator 19.0.0, SVG Export Plug-In . SVG Version: 6.00 Build 0)  -->
<svg version="1.1" id="Capa_1" xmlns="http://www.w3.org/2000/svg" xmlns:xlink="http://www.w3.org/1999/xlink" x="0px" y="0px"
	 viewBox="0 0 489.663 489.663" style="enable-background:new 0 0 489.663 489.663;" xml:space="preserve">
<g>
	<g>
		<path d="M195.531,95.863c20.2,17.5,16.2,52.4,0,64.5c-4,3-3.5,9.3,0,12.8c1.9,1.9,8.4,4.9,12.8,0c13.9-11.2,36.1-57.4,0-90.1
			c-30.5-27.6-12-59-3.1-67.6c3.5-3.5,3.5-9.3,0-12.8s-9.4-3.6-12.8,0C155.931,40.663,179.131,81.763,195.531,95.863z"/>
		<path d="M294.131,118.363c17.5,17.9,5.8,36.1,0,41.9c-3.5,3.5-3.5,9.3,0,12.8l0,0l0,0c1.8,2.2,8.6,4.8,12.8,0l0,0
			c12.9-9,23.6-47.3,0-67.6c-20-17.2-7.8-38.1-1.9-43.9c3.5-3.5,3.5-9.3,0-12.8s-9.3-3.5-12.8,0
			C282.831,57.863,264.331,87.963,294.131,118.363z"/>
		<path d="M96.631,118.363c17.5,17.9,5.8,36.1,0,41.9c-3.5,3.5-3.5,9.3,0,12.8l0,0l0,0c1.8,2.2,8.6,4.8,12.8,0l0,0
			c12.9-9,23.6-47.3,0-67.6c-20-17.2-7.8-38.1-1.9-43.9c3.5-3.5,3.5-9.3,0-12.8s-9.3-3.5-12.8,0
			C85.331,57.863,66.831,87.963,96.631,118.363z"/>
		<path d="M485.231,255.463c-9.3-21.4-32.2-35-62.5-38.1c0.4,2.7,0.8,17.9,0.8,18.3c22.1,2.7,38.8,12,45,26.8
			c3.9,9.3,4.3,20.4-0.8,31.8c-18,41.1-74.9,63.1-83.1,64.1c-5.4,7.8-11.3,14.8-17.5,21.7c65.3-13.1,106.4-51.3,117.7-78.8
			C491.031,284.963,491.031,269.463,485.231,255.463z"/>
		<path d="M200.731,431.463c110.8,0,200.6-89.8,200.6-200.6c0-10.4-0.8-20.5-2.3-30.5H2.431c-1.5,9.9-2.3,20.1-2.3,30.5
			C0.131,341.663,89.931,431.463,200.731,431.463z"/>
		<path d="M353.431,393.963c-40.7,37.1-94.1,59.6-152.7,59.6s-112-22.5-152.8-59.7c-27.7,10.1-44.3,23-44.3,37.1
			c0,32.4,88.2,58.7,196.9,58.7s196.9-26.3,196.9-58.7C397.431,416.963,380.931,404.063,353.431,393.963z"/>
	</g>
</g>
<g>
</g>
<g>
</g>
<g>
</g>
<g>
</g>
<g>
</g>
<g>
</g>
<g>
</g>
<g>
</g>
<g>
</g>
<g>
</g>
<g>
</g>
<g>
</g>
<g>
</g>
<g>
</g>
<g>
</g>
</svg>
