<?xml version="1.0" encoding="iso-8859-1"?>
<!-- Generator: Adobe Illustrator 19.0.0, SVG Export Plug-In . SVG Version: 6.00 Build 0)  -->
<svg version="1.1" id="Capa_1" xmlns="http://www.w3.org/2000/svg" xmlns:xlink="http://www.w3.org/1999/xlink" x="0px" y="0px"
	 viewBox="0 0 489.4 489.4" style="enable-background:new 0 0 489.4 489.4;" xml:space="preserve">
<g>
	<g>
		<path d="M366.1,257.1l36.9,68.7h17.5v-264H68.6v264.1h305.3L343.2,268c-27.6,7-57.5-5.4-71.5-31.8c-16.3-31.1-4.3-69.1,26.8-85.4
			s69.1-4.3,85.4,26.8C398.3,205.1,390.1,238.9,366.1,257.1z M124.9,295.6c0,7-5.8,12.8-12.8,12.8s-12.8-5.8-12.8-12.8V104.5
			c0-7,5.8-12.8,12.8-12.8s12.8,5.8,12.8,12.8V295.6z M175.8,295.6c0,7-5.8,12.8-12.8,12.8s-12.8-5.8-12.8-12.8v-148
			c0-7,5.8-12.8,12.8-12.8s12.8,5.8,12.8,12.8V295.6z M226.3,295.6c0,7-5.8,12.8-12.8,12.8s-12.8-5.8-12.8-12.8V181.8
			c0-7,5.8-12.8,12.8-12.8s12.8,5.8,12.8,12.8V295.6z"/>
		<path d="M4.1,0v416h418.3l-34.6-64.9H56.1c-7,0-12.8-5.8-12.8-12.8v-289c0-7,5.8-12.8,12.8-12.8h377.1c7,0,12.8,5.8,12.8,12.8
			v289.4c0,7-5.8,12.8-12.8,12.8h-16.7l34.6,64.9h34.2V0H4.1z"/>
		<path d="M324.9,441.2H164.1c-13.2,0-24.1,10.9-24.1,24.1s10.9,24.1,24.1,24.1h160.8c13.2,0,24.1-10.9,24.1-24.1
			S338.1,441.2,324.9,441.2z"/>
	</g>
</g>
<g>
</g>
<g>
</g>
<g>
</g>
<g>
</g>
<g>
</g>
<g>
</g>
<g>
</g>
<g>
</g>
<g>
</g>
<g>
</g>
<g>
</g>
<g>
</g>
<g>
</g>
<g>
</g>
<g>
</g>
</svg>
