<?xml version="1.0" encoding="iso-8859-1"?>
<!-- Generator: Adobe Illustrator 19.0.0, SVG Export Plug-In . SVG Version: 6.00 Build 0)  -->
<svg version="1.1" id="Capa_1" xmlns="http://www.w3.org/2000/svg" xmlns:xlink="http://www.w3.org/1999/xlink" x="0px" y="0px"
	 viewBox="0 0 490 490" style="enable-background:new 0 0 490 490;" xml:space="preserve">
<g>
	<g>
		<path d="M57.2,273h376V117.1h-376L57.2,273L57.2,273z M121,248.9c0,5.1-4.3,9.3-9.3,9.3s-9.3-4.3-9.3-9.3V196
			c0-5.1,4.3-9.3,9.3-9.3s9.3,4.3,9.3,9.3V248.9z M189,248.9c0,5.1-4.3,9.3-9.3,9.3c-5.1,0-9.3-4.3-9.3-9.3v-67.3
			c0-5.1,4.3-9.3,9.3-9.3c5.1,0,9.3,4.3,9.3,9.3V248.9z M257.1,248.9c0,5.1-4.3,9.3-9.3,9.3c-5.1,0-9.3-4.3-9.3-9.3V196
			c0-5.1,4.3-9.3,9.3-9.3s9.3,4.3,9.3,9.3V248.9z M325.1,248.9c0,5.1-4.3,9.3-9.3,9.3c-5.1,0-9.3-4.3-9.3-9.3V224
			c0-5.1,4.3-9.3,9.3-9.3c5.1,0,9.3,4.3,9.3,9.3V248.9z M393.1,248.9c0,5.1-4.3,9.3-9.3,9.3s-9.3-4.3-9.3-9.3V196
			c0-5.1,4.3-9.3,9.3-9.3s9.3,4.3,9.3,9.3V248.9z M103.5,151.7l73.1-23.3c1.9-0.8,4.3-0.8,6.2,0L315,177l64.5-30.3
			c4.7-2.3,10.5,0,12.4,4.7c2.3,4.7,0,10.5-4.7,12.4l-68,31.9c-1.2,0.8-4.8,1.9-7,0.4l-133-48.6l-70,22.6
			c-5.1,1.6-10.5-1.2-12.1-6.2C95.7,158.7,98.4,153.6,103.5,151.7z"/>
		<path d="M0,60.3v276.4h490V60.3H0z M47.5,292c-5.1,0-9.3-4.3-9.3-9.3v-175c0-5.1,4.3-9.3,9.3-9.3h395c5.1,0,9.3,4.3,9.3,9.3v175
			c0,5.1-4.3,9.3-9.3,9.3H47.5z M409.5,317.7c0,5.1-4.3,9.3-9.3,9.3s-9.3-4.3-9.3-9.3v-4.3c0-5.1,4.3-9.3,9.3-9.3s9.3,4.3,9.3,9.3
			V317.7z M451.8,317.7c0,5.1-4.3,9.3-9.3,9.3s-9.3-4.3-9.3-9.3v-4.3c0-5.1,4.3-9.3,9.3-9.3s9.3,4.3,9.3,9.3V317.7z"/>
		<polygon points="146.2,412.2 146.2,429.7 343.8,429.7 343.8,412.2 		"/>
		<polygon points="208.5,355.8 196,393.5 294,393.5 281.5,355.8 		"/>
	</g>
</g>
<g>
</g>
<g>
</g>
<g>
</g>
<g>
</g>
<g>
</g>
<g>
</g>
<g>
</g>
<g>
</g>
<g>
</g>
<g>
</g>
<g>
</g>
<g>
</g>
<g>
</g>
<g>
</g>
<g>
</g>
</svg>
