<?xml version="1.0" encoding="iso-8859-1"?>
<!-- Generator: Adobe Illustrator 19.0.0, SVG Export Plug-In . SVG Version: 6.00 Build 0)  -->
<svg version="1.1" id="Capa_1" xmlns="http://www.w3.org/2000/svg" xmlns:xlink="http://www.w3.org/1999/xlink" x="0px" y="0px"
	 viewBox="0 0 489.4 489.4" style="enable-background:new 0 0 489.4 489.4;" xml:space="preserve">
<g>
	<g>
		<path d="M47.4,265.3H442V99.5H47.4V265.3z M257.1,118.9c27.2,0,49.7,21.7,49.7,48.9h-49.7V118.9z M232.3,143.3v48.9H282
			c0,26.8-22.1,48.9-49.7,48.9c-27.2,0-49.7-21.7-49.7-48.9C183,165.5,205.1,143.3,232.3,143.3z"/>
		<path d="M489.4,339.5V52.1H0v287.4h198.1l-16.7,58.6h-49.3v39.2h225.2v-39.2H308l-16.7-58.6H489.4z M221,302.6
			c0-4.3,3.5-7.8,7.8-7.8h31.5c4.3,0,7.8,3.5,7.8,7.8s-3.5,7.8-7.8,7.8h-31.5C224.5,310.3,221,306.8,221,302.6z M31.5,273V91.7
			c0-4.3,3.5-7.8,7.8-7.8h410.4c4.3,0,7.8,3.5,7.8,7.8v181.7c0,4.3-3.5,7.8-7.8,7.8h-410C35,281.2,31.5,277.7,31.5,273z"/>
	</g>
</g>
<g>
</g>
<g>
</g>
<g>
</g>
<g>
</g>
<g>
</g>
<g>
</g>
<g>
</g>
<g>
</g>
<g>
</g>
<g>
</g>
<g>
</g>
<g>
</g>
<g>
</g>
<g>
</g>
<g>
</g>
</svg>
