<?xml version="1.0" encoding="iso-8859-1"?>
<!-- Generator: Adobe Illustrator 19.0.0, SVG Export Plug-In . SVG Version: 6.00 Build 0)  -->
<svg version="1.1" id="Capa_1" xmlns="http://www.w3.org/2000/svg" xmlns:xlink="http://www.w3.org/1999/xlink" x="0px" y="0px"
	 viewBox="0 0 490 490" style="enable-background:new 0 0 490 490;" xml:space="preserve">
<g>
	<g>
		<path d="M49.4,288.2h391.2v-184H49.4V288.2z M112.8,223.6c6.2-6.2,14.8-7.8,22.6-5.4l58.3-58.3c-2.3-7.8-0.8-16.3,5.4-22.6
			c8.6-8.6,22.6-8.6,31.1,0c5.8,5.8,7.4,13.6,5.8,21l31.9,60.3c4.7-1.6,9.3-1.6,14,0l58.3-58.3c-2.3-7.8-0.8-16.3,5.4-22.6
			c8.6-8.6,22.6-8.6,31.1,0s8.6,22.6,0,31.1c-6.2,6.2-14.8,7.8-22.6,5.4l-58.3,58.3c2.3,7.8,0.8,16.3-5.4,22.6
			c-8.6,8.6-22.6,8.6-31.1,0c-5.8-5.8-7.4-13.6-5.8-21l-31.9-60.3c-4.7,1.6-9.3,1.6-14,0l-58.3,58.3c2.3,7.8,0.8,16.3-5.4,22.6
			c-8.6,8.6-22.6,8.6-31.1,0C104.2,246.2,104.2,232.2,112.8,223.6z"/>
		<path d="M490,342.6V54.9H0v287.7h197.5l-14.8,58.7h-50.5v33.8h225.5v-33.8h-50.5l-14.8-58.7H490z M29.6,297.9V94.1
			c0-5.4,4.3-9.7,9.7-9.7h411c5.4,0,9.7,4.3,9.7,9.7v203.8c0,5.4-4.3,9.7-9.7,9.7H39.7C34.2,308,29.6,303.3,29.6,297.9z"/>
	</g>
</g>
<g>
</g>
<g>
</g>
<g>
</g>
<g>
</g>
<g>
</g>
<g>
</g>
<g>
</g>
<g>
</g>
<g>
</g>
<g>
</g>
<g>
</g>
<g>
</g>
<g>
</g>
<g>
</g>
<g>
</g>
</svg>
