<?xml version="1.0" encoding="iso-8859-1"?>
<!-- Generator: Adobe Illustrator 19.0.0, SVG Export Plug-In . SVG Version: 6.00 Build 0)  -->
<svg version="1.1" id="Capa_1" xmlns="http://www.w3.org/2000/svg" xmlns:xlink="http://www.w3.org/1999/xlink" x="0px" y="0px"
	 viewBox="0 0 490 490" style="enable-background:new 0 0 490 490;" xml:space="preserve">
<g>
	<g>
		<path d="M232.9,272.6v-86.3h-27.2C207.7,229.8,220.1,260.2,232.9,272.6z"/>
		<path d="M256.7,162.6h28c-1.9-44.3-14.8-75.1-28-87.1V162.6z"/>
		<path d="M256.7,273c12.8-12.1,26.1-42.8,28-87.1h-28V273z"/>
		<path d="M288.6,79.3c11.3,20.6,18.3,49.8,19.8,83.2h40.8C344.6,125.2,321.2,94.1,288.6,79.3z"/>
		<path d="M232.9,162.6V75.8c-12.8,12.4-25.3,42.8-27.2,86.3h27.2V162.6z"/>
		<path d="M288.6,269.5c32.7-15.2,56-46.3,60.3-83.2h-40.4C306.8,219.7,299.8,248.5,288.6,269.5z"/>
		<path d="M0,23.7v300.6h490V23.7H0z M245,302.6c-70.8,0-128.3-57.6-128.3-128.3S174.2,45.9,245,45.9s128.3,57.6,128.3,128.3
			S315.8,302.6,245,302.6z"/>
		<path d="M141.2,162.6H182c1.6-33.4,8.6-62.6,19.8-83.2C168.8,94.1,145.4,125.2,141.2,162.6z"/>
		<path d="M141.2,186.3c4.3,36.9,28,68.1,60.3,83.2c-11.3-20.6-18.3-49.8-19.8-83.2H141.2z"/>
		<polygon points="336.4,405.6 316.2,348.4 173.8,348.4 153.6,405.6 103.4,405.6 103.4,466.3 386.6,466.3 386.6,405.6 		"/>
	</g>
</g>
<g>
</g>
<g>
</g>
<g>
</g>
<g>
</g>
<g>
</g>
<g>
</g>
<g>
</g>
<g>
</g>
<g>
</g>
<g>
</g>
<g>
</g>
<g>
</g>
<g>
</g>
<g>
</g>
<g>
</g>
</svg>
