<?xml version="1.0" encoding="iso-8859-1"?>
<!-- Generator: Adobe Illustrator 19.0.0, SVG Export Plug-In . SVG Version: 6.00 Build 0)  -->
<svg version="1.1" id="Capa_1" xmlns="http://www.w3.org/2000/svg" xmlns:xlink="http://www.w3.org/1999/xlink" x="0px" y="0px"
	 viewBox="0 0 490 490" style="enable-background:new 0 0 490 490;" xml:space="preserve">
<g>
	<g>
		<path d="M490,342.2V54.5H0v287.7h198l-16,58.7h-49.8v34.6h225.5v-34.6H308l-16-58.7H490z M416.1,315.4c0,5.4-4.3,9.7-9.7,9.7
			s-9.7-4.3-9.7-9.7v-5.1c0-5.4,4.3-9.7,9.7-9.7s9.7,4.3,9.7,9.7V315.4z M460.4,315.4c0,5.4-4.3,9.7-9.7,9.7c-5.4,0-9.7-4.3-9.7-9.7
			v-5.1c0-5.4,4.3-9.7,9.7-9.7c5.4,0,9.7,4.3,9.7,9.7V315.4z M29.6,275.7v-182c0-5.4,4.3-9.7,9.7-9.7h411c5.4,0,9.7,4.3,9.7,9.7v182
			c0,5.4-4.3,9.7-9.7,9.7H39.7C34.3,285.8,29.6,281.2,29.6,275.7z"/>
		<path d="M49.4,103.9V266h391.1V103.9H49.4z M272.7,175.3c4.8,0,8.6,3.9,8.6,8.6c0,4.8-3.9,8.6-8.6,8.6h-19.1v8.5h19.1
			c4.8,0,8.6,3.9,8.6,8.6c0,4.8-3.9,8.6-8.6,8.6h-19.1v10.5c0,4.8-3.9,8.6-8.6,8.6s-8.6-3.9-8.6-8.6v-10.5h-19.1
			c-4.8,0-8.6-3.9-8.6-8.6c0-4.8,3.9-8.6,8.6-8.6h19.1v-8.5h-19.1c-4.8,0-8.6-3.9-8.6-8.6c0-4.8,3.9-8.6,8.6-8.6h10.4l-19-29.5
			c-2.6-4-1.4-9.4,2.6-11.9c4-2.6,9.4-1.4,11.9,2.6l21.7,33.8l21.7-33.8c2.6-4,7.9-5.2,11.9-2.6c4,2.6,5.2,7.9,2.6,11.9l-19,29.5
			H272.7z"/>
	</g>
</g>
<g>
</g>
<g>
</g>
<g>
</g>
<g>
</g>
<g>
</g>
<g>
</g>
<g>
</g>
<g>
</g>
<g>
</g>
<g>
</g>
<g>
</g>
<g>
</g>
<g>
</g>
<g>
</g>
<g>
</g>
</svg>
