<?xml version="1.0" encoding="iso-8859-1"?>
<!-- Generator: Adobe Illustrator 19.0.0, SVG Export Plug-In . SVG Version: 6.00 Build 0)  -->
<svg version="1.1" id="Capa_1" xmlns="http://www.w3.org/2000/svg" xmlns:xlink="http://www.w3.org/1999/xlink" x="0px" y="0px"
	 viewBox="0 0 489.4 489.4" style="enable-background:new 0 0 489.4 489.4;" xml:space="preserve">
<g>
	<g>
		<polygon points="281.2,30.7 281.2,99.8 350.3,99.8 		"/>
		<path d="M223.7,447.4l40.4-133.2L381,197.3v-72.2l0,0H268.4c-7,0-12.8-5.8-12.8-12.8V0l0,0H5.5v489.4h376V382.6l-39.2,39.2
			L223.7,447.4z M62.5,72.3h156.9c7,0,12.8,5.8,12.8,12.8s-5.8,12.8-12.8,12.8H62.5c-7,0-12.8-5.8-12.8-12.8
			C49.7,78.1,55.6,72.3,62.5,72.3z M62.5,149.5h156.9c7,0,12.8,5.8,12.8,12.8s-5.8,12.8-12.8,12.8H62.5c-7,0-12.8-5.8-12.8-12.8
			C49.7,155,55.6,149.5,62.5,149.5z M62.5,251.7c-7,0-12.8-5.8-12.8-12.8c0-7,5.8-12.8,12.8-12.8h156.9c7,0,12.8,5.8,12.8,12.8
			c0,7-5.8,12.8-12.8,12.8H62.5z"/>
		<polygon points="427.6,186.8 295.6,318.9 352.3,375.6 352.3,375.6 483.9,243.5 		"/>
		<polygon points="329.4,388.4 282.4,341.4 261.8,409.4 		"/>
	</g>
</g>
<g>
</g>
<g>
</g>
<g>
</g>
<g>
</g>
<g>
</g>
<g>
</g>
<g>
</g>
<g>
</g>
<g>
</g>
<g>
</g>
<g>
</g>
<g>
</g>
<g>
</g>
<g>
</g>
<g>
</g>
</svg>
