<?xml version="1.0" encoding="iso-8859-1"?>
<!-- Generator: Adobe Illustrator 19.0.0, SVG Export Plug-In . SVG Version: 6.00 Build 0)  -->
<svg version="1.1" id="Capa_1" xmlns="http://www.w3.org/2000/svg" xmlns:xlink="http://www.w3.org/1999/xlink" x="0px" y="0px"
	 viewBox="0 0 490.4 490.4" style="enable-background:new 0 0 490.4 490.4;" xml:space="preserve">
<g>
	<g>
		<rect x="0" y="172.5" width="489.9" height="48.6"/>
		<path d="M490,152.7v-21c0-25.3-20.6-45.9-45.9-45.9H45.9C20.6,85.8,0,106.4,0,131.7v21H490z"/>
		<path d="M0,240.9v117.8c0,25.3,20.6,45.9,45.9,45.9h398.6c25.3,0,45.9-20.6,45.9-45.9V240.9H0z M57.2,298.5c0-5.4,4.3-9.7,9.7-9.7
			h151.3c5.4,0,9.7,4.3,9.7,9.7c0,5.4-4.3,9.7-9.7,9.7H66.9C61.5,308.6,57.2,303.9,57.2,298.5z M245,357.6h-82
			c-5.4,0-9.7-4.3-9.7-9.7c0-5.4,4.3-9.7,9.7-9.7h82c5.4,0,9.7,4.3,9.7,9.7C254.7,352.9,250.4,357.6,245,357.6z"/>
	</g>
</g>
<g>
</g>
<g>
</g>
<g>
</g>
<g>
</g>
<g>
</g>
<g>
</g>
<g>
</g>
<g>
</g>
<g>
</g>
<g>
</g>
<g>
</g>
<g>
</g>
<g>
</g>
<g>
</g>
<g>
</g>
</svg>
