<?xml version="1.0" encoding="iso-8859-1"?>
<!-- Generator: Adobe Illustrator 19.0.0, SVG Export Plug-In . SVG Version: 6.00 Build 0)  -->
<svg version="1.1" id="Capa_1" xmlns="http://www.w3.org/2000/svg" xmlns:xlink="http://www.w3.org/1999/xlink" x="0px" y="0px"
	 viewBox="0 0 489.424 489.424" style="enable-background:new 0 0 489.424 489.424;" xml:space="preserve">
<g>
	<g>
		<path d="M127.922,211.619l43.2-19.8l-47.4-9.7l-2.7,12.4C119.322,201.119,122.422,207.719,127.922,211.619z"/>
		<polygon points="356.122,261.819 45.122,404.119 57.122,430.119 368.222,287.819 		"/>
		<path d="M364.722,232.219l15.2,33l56.5,11.7c8.8,1.8,17.4-3.8,19.3-12.6l2.7-12.7L364.722,232.219z"/>
		<path d="M312.522,167.719c-3.8-8.3-13.5-11.9-21.8-8.1l-281,128.6c-8.2,3.9-12.1,13.6-8.2,21.8l34.6,75.8l311.1-142.3
			L312.522,167.719z M264.422,254.019l-18.7-40.8l40.8-19l18.7,40.8L264.422,254.019z"/>
		<path d="M65.322,449.619l5.4,11.7c3.9,8.2,13.6,12.1,21.8,8.2l280.8-128.6c8.7-4,12.4-14.3,8.2-22.8l-5.2-10.7L65.322,449.619z"/>
		<polygon points="339.022,176.219 354.222,208.919 462.722,231.419 468.522,203.119 		"/>
		<path d="M476.722,81.419l-302.6-62.7c-8.8-1.8-17.5,3.8-19.3,12.7l-17.2,81.8l139.9,29.3c0,0,13-5.4,20.1-4.7
			c12.3,1.1,21.6,5.4,28.5,15.4l145.5,30l17.1-81.7C491.522,92.219,485.622,83.319,476.722,81.419z M443.622,151.319l-43.9-9.3
			l9.3-43.9l43.9,9.3L443.622,151.319z"/>
		<polygon points="246.922,156.819 133.322,133.519 127.522,161.819 202.222,177.419 		"/>
	</g>
</g>
<g>
</g>
<g>
</g>
<g>
</g>
<g>
</g>
<g>
</g>
<g>
</g>
<g>
</g>
<g>
</g>
<g>
</g>
<g>
</g>
<g>
</g>
<g>
</g>
<g>
</g>
<g>
</g>
<g>
</g>
</svg>
