<?xml version="1.0" encoding="iso-8859-1"?>
<!-- Generator: Adobe Illustrator 19.0.0, SVG Export Plug-In . SVG Version: 6.00 Build 0)  -->
<svg version="1.1" id="Capa_1" xmlns="http://www.w3.org/2000/svg" xmlns:xlink="http://www.w3.org/1999/xlink" x="0px" y="0px"
	 viewBox="0 0 490 490" style="enable-background:new 0 0 490 490;" xml:space="preserve">
<g>
	<g>
		<g>
			<polygon points="337.25,466.3 399.85,403.3 337.25,403.3 			"/>
			<path d="M317.35,490v-96.4c0-5.4,4.3-9.7,9.7-9.7h96.8V0H66.15v490H317.35L317.35,490z M112.45,63.4h265.2c5.4,0,9.7,4.3,9.7,9.7
				s-4.3,9.7-9.7,9.7h-265.2c-5.4,0-9.7-4.3-9.7-9.7C102.35,67.7,106.95,63.4,112.45,63.4z M112.45,140.4h265.2
				c5.4,0,9.7,4.3,9.7,9.7s-4.3,9.7-9.7,9.7h-265.2c-5.4,0-9.7-4.3-9.7-9.7C102.35,145.1,106.95,140.4,112.45,140.4z M112.45,217.8
				h265.2c5.4,0,9.7,4.3,9.7,9.7s-4.3,9.7-9.7,9.7h-265.2c-5.4,0-9.7-4.3-9.7-9.7S106.95,217.8,112.45,217.8z M102.35,304.9
				c0-5.4,4.3-9.7,9.7-9.7h265.2c5.4,0,9.7,4.3,9.7,9.7c0,5.4-4.3,9.7-9.7,9.7h-264.8C106.95,314.6,102.35,310.3,102.35,304.9z"/>
		</g>
	</g>
</g>
<g>
</g>
<g>
</g>
<g>
</g>
<g>
</g>
<g>
</g>
<g>
</g>
<g>
</g>
<g>
</g>
<g>
</g>
<g>
</g>
<g>
</g>
<g>
</g>
<g>
</g>
<g>
</g>
<g>
</g>
</svg>
