<?xml version="1.0" encoding="iso-8859-1"?>
<!-- Generator: Adobe Illustrator 19.0.0, SVG Export Plug-In . SVG Version: 6.00 Build 0)  -->
<svg version="1.1" id="Capa_1" xmlns="http://www.w3.org/2000/svg" xmlns:xlink="http://www.w3.org/1999/xlink" x="0px" y="0px"
	 viewBox="0 0 490.1 490.1" style="enable-background:new 0 0 490.1 490.1;" xml:space="preserve">
<g>
	<g>
		<path d="M441.9,255.5c-10.8-152.7-137.1-143.8-137.1-143.8c-4.9,0-5.4,4.7-5.4,4.7c-0.5,4.9,4.3,5.8,4.3,5.8
			c27.6,7.9,86.2,55.8,59.8,122.4l-48.2-7.8L389.5,337l100.6-74.2L441.9,255.5z"/>
		<path d="M145.7,340.3c-24.8-14.5-69.7-75.5-27.5-133.4l44.7,19.5l-47-115.5L0,157.8l44.8,19.1c-27.5,150.6,97.1,173.3,97.1,173.3
			c4.7,1.3,6.4-3.2,6.4-3.2C150.1,342.4,145.7,340.3,145.7,340.3z"/>
		<path d="M270,209.3l79.2,12.8c2.3-13.5-1.5-61.6-50.7-80.5c-10.6-2.7-20.6-12.9-19-27.3v-0.1c0.2-1.6,0.6-3.3,1.1-4.9
			c-13.4-4.2-27.6-6.4-42.4-6.4c-34.4,0-66,12.3-90.6,32.6L200,264.3l-73.5-32c-22.2,40.3,18.6,84.3,29.1,90.6
			c9.6,5.2,16.7,17.6,11.6,31.2v0.1c-1.3,3.5-3.7,7-6.8,9.8c22.4,14.7,49.1,23.2,77.9,23.2c48.8,0,91.9-24.6,117.5-62.2L270,209.3z
			 M244.4,295.4v6c0,4.8-3.9,8.6-8.6,8.6s-8.6-3.9-8.6-8.6v-6c-5-1.5-9.7-4.3-13.3-8.2c-3.3-3.5-3.1-8.9,0.4-12.2
			c3.5-3.3,8.9-3.1,12.2,0.4c2.5,2.6,5.8,4.1,9.4,4.1c7.1,0,12.9-5.8,12.9-12.9s-5.8-12.9-12.9-12.9c-16.6,0-30.1-13.5-30.1-30.1
			c0-13.6,9.1-25.1,21.5-28.8v-6c0-4.8,3.9-8.6,8.6-8.6s8.6,3.9,8.6,8.6v6c5,1.5,9.7,4.3,13.3,8.2c3.3,3.5,3.1,8.9-0.4,12.2
			c-3.5,3.3-8.9,3.1-12.2-0.4c-2.5-2.6-5.8-4.1-9.4-4.1c-7.1,0-12.9,5.8-12.9,12.9c0,7.1,5.8,12.9,12.9,12.9
			c16.6,0,30.1,13.5,30.1,30.1C265.9,280.1,256.8,291.6,244.4,295.4z"/>
	</g>
</g>
<g>
</g>
<g>
</g>
<g>
</g>
<g>
</g>
<g>
</g>
<g>
</g>
<g>
</g>
<g>
</g>
<g>
</g>
<g>
</g>
<g>
</g>
<g>
</g>
<g>
</g>
<g>
</g>
<g>
</g>
</svg>
