<?xml version="1.0" encoding="iso-8859-1"?>
<!-- Generator: Adobe Illustrator 19.0.0, SVG Export Plug-In . SVG Version: 6.00 Build 0)  -->
<svg version="1.1" id="Capa_1" xmlns="http://www.w3.org/2000/svg" xmlns:xlink="http://www.w3.org/1999/xlink" x="0px" y="0px"
	 viewBox="0 0 489.7 489.7" style="enable-background:new 0 0 489.7 489.7;" xml:space="preserve">
<g>
	<path d="M358.4,325.9c0-62.6-50.9-113.5-113.5-113.5c-26.8,0-48.6-21.8-48.6-48.6s21.8-48.6,48.6-48.6c13.5,0,26.1,5.4,35.4,15.3
		c12.3,13.1,32.8,13.7,45.9,1.4s13.7-32.8,1.4-45.9c-13.8-14.6-31.2-25.2-50.2-30.9V32.5c0-17.9-14.5-32.5-32.5-32.5
		s-32.5,14.5-32.5,32.5V55c-46.8,14-81.1,57.5-81.1,108.8c0,62.6,50.9,113.5,113.5,113.5c26.8,0,48.6,21.8,48.6,48.6
		c0,26.8-21.8,48.6-48.6,48.6c-13.5,0-26.1-5.4-35.4-15.3c-12.3-13.1-32.8-13.7-45.9-1.4c-13.1,12.3-13.7,32.8-1.4,45.9
		c13.8,14.6,31.2,25.2,50.2,30.9v22.6c0,17.9,14.5,32.5,32.5,32.5s32.5-14.5,32.5-32.5v-22.5C324.2,420.6,358.4,377.2,358.4,325.9z"
		/>
</g>
<g>
</g>
<g>
</g>
<g>
</g>
<g>
</g>
<g>
</g>
<g>
</g>
<g>
</g>
<g>
</g>
<g>
</g>
<g>
</g>
<g>
</g>
<g>
</g>
<g>
</g>
<g>
</g>
<g>
</g>
</svg>
