<?xml version="1.0" encoding="iso-8859-1"?>
<!-- Generator: Adobe Illustrator 19.0.0, SVG Export Plug-In . SVG Version: 6.00 Build 0)  -->
<svg version="1.1" id="Capa_1" xmlns="http://www.w3.org/2000/svg" xmlns:xlink="http://www.w3.org/1999/xlink" x="0px" y="0px"
	 viewBox="0 0 490 490" style="enable-background:new 0 0 490 490;" xml:space="preserve">
<g>
	<g>
		<g>
			<path d="M367.9,249.3c-0.4-0.4-27.9-26.9-97.2-42.4h-1.6v-107c29.2,4.3,56.4,15.2,81.7,33.1l36.9-52.5
				c-37.3-25.3-76.6-39.7-118.6-42.8V8.6h-36.6V37c-36.9,1.9-66.9,13.2-89.8,34.2c-52.9,47.3-32.1,122.5-20.6,136.5
				c4.3,7,9.7,12.8,15.9,18.3c19.8,16.7,51.3,30.3,94.5,40.4v110.4c-33.8-5.4-66.5-21.8-98.8-49.8l-41.6,50.6
				c41.2,36.2,88.3,56.8,140.4,62.2v41.6h36.6v-41.2c64.2-3.6,92.9-33.8,93.3-34.2C393,382.3,422,305.3,367.9,249.3z M232.6,196.8
				c-21.4-7-35.8-14-43.2-21.4c-7.8-7.4-22.2-36.9,3.1-62.2c9.2-9.2,22.9-13.6,40.1-15.2V196.8z M312.3,363.2
				c-10.5,8.9-24.9,14-43.2,15.9V276.5c22.9,7,38.7,13.8,46.7,21.8C338.4,320.9,325.3,355.7,312.3,363.2z"/>
			<path d="M420,324.7c-0.6,39-12.8,72.3-44.3,98.8l0,0l31.5,36.9L490,364h-43.6V154h-78.6v67.7C367.9,221.7,421.1,253.4,420,324.7z
				"/>
			<path d="M122.1,241.9v65.7L98,336.4V336H43.6V126H0l82.4-96.8l33.1,38.5l0,0C95.7,91,86.2,119.2,85.9,152.1
				C85.9,152.1,82.2,207.3,122.1,241.9z"/>
		</g>
	</g>
</g>
<g>
</g>
<g>
</g>
<g>
</g>
<g>
</g>
<g>
</g>
<g>
</g>
<g>
</g>
<g>
</g>
<g>
</g>
<g>
</g>
<g>
</g>
<g>
</g>
<g>
</g>
<g>
</g>
<g>
</g>
</svg>
