<?xml version="1.0" encoding="iso-8859-1"?>
<!-- Generator: Adobe Illustrator 19.0.0, SVG Export Plug-In . SVG Version: 6.00 Build 0)  -->
<svg version="1.1" id="Capa_1" xmlns="http://www.w3.org/2000/svg" xmlns:xlink="http://www.w3.org/1999/xlink" x="0px" y="0px"
	 viewBox="0 0 490 490" style="enable-background:new 0 0 490 490;" xml:space="preserve">
<g>
	<g>
		<path d="M457.7,394.35H20.2v-273c0-5.4-4.7-10.1-10.1-10.1S0,115.95,0,121.35v283.1c0,5.4,4.7,10.1,10.1,10.1h447.6
			c5.4,0,10.1-4.7,10.1-10.1C467.8,399.05,463.6,394.35,457.7,394.35z"/>
		<path d="M42.4,75.45v283.1H490V75.45H42.4z M279.2,293.25v9c0,7.2-5.8,13-13,13s-13-5.8-13-13v-9.1c-7.6-2.3-14.6-6.5-20.2-12.4
			c-4.9-5.2-4.7-13.5,0.6-18.4c5.2-4.9,13.5-4.7,18.4,0.6c3.7,4,8.8,6.1,14.2,6.1c10.8,0,19.5-8.8,19.5-19.5
			c0-10.8-8.8-19.5-19.5-19.5l0,0c-25.1,0-45.6-20.4-45.6-45.6c0-20.6,13.7-38,32.5-43.7v-9c0-7.2,5.8-13,13-13s13,5.8,13,13v9.1
			c7.6,2.3,14.6,6.5,20.2,12.4c4.9,5.2,4.7,13.5-0.6,18.4c-5.2,4.9-13.5,4.7-18.4-0.6c-3.7-4-8.8-6.1-14.2-6.1
			c-10.8,0-19.5,8.8-19.5,19.5c0,10.8,8.8,19.5,19.5,19.5l0,0c25.1,0,45.6,20.4,45.6,45.6C311.8,270.25,298,287.65,279.2,293.25z"/>
	</g>
</g>
<g>
</g>
<g>
</g>
<g>
</g>
<g>
</g>
<g>
</g>
<g>
</g>
<g>
</g>
<g>
</g>
<g>
</g>
<g>
</g>
<g>
</g>
<g>
</g>
<g>
</g>
<g>
</g>
<g>
</g>
</svg>
