<?xml version="1.0" encoding="iso-8859-1"?>
<!-- Generator: Adobe Illustrator 19.0.0, SVG Export Plug-In . SVG Version: 6.00 Build 0)  -->
<svg version="1.1" id="Capa_1" xmlns="http://www.w3.org/2000/svg" xmlns:xlink="http://www.w3.org/1999/xlink" x="0px" y="0px"
	 viewBox="0 0 489.4 489.4" style="enable-background:new 0 0 489.4 489.4;" xml:space="preserve">
<g>
	<g>
		<polygon points="65.3,157.3 25.3,192.3 65.3,227.2 		"/>
		<path d="M397.7,250.9V66.4H92.5v184.5l152.6,133.6L397.7,250.9z M148.4,113.8h196.1c7.4,0,13.6,6.2,13.6,13.6s-6.2,13.6-13.6,13.6
			H148.4c-7.4,0-13.6-6.2-13.6-13.6C134.8,120,140.6,113.8,148.4,113.8z M148.4,178.7h196.1c7.4,0,13.6,6.2,13.6,13.6
			c0,7.4-6.2,13.6-13.6,13.6H148.4c-7.4,0-13.6-6.2-13.6-13.6C134.8,184.9,140.6,178.7,148.4,178.7z M134.8,257.1
			c0-7.4,6.2-13.6,13.6-13.6h196.1c7.4,0,13.6,6.2,13.6,13.6c0,7.4-6.2,13.6-13.6,13.6H148.4C140.6,270.7,134.8,264.5,134.8,257.1z"
			/>
		<polygon points="424.9,157.3 424.9,227.2 464.9,192.3 		"/>
		<polygon points="17.9,221.8 17.9,470.7 151.5,338.7 		"/>
		<path d="M317.7,356.9l-64,56.2c-4.9,4.3-12.1,4.3-17,0l-64.6-56.6L37.3,489.4h414.8L317.7,356.9z"/>
		<polygon points="245.1,0 200,39.3 290.1,39.3 		"/>
		<polygon points="338.3,339.1 471.5,470.7 471.5,222.6 		"/>
	</g>
</g>
<g>
</g>
<g>
</g>
<g>
</g>
<g>
</g>
<g>
</g>
<g>
</g>
<g>
</g>
<g>
</g>
<g>
</g>
<g>
</g>
<g>
</g>
<g>
</g>
<g>
</g>
<g>
</g>
<g>
</g>
</svg>
