<?xml version="1.0" encoding="iso-8859-1"?>
<!-- Generator: Adobe Illustrator 19.0.0, SVG Export Plug-In . SVG Version: 6.00 Build 0)  -->
<svg version="1.1" id="Capa_1" xmlns="http://www.w3.org/2000/svg" xmlns:xlink="http://www.w3.org/1999/xlink" x="0px" y="0px"
	 viewBox="0 0 490 490" style="enable-background:new 0 0 490 490;" xml:space="preserve">
<g>
	<g>
		<path d="M172.6,181.2c-85.3,0-154.4,69.1-154.4,154.4S87.3,490,172.6,490S327,420.9,327,335.6S257.8,181.2,172.6,181.2z
			 M185.2,409.3v8.7c0,7-5.6,12.6-12.6,12.6S160,425,160,418v-8.8c-7.4-2.2-14.1-6.3-19.5-12c-4.8-5.1-4.5-13,0.5-17.8
			c5.1-4.8,13-4.5,17.8,0.5c3.6,3.8,8.5,5.9,13.7,5.9c10.4,0,18.9-8.5,18.9-18.9s-8.5-18.9-18.9-18.9c-24.3,0-44.1-19.8-44.1-44.1
			c0-19.9,13.3-36.8,31.5-42.2V253c0-7,5.6-12.6,12.6-12.6s12.6,5.6,12.6,12.6v8.8c7.4,2.2,14.1,6.3,19.5,12
			c4.8,5.1,4.5,13-0.5,17.8c-5.1,4.8-13,4.5-17.8-0.5c-3.6-3.8-8.5-5.9-13.7-5.9c-10.4,0-18.9,8.5-18.9,18.9s8.5,18.9,18.9,18.9
			c24.3,0,44.1,19.8,44.1,44.1C216.6,387,203.3,403.9,185.2,409.3z"/>
		<path d="M122.4,0c-61.9,0-112,50.1-112,112c0,38,18.9,71.5,47.8,91.8c30.6-26.6,70.6-42.7,114.4-42.7c4.4,0,8.8,0.2,13.1,0.5
			c0.9-37.5,14.9-71.8,37.6-98.3C205.1,25.8,166.8,0,122.4,0z M143.2,90.2c4.5,0,8.2,3.7,8.2,8.2s-3.7,8.2-8.2,8.2H125v8.1h18.2
			c4.5,0,8.2,3.7,8.2,8.2s-3.7,8.2-8.2,8.2H125v10c0,4.5-3.7,8.2-8.2,8.2s-8.2-3.7-8.2-8.2v-10H90.4c-4.5,0-8.2-3.7-8.2-8.2
			s3.7-8.2,8.2-8.2h18.2v-8.1H90.4c-4.5,0-8.2-3.7-8.2-8.2s3.7-8.2,8.2-8.2h9.9l-18-28.1c-2.5-3.8-1.4-8.9,2.5-11.4
			c3.8-2.5,8.9-1.4,11.4,2.5l20.7,32.2l20.7-32.2c2.5-3.8,7.5-4.9,11.4-2.5c3.8,2.5,4.9,7.5,2.5,11.4l-18.1,28.1H143.2z"/>
		<path d="M342.7,28.4c-75.3,0-136.3,60.7-136.9,135.9c69.6,13.4,124.5,68.3,138.1,137.9c75.1-0.6,135.7-61.7,135.7-136.9
			C479.6,89.7,418.3,28.4,342.7,28.4z M391.3,111.1c-1.7,4.3-6.5,6.4-10.8,4.7c-4.1-1.6-8.5-2.4-12.9-2.4c-14,0-26.3,8.2-33.2,20.6
			h35.3c4.6,0,8.3,3.7,8.3,8.3s-3.7,8.3-8.3,8.3H329c-0.3,2-0.3,10.2,0,12.2h40.8c4.6,0,8.3,3.7,8.3,8.3s-3.7,8.3-8.3,8.3h-35.3
			c6.9,12.3,19.2,20.6,33.2,20.6c3.6,0,7.2-0.5,10.6-1.6c4.4-1.4,9.1,1.1,10.5,5.5s-1.1,9.1-5.5,10.5c-5.1,1.6-10.3,2.4-15.6,2.4
			c-23.2,0-43.1-15.4-51.5-37.2H302c-4.6,0-8.3-3.7-8.3-8.3s3.7-8.3,8.3-8.3h10.3c-0.2-2-0.2-10.2,0-12.2H302
			c-4.6,0-8.3-3.7-8.3-8.3s3.7-8.3,8.3-8.3h14.2c8.3-21.8,28.3-37.2,51.5-37.2c6.5,0,12.9,1.2,18.9,3.6
			C390.8,102,392.9,106.8,391.3,111.1z"/>
	</g>
</g>
<g>
</g>
<g>
</g>
<g>
</g>
<g>
</g>
<g>
</g>
<g>
</g>
<g>
</g>
<g>
</g>
<g>
</g>
<g>
</g>
<g>
</g>
<g>
</g>
<g>
</g>
<g>
</g>
<g>
</g>
</svg>
