<?xml version="1.0" encoding="iso-8859-1"?>
<!-- Generator: Adobe Illustrator 19.0.0, SVG Export Plug-In . SVG Version: 6.00 Build 0)  -->
<svg version="1.1" id="Capa_1" xmlns="http://www.w3.org/2000/svg" xmlns:xlink="http://www.w3.org/1999/xlink" x="0px" y="0px"
	 viewBox="0 0 489.9 489.9" style="enable-background:new 0 0 489.9 489.9;" xml:space="preserve">
<g>
	<g>
		<path d="M386.45,88.7h-104.2l21.9-21.9c3.9-3.9,4.1-10.6,0.1-14.4c-3.9-3.7-10-3.7-13.8,0.2l-38.9,39c-3.8,3.8-3.8,10,0,13.8
			l39.2,39.2c3.8,3.8,10,3.8,13.8,0l0,0c3.8-3.8,3.8-10,0-13.8l-22.3-22.3h94.5v117.8c0,5.5,4.5,10.2,10.1,10.1
			c5.3-0.2,9.4-4.4,9.4-9.7V98.4C396.15,93.1,391.85,88.7,386.45,88.7z"/>
		<path d="M232.55,378.4l-37.3-38.5c-3.9-3.9-10.1-3.9-14-0.4c-3.9,3.9-3.9,10.1-0.4,14l21.8,22.2h-93.3V257.9
			c0-5.5-4.5-10.2-10.1-10.1c-5.3,0.2-9.4,4.4-9.4,9.7v128.3c0,5.4,4.4,9.7,9.7,9.7h102.6l-21.2,22.8c-3.6,3.9-3.5,10,0.3,13.7l0,0
			c3.9,3.8,10.2,3.7,13.9-0.3l37.3-39.7C236.05,388.1,236.05,382.2,232.55,378.4z"/>
		<path d="M103.45,0C46.25,0,0.05,46.3,0.05,103.5s46.3,103.4,103.4,103.4s103.4-46.3,103.4-103.4S160.55,0,103.45,0z M112.55,157
			v6.3c0,5.1-4.1,9.1-9.1,9.1s-9.1-4.1-9.1-9.1V157c-5.4-1.6-10.3-4.6-14.2-8.7c-3.5-3.7-3.3-9.5,0.4-12.9c3.7-3.5,9.5-3.3,12.9,0.4
			c2.4,2.6,5.6,4,9,4.3c0.3,0,0.6,0,0.9,0s0.6,0,0.9,0c7.1-0.5,12.8-6.4,12.8-13.7c0-7.6-6.1-13.7-13.7-13.7c-17.6,0-32-14.4-32-32
			c0-14.5,9.7-26.7,22.9-30.7v-6.3c0-5.1,4.1-9.1,9.1-9.1s9.1,4.1,9.1,9.1V50c5.4,1.6,10.3,4.6,14.2,8.7c3.5,3.7,3.3,9.5-0.4,12.9
			c-3.7,3.5-9.5,3.3-12.9-0.4c-2.4-2.6-5.6-4-9-4.3c-0.3,0-0.6,0-0.9,0s-0.6,0-0.9,0c-7.1,0.5-12.8,6.4-12.8,13.7
			c0,7.6,6.1,13.7,13.7,13.7c17.6,0,32,14.4,32,32C135.45,140.8,125.75,153,112.55,157z"/>
		<path d="M386.45,283.1c-57.2,0-103.4,46.3-103.4,103.4c0,57.2,46.3,103.4,103.4,103.4c57.2,0,103.4-46.3,103.4-103.4
			S443.65,283.1,386.45,283.1z M428.75,335.2c-1.9,4.8-7.3,7.2-12.1,5.3c-4.6-1.8-9.5-2.7-14.5-2.7c-15.7,0-29.6,9.3-37.3,23.1h39.7
			c5.2,0,9.4,4.2,9.4,9.4c0,5.2-4.2,9.4-9.4,9.4h-45.8c-0.3,2.2-0.4,4.5-0.4,6.9s0.2,4.6,0.4,6.9h45.8c5.2,0,9.4,4.2,9.4,9.4
			c0,5.2-4.2,9.4-9.4,9.4h-39.7c7.7,13.9,21.6,23.1,37.3,23.1c4.1,0,8.1-0.6,11.9-1.8c4.9-1.6,10.2,1.2,11.8,6.1
			c1.6,4.9-1.2,10.2-6.1,11.8c-5.7,1.8-11.6,2.7-17.6,2.7c-26.1,0-48.5-17.3-57.9-41.9h-16c-5.2,0-9.4-4.2-9.4-9.4
			c0-5.2,4.2-9.4,9.4-9.4h11.6c-0.2-2.3-0.3-4.5-0.3-6.9s0.1-4.6,0.3-6.9h-11.6c-5.2,0-9.4-4.2-9.4-9.4c0-5.2,4.2-9.4,9.4-9.4h16
			c9.4-24.6,31.8-41.9,57.9-41.9c7.3,0,14.5,1.4,21.3,4C428.25,324.9,430.65,330.4,428.75,335.2z"/>
	</g>
</g>
<g>
</g>
<g>
</g>
<g>
</g>
<g>
</g>
<g>
</g>
<g>
</g>
<g>
</g>
<g>
</g>
<g>
</g>
<g>
</g>
<g>
</g>
<g>
</g>
<g>
</g>
<g>
</g>
<g>
</g>
</svg>
