<?xml version="1.0" encoding="iso-8859-1"?>
<!-- Generator: Adobe Illustrator 19.0.0, SVG Export Plug-In . SVG Version: 6.00 Build 0)  -->
<svg version="1.1" id="Capa_1" xmlns="http://www.w3.org/2000/svg" xmlns:xlink="http://www.w3.org/1999/xlink" x="0px" y="0px"
	 viewBox="0 0 490 490" style="enable-background:new 0 0 490 490;" xml:space="preserve">
<g>
	<g>
		<polygon points="404.6,96.1 335,24.9 335,96.1 		"/>
		<path d="M428.3,116.3H324.9c-5.4,0-10.1-4.7-10.1-10.1V0H61.3v490h367.4L428.3,116.3L428.3,116.3z M357.9,424.6H127.4
			c-5.4,0-10.1-4.7-10.1-10.1s4.7-10.1,10.1-10.1H358c5.4,0,10.1,4.7,10.1,10.1C368.1,420,363.4,424.6,357.9,424.6z M357.9,338.3
			H127.4c-5.4,0-10.1-4.7-10.1-10.1s4.7-10.1,10.1-10.1H358c5.4,0,10.1,4.7,10.1,10.1C368.1,333.6,363.4,338.3,357.9,338.3z
			 M357.9,252H127.4c-5.4,0-10.1-4.7-10.1-10.1s4.7-10.1,10.1-10.1H358c5.4,0,10.1,4.7,10.1,10.1C368.1,247.7,363.4,252,357.9,252z"
			/>
	</g>
</g>
<g>
</g>
<g>
</g>
<g>
</g>
<g>
</g>
<g>
</g>
<g>
</g>
<g>
</g>
<g>
</g>
<g>
</g>
<g>
</g>
<g>
</g>
<g>
</g>
<g>
</g>
<g>
</g>
<g>
</g>
</svg>
