<?xml version="1.0" encoding="iso-8859-1"?>
<!-- Generator: Adobe Illustrator 19.0.0, SVG Export Plug-In . SVG Version: 6.00 Build 0)  -->
<svg version="1.1" id="Capa_1" xmlns="http://www.w3.org/2000/svg" xmlns:xlink="http://www.w3.org/1999/xlink" x="0px" y="0px"
	 viewBox="0 0 490 490" style="enable-background:new 0 0 490 490;" xml:space="preserve">
<g>
	<g>
		<g>
			<path d="M353.5,90.6V490H490V90.6H353.5z M421.9,447.2c-15.9,0-29.2-13.6-29.2-30.3s13.2-30.3,29.2-30.3
				c15.9,0,29.2,13.6,29.2,30.3S437.9,447.2,421.9,447.2z M453.4,180.8h-63c-7.4,0-13.2-5.8-13.2-13.2s5.8-13.2,13.2-13.2h63
				c7.4,0,13.2,5.8,13.2,13.2C466.7,175,460.8,180.8,453.4,180.8z"/>
			<path d="M176.9,490h136.5V0H176.9V490z M245,447.2c-15.9,0-29.2-13.6-29.2-30.3s13.2-30.3,29.2-30.3s29.2,13.6,29.2,30.3
				S260.9,447.2,245,447.2z M219.7,47.4h63c7.4,0,13.2,5.8,13.2,13.2c0,7.4-5.8,13.2-13.2,13.2h-63c-7.4,0-13.2-5.8-13.2-13.2
				C206.1,53.7,212.3,47.4,219.7,47.4z"/>
			<path d="M0,490h136.5V64.9H0V490z M68.1,447.2c-15.9,0-29.2-13.6-29.2-30.3s13.2-30.3,29.2-30.3s29.2,13.6,29.2,30.3
				S84.4,447.2,68.1,447.2z M38.1,108.9h63c7.4,0,13.2,5.8,13.2,13.2c0,7.4-5.8,13.2-13.2,13.2h-63c-7.4,0-13.2-5.8-13.2-13.2
				C24.9,114.7,30.7,108.9,38.1,108.9z"/>
		</g>
	</g>
</g>
<g>
</g>
<g>
</g>
<g>
</g>
<g>
</g>
<g>
</g>
<g>
</g>
<g>
</g>
<g>
</g>
<g>
</g>
<g>
</g>
<g>
</g>
<g>
</g>
<g>
</g>
<g>
</g>
<g>
</g>
</svg>
