<?xml version="1.0" encoding="iso-8859-1"?>
<!-- Generator: Adobe Illustrator 19.0.0, SVG Export Plug-In . SVG Version: 6.00 Build 0)  -->
<svg version="1.1" id="Capa_1" xmlns="http://www.w3.org/2000/svg" xmlns:xlink="http://www.w3.org/1999/xlink" x="0px" y="0px"
	 viewBox="0 0 490 490" style="enable-background:new 0 0 490 490;" xml:space="preserve">
<g>
	<g>
		<path d="M21.8,13.6v462.7h169.5V13.6H21.8z M106.6,436.7c-24.5,0-44.3-19.8-44.3-44.3S82.1,348,106.6,348s44.3,19.8,44.3,44.3
			C150.5,416.9,131.1,436.7,106.6,436.7z M153.6,170.7H59.1V52.9h94.5V170.7z"/>
		<path d="M355.8,0L213.5,35.8v94.5L303.7,490l164.5-41.2L355.8,0z M269.1,177.3L243.4,74.7l82.1-20.2l25.7,102.7L269.1,177.3z
			 M376.3,430c-22.9,5.9-46.4-7.9-52.3-30.8s7.9-46.3,30.8-52.3c22.9-5.9,46.4,7.9,52.3,30.8C413,400.7,399.2,424.1,376.3,430z"/>
	</g>
</g>
<g>
</g>
<g>
</g>
<g>
</g>
<g>
</g>
<g>
</g>
<g>
</g>
<g>
</g>
<g>
</g>
<g>
</g>
<g>
</g>
<g>
</g>
<g>
</g>
<g>
</g>
<g>
</g>
<g>
</g>
</svg>
