<?xml version="1.0" encoding="iso-8859-1"?>
<!-- Generator: Adobe Illustrator 19.0.0, SVG Export Plug-In . SVG Version: 6.00 Build 0)  -->
<svg version="1.1" id="Capa_1" xmlns="http://www.w3.org/2000/svg" xmlns:xlink="http://www.w3.org/1999/xlink" x="0px" y="0px"
	 viewBox="0 0 490 490" style="enable-background:new 0 0 490 490;" xml:space="preserve">
<g>
	<g>
		<path d="M205.5,210h-12.6v26.2h12.6c7.2,0,13.1-5.9,13.1-13.1C218.6,215.9,212.7,210,205.5,210z"/>
		<path d="M418.1,173.1V71.9H316.9L245,0l-71.9,71.9H71.9v101.5L0,245l71.9,71.9v101.5h101.5L245,490l71.9-71.9h101.5V316.9L490,245
			L418.1,173.1z M148.4,236.2c4.8,0,8.8,3.9,8.8,8.8c0,4.9-3.9,8.8-8.8,8.8h-25.8v35c0,4.8-3.9,8.8-8.8,8.8s-8.8-3.9-8.8-8.8v-87.4
			c0-4.8,3.9-8.8,8.8-8.8h34.5c4.8,0,8.8,3.9,8.8,8.8c0,4.8-3.9,8.8-8.8,8.8h-25.8v26.2h25.9V236.2z M231.3,295.5
			c-2.5,1.1-9,1.3-11.8-3.9l-19.2-37.9h-7.5v35c0,4.8-3.9,8.8-8.8,8.8c-4.8,0-8.8-3.9-8.8-8.8v-87.4c0-4.8,3.9-8.8,8.8-8.8h21.4
			c16.9,0,30.6,13.7,30.6,30.6c0,12.2-7.2,22.8-17.6,27.7l16.7,32.9C237.3,288,235.7,293.4,231.3,295.5z M302.3,236.2
			c4.8,0,8.8,3.9,8.8,8.8c0,4.9-3.9,8.8-8.8,8.8h-25.8V280h25.8c4.8,0,8.8,3.9,8.8,8.8c0,4.8-3.9,8.8-8.8,8.8h-34.5
			c-4.8,0-8.8-3.9-8.8-8.8v-87.4c0-4.8,3.9-8.8,8.8-8.8h34.5c4.8,0,8.8,3.9,8.8,8.8c0,4.8-3.9,8.8-8.8,8.8h-25.8v26.2h25.8V236.2z
			 M376.1,236.2c4.8,0,8.8,3.9,8.8,8.8c0,4.9-3.9,8.8-8.8,8.8h-25.8V280h25.8c4.8,0,8.8,3.9,8.8,8.8c0,4.8-3.9,8.8-8.8,8.8h-34.5
			c-4.8,0-8.8-3.9-8.8-8.8v-87.4c0-4.8,3.9-8.8,8.8-8.8h34.5c4.8,0,8.8,3.9,8.8,8.8c0,4.8-3.9,8.8-8.8,8.8h-25.8v26.2h25.8V236.2z"
			/>
	</g>
</g>
<g>
</g>
<g>
</g>
<g>
</g>
<g>
</g>
<g>
</g>
<g>
</g>
<g>
</g>
<g>
</g>
<g>
</g>
<g>
</g>
<g>
</g>
<g>
</g>
<g>
</g>
<g>
</g>
<g>
</g>
</svg>
