<?xml version="1.0" encoding="iso-8859-1"?>
<!-- Generator: Adobe Illustrator 19.0.0, SVG Export Plug-In . SVG Version: 6.00 Build 0)  -->
<svg version="1.1" id="Capa_1" xmlns="http://www.w3.org/2000/svg" xmlns:xlink="http://www.w3.org/1999/xlink" x="0px" y="0px"
	 viewBox="0 0 490 490" style="enable-background:new 0 0 490 490;" xml:space="preserve">
<g>
	<g>
		<g>
			<polygon points="277.3,85.2 212.7,85.2 194.1,148.9 295.9,148.9 			"/>
			<g>
				<polygon points="212.3,171.1 148.2,171.1 129.5,235.3 231,235.3 				"/>
				<polygon points="341.8,171.1 277.7,171.1 259,235.3 360.5,235.3 				"/>
				<g>
					<polygon points="212.7,256.3 194.1,320.1 295.9,320.1 277.3,256.3 					"/>
					<polygon points="406.4,256.3 342.2,256.3 323.6,320.1 425.4,320.1 					"/>
					<polygon points="147.8,256.3 83.6,256.3 64.6,320.1 166.4,320.1 					"/>
				</g>
				<polygon points="18.7,341.1 0,404.8 101.5,404.8 82.8,341.1 				"/>
			</g>
			<polygon points="277.7,341.1 259,404.8 360.5,404.8 341.8,341.1 			"/>
			<polygon points="471.3,341.1 407.2,341.1 388.5,404.8 490,404.8 			"/>
			<polygon points="148.2,341.1 129.5,404.8 231,404.8 212.3,341.1 			"/>
		</g>
	</g>
</g>
<g>
</g>
<g>
</g>
<g>
</g>
<g>
</g>
<g>
</g>
<g>
</g>
<g>
</g>
<g>
</g>
<g>
</g>
<g>
</g>
<g>
</g>
<g>
</g>
<g>
</g>
<g>
</g>
<g>
</g>
</svg>
