<?xml version="1.0" encoding="iso-8859-1"?>
<!-- Generator: Adobe Illustrator 19.0.0, SVG Export Plug-In . SVG Version: 6.00 Build 0)  -->
<svg version="1.1" id="Capa_1" xmlns="http://www.w3.org/2000/svg" xmlns:xlink="http://www.w3.org/1999/xlink" x="0px" y="0px"
	 viewBox="0 0 489.7 489.7" style="enable-background:new 0 0 489.7 489.7;" xml:space="preserve">
<g>
	<g>
		<g>
			<path d="M124.3,80.5h241.1c22.2,0,40.1-17.9,40.1-40.1c0-22.6-17.9-40.4-40.1-40.4H124.3c-22.2,0-40.1,17.9-40.1,40.1
				S102.2,80.5,124.3,80.5z"/>
			<path d="M365.5,409.5H124.3c-22.2,0-40.1,17.9-40.1,40.1s17.9,40.1,40.1,40.1h241.1c22.2,0,40.1-17.9,40.1-40.1l0,0
				C405.5,427.8,387.6,409.5,365.5,409.5z"/>
			<path d="M362.7,107.3c0-2.3,0-5.1,0-7.4H127.5c0,2.3,0,5.1,0,7.4c0,63,31.9,117.1,77,137.7c-45.1,20.6-77.4,74.3-77.4,137.7
				c0,2.3,0,5.1,0,7.4H362c0-2.3,0-5.1,0-7.4c0-63-31.9-117.1-77-137.7C330.5,224.4,362.7,170.7,362.7,107.3z"/>
		</g>
	</g>
</g>
<g>
</g>
<g>
</g>
<g>
</g>
<g>
</g>
<g>
</g>
<g>
</g>
<g>
</g>
<g>
</g>
<g>
</g>
<g>
</g>
<g>
</g>
<g>
</g>
<g>
</g>
<g>
</g>
<g>
</g>
</svg>
