<?xml version="1.0" encoding="iso-8859-1"?>
<!-- Generator: Adobe Illustrator 19.0.0, SVG Export Plug-In . SVG Version: 6.00 Build 0)  -->
<svg version="1.1" id="Capa_1" xmlns="http://www.w3.org/2000/svg" xmlns:xlink="http://www.w3.org/1999/xlink" x="0px" y="0px"
	 viewBox="0 0 490 490" style="enable-background:new 0 0 490 490;" xml:space="preserve">
<g>
	<g>
		<path d="M284.7,210v-0.4v-0.4c0-46.3,28.4-87.1,70.4-104.2L231.8,0L0,209.6h46.7V490h370.2V320.4c-6.2,0.8-12.1,1.6-18.3,1.6
			C336,322,285.1,271.8,284.7,210z"/>
		<polygon points="125.6,57.9 125.6,30.3 52.5,30.3 52.5,126 		"/>
		<path d="M398.6,117.8c-50.5,0-91.4,40.9-91.4,91.4s40.9,91.4,91.4,91.4s91.4-40.9,91.4-91.4S449,117.8,398.6,117.8z M407.6,261.9
			v6.2c0,5-4,9-9,9s-9-4-9-9v-6.3c-5.3-1.6-10.1-4.5-13.9-8.6c-3.4-3.6-3.2-9.3,0.4-12.7s9.3-3.2,12.7,0.4c2.6,2.7,6.1,4.2,9.8,4.2
			c7.4,0,13.5-6.1,13.5-13.5s-6.1-13.5-13.5-13.5c-17.4,0-31.5-14.1-31.5-31.5c0-14.2,9.5-26.3,22.5-30.2v-6.2c0-5,4-9,9-9s9,4,9,9
			v6.3c5.3,1.6,10.1,4.5,13.9,8.6c3.4,3.6,3.2,9.3-0.4,12.7s-9.3,3.2-12.7-0.4c-2.6-2.7-6.1-4.2-9.8-4.2c-7.4,0-13.5,6.1-13.5,13.5
			s6.1,13.5,13.5,13.5c17.4,0,31.5,14.1,31.5,31.5C430.1,246,420.6,258,407.6,261.9z"/>
	</g>
</g>
<g>
</g>
<g>
</g>
<g>
</g>
<g>
</g>
<g>
</g>
<g>
</g>
<g>
</g>
<g>
</g>
<g>
</g>
<g>
</g>
<g>
</g>
<g>
</g>
<g>
</g>
<g>
</g>
<g>
</g>
</svg>
