<?xml version="1.0" encoding="iso-8859-1"?>
<!-- Generator: Adobe Illustrator 19.0.0, SVG Export Plug-In . SVG Version: 6.00 Build 0)  -->
<svg version="1.1" id="Capa_1" xmlns="http://www.w3.org/2000/svg" xmlns:xlink="http://www.w3.org/1999/xlink" x="0px" y="0px"
	 viewBox="0 0 490.117 490.117" style="enable-background:new 0 0 490.117 490.117;" xml:space="preserve">
<g>
	<path d="M482.954,305.609l-106.1-128.2c-10.5-12.4-28.8-14.4-41.2-3.5l-57.6,48.6l-175.3-211.9c-10.5-12.4-28.7-14.4-41.2-3.5
		l-50.9,43.2c-12.4,10.5-14,29.2-3.5,42l0,0c10.5,12.4,28.8,14.4,41.2,3.5l28.4-24.1l25.3,30.3l-28.4,24.1
		c-12.4,10.5-14,29.2-3.5,42l0,0c10.5,12.4,28.8,14.4,41.2,3.5l28.4-24.1l93.7,113.1l-57.5,48.6c-12.4,10.5-14,29.2-3.5,42
		l106.1,128.3c10.5,12.4,28.8,14.4,41.2,3.5l159.8-135.7C491.854,336.709,493.454,318.109,482.954,305.609z M304.554,418.409
		l-68.4-82.8l114.6-97.6l68.4,82.8L304.554,418.409z"/>
</g>
<g>
</g>
<g>
</g>
<g>
</g>
<g>
</g>
<g>
</g>
<g>
</g>
<g>
</g>
<g>
</g>
<g>
</g>
<g>
</g>
<g>
</g>
<g>
</g>
<g>
</g>
<g>
</g>
<g>
</g>
</svg>
