<?xml version="1.0" encoding="iso-8859-1"?>
<!-- Generator: Adobe Illustrator 19.0.0, SVG Export Plug-In . SVG Version: 6.00 Build 0)  -->
<svg version="1.1" id="Capa_1" xmlns="http://www.w3.org/2000/svg" xmlns:xlink="http://www.w3.org/1999/xlink" x="0px" y="0px"
	 viewBox="0 0 489.7 489.7" style="enable-background:new 0 0 489.7 489.7;" xml:space="preserve">
<g>
	<g>
		<g>
			<path d="M275.2,389.65h-60.6c-5.4,0-9.7-4.3-9.7-9.7c0-5.4,4.3-9.7,9.7-9.7h60.6c5.4,0,9.7,4.3,9.7,9.7
				C284.9,384.95,280.7,389.65,275.2,389.65z M427,326.25H63l-63,94.1h489.7L427,326.25z"/>
			<path d="M420.2,306.45V69.35H69.6v237.1H420.2L420.2,306.45z M228.6,269.55c-33.4,0-60.6-27.2-60.6-60.6s27.2-60.6,60.6-60.6
				v60.5h60.6C289.2,242.75,262,269.55,228.6,269.55z M261.2,176.65v-60.2c33.4,0,60.6,27.2,60.6,60.6h-60.6V176.65z"/>
		</g>
	</g>
</g>
<g>
</g>
<g>
</g>
<g>
</g>
<g>
</g>
<g>
</g>
<g>
</g>
<g>
</g>
<g>
</g>
<g>
</g>
<g>
</g>
<g>
</g>
<g>
</g>
<g>
</g>
<g>
</g>
<g>
</g>
</svg>
