<?xml version="1.0" encoding="iso-8859-1"?>
<!-- Generator: Adobe Illustrator 19.0.0, SVG Export Plug-In . SVG Version: 6.00 Build 0)  -->
<svg version="1.1" id="Capa_1" xmlns="http://www.w3.org/2000/svg" xmlns:xlink="http://www.w3.org/1999/xlink" x="0px" y="0px"
	 viewBox="0 0 489.5 489.5" style="enable-background:new 0 0 489.5 489.5;" xml:space="preserve">
<g>
	<g>
		<path d="M0,355.15v22.6c0,28.8,23.3,51.7,51.7,51.7h386.1c28.8,0,51.7-23.3,51.7-51.7v-22.6H0z M203,403.35H62.6
			c-5.8,0-10.9-5.1-10.9-10.9s5.1-10.9,10.9-10.9H203c5.8,0,10.9,5.1,10.9,10.9C213.9,398.35,208.8,403.35,203,403.35z
			 M345.3,402.25c0,3.5-5.1,6.2-10.9,6.2s-10.9-2.7-10.9-6.2v-19.5c0-3.5,5.1-6.2,10.9-6.2s10.9,2.7,10.9,6.2V402.25z M381.1,402.25
			c0,3.5-5.1,6.2-10.9,6.2s-10.9-2.7-10.9-6.2v-19.5c0-3.5,5.1-6.2,10.9-6.2s10.9,2.7,10.9,6.2V402.25z"/>
		<path d="M117.1,272.75c5.8,0,10.9-5.1,10.9-10.9v-74.7c0-5.8-5.1-10.9-10.9-10.9s-10.9,5.1-10.9,10.9v74.3
			C106.2,267.65,110.8,272.75,117.1,272.75z"/>
		<path d="M158.7,272.75c5.8,0,10.9-5.1,10.9-10.9v-90.6c0-5.8-5.1-10.9-10.9-10.9c-5.8,0-10.9,4.7-10.9,10.9v90.6
			C147.8,267.65,152.8,272.75,158.7,272.75z"/>
		<path d="M200.7,272.75c5.8,0,10.9-5.1,10.9-10.9v-47.8c0-5.8-5.1-10.9-10.9-10.9c-5.8,0-10.9,5.1-10.9,10.9v47.8
			C189.8,267.65,194.4,272.75,200.7,272.75z"/>
		<path d="M242.3,272.75c5.8,0,10.9-5.1,10.9-10.9v-81.3c0-5.8-5.1-10.9-10.9-10.9c-5.8,0-10.9,5.1-10.9,10.9v81.3
			C231.4,267.65,236.4,272.75,242.3,272.75z"/>
		<path d="M341.8,224.95H385c5.8,0,10.9-5.1,10.9-10.9c0-5.8-5.1-10.9-10.9-10.9h-43.2c-5.8,0-10.9,5.1-10.9,10.9
			C330.9,219.85,335.6,224.95,341.8,224.95z"/>
		<path d="M341.8,261.45H385c5.8,0,10.9-5.1,10.9-10.9s-5.1-10.9-10.9-10.9h-43.2c-5.8,0-10.9,5.1-10.9,10.9
			C330.9,256.45,335.6,261.45,341.8,261.45z"/>
		<path d="M460,60.05H30v273.4h430.1L460,60.05z M423.5,301.95h-357V91.55h357V301.95z"/>
	</g>
</g>
<g>
</g>
<g>
</g>
<g>
</g>
<g>
</g>
<g>
</g>
<g>
</g>
<g>
</g>
<g>
</g>
<g>
</g>
<g>
</g>
<g>
</g>
<g>
</g>
<g>
</g>
<g>
</g>
<g>
</g>
</svg>
