<?xml version="1.0" encoding="iso-8859-1"?>
<!-- Generator: Adobe Illustrator 19.0.0, SVG Export Plug-In . SVG Version: 6.00 Build 0)  -->
<svg version="1.1" id="Capa_1" xmlns="http://www.w3.org/2000/svg" xmlns:xlink="http://www.w3.org/1999/xlink" x="0px" y="0px"
	 viewBox="0 0 488.9 488.9" style="enable-background:new 0 0 488.9 488.9;" xml:space="preserve">
<g>
	<g>
		<g>
			<path d="M95.85,250.3l-31.6,13.1c-5.5,1.9-7.8,7.5-5.6,12.8c2.1,5,7.8,7.7,12.8,5.6l31.6-13.1c5-2.1,7.7-7.8,5.6-12.8
				S100.95,248.2,95.85,250.3z"/>
			<path d="M379.25,143.4c2.1,5,7.8,7.7,12.8,5.6l31.6-13.1c5-2.1,7.7-7.8,5.6-12.8c-2.1-5-7.8-7.7-12.8-5.6l-31.6,13.1
				C379.35,132.4,377.05,138,379.25,143.4z"/>
			<path d="M97.95,199.8c0-5.4-4.3-10.1-9.7-10.1h-34.2c-5.8-0.4-10.1,3.9-10.1,9.7c0,5.4,4.3,10.1,9.7,10.1h34.2
				C93.25,209.5,97.95,205.3,97.95,199.8z"/>
			<path d="M435.25,189.7h-34.2c-5.8-0.4-10.1,3.9-10.1,9.7c0,5.4,4.3,10.1,9.7,10.1h34.2c5.4,0,10.1-4.3,10.1-9.7
				C444.95,194.4,440.75,189.7,435.25,189.7z"/>
			<path d="M361.05,96.3l24.2-24.2c3.8-3.8,4.1-10.2,0.3-14c-3.8-3.8-10.2-4.1-14-0.3L347.35,82c-4.4,3.8-4.4,9.9-0.3,14
				C350.95,99.9,357.25,100.2,361.05,96.3z"/>
			<path d="M299.15,64.7c5,2.1,11-0.1,13.1-5.1l13.1-31.6c2.1-5-0.1-11-5.1-13.1s-11,0.1-13.1,5.1l-13.1,31.6
				C291.45,56.9,293.75,62.4,299.15,64.7z"/>
			<path d="M242.95,54c5.4,0,10.1-4.3,10.1-9.7V10.1c0-5.4-4.3-10.1-9.7-10.1c-5.4,0-10.1,4.3-10.1,9.7v34.2
				C232.85,49.7,237.05,54,242.95,54z"/>
			<path d="M174.05,60.1c1.9,5.5,7.5,7.8,12.8,5.6c5-2.1,7.7-7.8,5.6-12.8l-13-31.7c-2.1-5-7.8-7.7-12.8-5.6s-7.7,7.8-5.6,12.8
				L174.05,60.1z"/>
			<path d="M125.55,97.6c3.8,4.4,9.9,4.4,14,0.3c3.8-3.8,4.1-10.2,0.3-14l-24.2-24.2c-3.8-3.8-10.2-4.1-14-0.3
				c-3.8,3.8-4.1,10.2-0.3,14L125.55,97.6z"/>
			<path d="M423.65,265.6l-31.6-13.1c-5-2.1-11,0.1-13.1,5.1s0.1,11,5.1,13.1l31.6,13.1c5.2,2.6,10.8,0.3,13.1-5.1
				C430.85,273.6,428.75,267.6,423.65,265.6z"/>
			<path d="M63.55,137.8l31.6,13.1c5.2,2.6,10.8,0.3,13.1-5.1c2.1-5-0.1-11-5.1-13.1l-31.7-13c-5-2.1-11,0.1-13.1,5.1
				C56.25,129.8,58.55,135.7,63.55,137.8z"/>
			<path d="M322.55,426h-13.2v-29.1l-131.7-0.4v29.1h-13.2c-5.4,0-10.1,4.3-10.1,9.7c0,5.4,4.3,10.1,9.7,10.1h13.2h0.4
				c3.5,24.5,24.5,43.5,50.1,43.5h30.3c25.6,0,46.6-18.7,50.5-43.1c0.4,0,0.4,0,0.4,0h13.2c5.4,0,10.1-4.3,10.1-9.7
				C332.25,430.2,327.95,426,322.55,426z"/>
		</g>
		<path d="M236.65,72.7c-65.3,3.9-118.1,57.9-120.1,123.6c-0.8,30.7,8.9,59.1,26.4,81.6c22.5,29.1,38.1,63,45.1,98.7l111.1,0.4
			c6.6-35,21.4-68,43.9-96c17.9-21.8,28.8-49.7,28.8-80.1C372.25,127.5,310.85,68.4,236.65,72.7z M254.35,272.5v7
			c0,5.6-4.5,10.1-10.1,10.1s-10.1-4.5-10.1-10.1v-7c-5.9-1.8-11.3-5.1-15.6-9.6c-3.8-4.1-3.6-10.4,0.4-14.2
			c4.1-3.8,10.4-3.6,14.2,0.4c2.9,3.1,6.8,4.8,11,4.8c8.3,0,15.1-6.8,15.1-15.1c0-8.3-6.8-15.1-15.1-15.1
			c-19.4,0-35.2-15.8-35.2-35.2c0-15.9,10.6-29.4,25.2-33.8v-7c0-5.6,4.5-10.1,10.1-10.1s10.1,4.5,10.1,10.1v7
			c5.9,1.8,11.3,5.1,15.6,9.6c3.8,4.1,3.6,10.4-0.4,14.2c-4.1,3.8-10.4,3.6-14.2-0.4c-2.9-3.1-6.8-4.8-11-4.8
			c-8.3,0-15.1,6.8-15.1,15.1s6.8,15.1,15.1,15.1c19.4,0,35.2,15.8,35.2,35.2C279.45,254.6,268.85,268.1,254.35,272.5z"/>
	</g>
</g>
<g>
</g>
<g>
</g>
<g>
</g>
<g>
</g>
<g>
</g>
<g>
</g>
<g>
</g>
<g>
</g>
<g>
</g>
<g>
</g>
<g>
</g>
<g>
</g>
<g>
</g>
<g>
</g>
<g>
</g>
</svg>
