<?xml version="1.0" encoding="iso-8859-1"?>
<!-- Generator: Adobe Illustrator 19.0.0, SVG Export Plug-In . SVG Version: 6.00 Build 0)  -->
<svg version="1.1" id="Capa_1" xmlns="http://www.w3.org/2000/svg" xmlns:xlink="http://www.w3.org/1999/xlink" x="0px" y="0px"
	 viewBox="0 0 490 490" style="enable-background:new 0 0 490 490;" xml:space="preserve">
<g>
	<g>
		<path d="M0,490h490V138.4H0V490z M124.2,300.8l109.1,79.5l68.5-171c4.1-10.2,18.1-11.2,23.6-1.8l110.1,187.2
			c3.9,6.2,1.6,14.4-4.7,18.3c-6.2,3.9-14.4,1.6-18.3-4.7l-96.8-164.1L251,406.7c-3.2,8-13.1,10.9-20.1,5.8l-110.4-81.2L78,407.7
			c-3.6,6.4-11.6,8.7-18,5.2l0,0c-6.5-3.6-8.8-11.7-5.2-18.1l50.1-89.7C108.8,298.1,117.8,296.1,124.2,300.8z"/>
		<path d="M0,0v111.6h490V0H0z M77.4,71.2c0,7.4-5.8,13.2-13.2,13.2c-7.4,0-13.2-5.8-13.2-13.2V40.4c0-7.4,5.8-13.2,13.2-13.2
			S77.4,33,77.4,40.4V71.2z M133,71.2c0,7.4-5.8,13.2-13.2,13.2c-7.4,0-13.2-5.8-13.2-13.2V40.4c0-7.4,5.8-13.2,13.2-13.2
			S133,33,133,40.4V71.2z M188.2,71.2c0,7.4-5.8,13.2-13.2,13.2s-13.2-5.8-13.2-13.2V40.4c0-7.4,5.8-13.2,13.2-13.2
			s13.2,5.8,13.2,13.2V71.2z"/>
	</g>
</g>
<g>
</g>
<g>
</g>
<g>
</g>
<g>
</g>
<g>
</g>
<g>
</g>
<g>
</g>
<g>
</g>
<g>
</g>
<g>
</g>
<g>
</g>
<g>
</g>
<g>
</g>
<g>
</g>
<g>
</g>
</svg>
