<?xml version="1.0" encoding="iso-8859-1"?>
<!-- Generator: Adobe Illustrator 19.0.0, SVG Export Plug-In . SVG Version: 6.00 Build 0)  -->
<svg version="1.1" id="Capa_1" xmlns="http://www.w3.org/2000/svg" xmlns:xlink="http://www.w3.org/1999/xlink" x="0px" y="0px"
	 viewBox="0 0 490 490" style="enable-background:new 0 0 490 490;" xml:space="preserve">
<g>
	<g>
		<path d="M273.4,59.1V22.6h-56.8v36.6H0v318.1h490V59.1H273.4z M340.7,182l-58.2,59.6c-4.3,4.4-11.5,4.4-15.8,0l-52-53.4L166.1,238
			c-4.7,4.7-12.1,4.7-16.7,0.4c-4.7-4.7-4.7-12.1-0.4-16.7l57.8-59c4.3-4.4,11.5-4.4,15.8,0l52.4,53.9l49-50.6
			c4.7-4.7,12.1-4.7,16.7-0.4C345.3,169.9,345.3,177.3,340.7,182z"/>
		<polygon points="281.6,400.9 313.1,467.4 369.8,467.4 337.9,400.9 		"/>
		<polygon points="120.2,467.4 176.9,467.4 208.4,400.9 152.1,400.9 		"/>
	</g>
</g>
<g>
</g>
<g>
</g>
<g>
</g>
<g>
</g>
<g>
</g>
<g>
</g>
<g>
</g>
<g>
</g>
<g>
</g>
<g>
</g>
<g>
</g>
<g>
</g>
<g>
</g>
<g>
</g>
<g>
</g>
</svg>
