<?xml version="1.0" encoding="iso-8859-1"?>
<!-- Generator: Adobe Illustrator 19.0.0, SVG Export Plug-In . SVG Version: 6.00 Build 0)  -->
<svg version="1.1" id="Capa_1" xmlns="http://www.w3.org/2000/svg" xmlns:xlink="http://www.w3.org/1999/xlink" x="0px" y="0px"
	 viewBox="0 0 489.6 489.6" style="enable-background:new 0 0 489.6 489.6;" xml:space="preserve">
<g>
	<g>
		<path d="M0,489.6h489.6V114.2H0V489.6z M118.8,278.2h22.6l29.9-24c5.3-4.3,13.2-2.3,16,3.9l24.4,55.1l64.2-106.1
			c4.7-7.9,16.6-6.1,18.9,2.7l21.8,83.2l33.4-31.1h-6.7c-5.8,0-10.8-4.6-10.8-10.4c-0.1-5.9,4.6-10.6,10.5-10.6h31.1
			c5.8,0,10.5,4.7,10.5,10.5v30.8c0,5.8-4.6,10.8-10.4,10.8c-5.9,0.1-10.6-4.6-10.6-10.5v-4.3l-45.7,42.5c-5.8,5.3-15.1,2.6-17.1-5
			l-19.9-76.3l-61.5,102.3c-4.3,7.2-15,6.5-18.4-1.2l-27-61.1c0,0-19.6,19.8-28.8,19.8h-26.8c-5.9,0-10.6-4.7-10.5-10.6
			C108.1,282.8,113,278.2,118.8,278.2z"/>
		<path d="M0,0v87.8h489.6V0H0z M325.6,52.1c0,5.8-4.7,10.5-10.5,10.5s-10.5-4.7-10.5-10.5V35.7c0-5.8,4.7-10.5,10.5-10.5
			s10.5,4.7,10.5,10.5V52.1z M379.2,52.1c0,5.8-4.7,10.5-10.5,10.5s-10.5-4.7-10.5-10.5V35.7c0-5.8,4.7-10.5,10.5-10.5
			s10.5,4.7,10.5,10.5V52.1z M432.9,52.1c0,5.8-4.7,10.5-10.5,10.5s-10.5-4.7-10.5-10.5V35.7c0-5.8,4.7-10.5,10.5-10.5
			s10.5,4.7,10.5,10.5V52.1z"/>
	</g>
</g>
<g>
</g>
<g>
</g>
<g>
</g>
<g>
</g>
<g>
</g>
<g>
</g>
<g>
</g>
<g>
</g>
<g>
</g>
<g>
</g>
<g>
</g>
<g>
</g>
<g>
</g>
<g>
</g>
<g>
</g>
</svg>
