<?xml version="1.0" encoding="iso-8859-1"?>
<!-- Generator: Adobe Illustrator 19.0.0, SVG Export Plug-In . SVG Version: 6.00 Build 0)  -->
<svg version="1.1" id="Capa_1" xmlns="http://www.w3.org/2000/svg" xmlns:xlink="http://www.w3.org/1999/xlink" x="0px" y="0px"
	 viewBox="0 0 489.7 489.7" style="enable-background:new 0 0 489.7 489.7;" xml:space="preserve">
<g>
	<g>
		<polygon points="319.85,20.3 319.85,99.2 398.75,99.2 		"/>
		<path d="M308.55,121.7c-6.2,0-11.3-5.1-11.3-11.3V0H70.75v489.7h348.2v-368H308.55z M356.35,329.2c-5.5,0.2-10.1-4.5-10.1-10.1
			v-24.5l-87.1,87.1c-3.9,3.9-10.1,3.9-14,0l-27.2-27.2l-60.2,60.2h194.4c5.5,0,10.2,4.5,10.1,10.1c-0.2,5.3-4.4,9.4-9.7,9.4h-217.8
			c-6.1,0-11.1-5-11.1-11.1V206.4c0-5.5,4.5-10.2,10.1-10.1c5.3,0.2,9.4,4.4,9.4,9.7v194.7l67.2-67.2c3.9-3.9,10.1-3.9,14,0
			l27.2,27.2l79.7-79.7h-24.5c-5.5,0-10.2-4.5-10.1-10.1c0.2-5.3,4.4-9.4,9.7-9.4h47.8c6,0,10.9,4.9,10.9,10.9v47h0.8
			C365.75,324.9,361.65,329.1,356.35,329.2z"/>
	</g>
</g>
<g>
</g>
<g>
</g>
<g>
</g>
<g>
</g>
<g>
</g>
<g>
</g>
<g>
</g>
<g>
</g>
<g>
</g>
<g>
</g>
<g>
</g>
<g>
</g>
<g>
</g>
<g>
</g>
<g>
</g>
</svg>
