<?xml version="1.0" encoding="iso-8859-1"?>
<!-- Generator: Adobe Illustrator 19.0.0, SVG Export Plug-In . SVG Version: 6.00 Build 0)  -->
<svg version="1.1" id="Capa_1" xmlns="http://www.w3.org/2000/svg" xmlns:xlink="http://www.w3.org/1999/xlink" x="0px" y="0px"
	 viewBox="0 0 490.1 490.1" style="enable-background:new 0 0 490.1 490.1;" xml:space="preserve">
<g>
	<g>
		<path d="M351.15,0h-212.2c-16.7,0-30.3,13.6-30.3,30.3v429.5c0,16.7,13.6,30.3,30.3,30.3h212.2c16.7,0,30.3-13.6,30.3-30.3V30.4
			C381.45,13.7,367.85,0,351.15,0z M202.25,19.5h85.5c5.4,0,9.7,4.3,9.7,9.7s-4.3,9.7-9.7,9.7h-85.5c-5.4,0-9.7-4.3-9.7-9.7
			S196.85,19.5,202.25,19.5z M146.35,59.1h197.4v159h-197.4V59.1z M168.45,454.4c-13.6,0-24.5-10.9-24.5-24.1s10.9-24.1,24.5-24.1
			s24.5,10.9,24.5,24.1S182.05,454.4,168.45,454.4z M168.45,374.7c-13.6,0-24.5-10.9-24.5-24.1s10.9-24.1,24.5-24.1
			s24.5,10.9,24.5,24.1S182.05,374.7,168.45,374.7z M168.45,295.4c-13.6,0-24.5-10.9-24.5-24.1s10.9-24.1,24.5-24.1
			s24.5,10.9,24.5,24.1S182.05,295.4,168.45,295.4z M243.85,454.4c-13.6,0-24.5-10.9-24.5-24.1s10.9-24.1,24.5-24.1
			c13.6,0,24.5,10.9,24.5,24.1S257.45,454.4,243.85,454.4z M243.85,374.7c-13.6,0-24.5-10.9-24.5-24.1s10.9-24.1,24.5-24.1
			c13.6,0,24.5,10.9,24.5,24.1S257.45,374.7,243.85,374.7z M243.85,295.4c-13.6,0-24.5-10.9-24.5-24.1s10.9-24.1,24.5-24.1
			c13.6,0,24.5,10.9,24.5,24.1S257.45,295.4,243.85,295.4z M319.25,454.4c-13.6,0-24.5-10.9-24.5-24.1s10.9-24.1,24.5-24.1
			s24.5,10.9,24.5,24.1S332.85,454.4,319.25,454.4z M319.25,374.7c-13.6,0-24.5-10.9-24.5-24.1s10.9-24.1,24.5-24.1
			s24.5,10.9,24.5,24.1S332.85,374.7,319.25,374.7z M319.25,295.4c-13.6,0-24.5-10.9-24.5-24.1s10.9-24.1,24.5-24.1
			s24.5,10.9,24.5,24.1S332.85,295.4,319.25,295.4z"/>
	</g>
</g>
<g>
</g>
<g>
</g>
<g>
</g>
<g>
</g>
<g>
</g>
<g>
</g>
<g>
</g>
<g>
</g>
<g>
</g>
<g>
</g>
<g>
</g>
<g>
</g>
<g>
</g>
<g>
</g>
<g>
</g>
</svg>
