<?xml version="1.0" encoding="iso-8859-1"?>
<!-- Generator: Adobe Illustrator 19.0.0, SVG Export Plug-In . SVG Version: 6.00 Build 0)  -->
<svg version="1.1" id="Capa_1" xmlns="http://www.w3.org/2000/svg" xmlns:xlink="http://www.w3.org/1999/xlink" x="0px" y="0px"
	 viewBox="0 0 489.7 489.7" style="enable-background:new 0 0 489.7 489.7;" xml:space="preserve">
<g>
	<g>
		<path d="M403.5,154.5H86.3c-3.1,19-17.9,34.2-36.5,37.7v105.3c18.7,3.5,33.4,18.7,36.5,37.7h317.6c3.1-19,17.9-34.2,36.5-37.7
			V192.6C421.7,189.1,407,174,403.5,154.5z M244.9,305.7c-33.4,0-60.6-27.2-60.6-60.6s27.2-60.6,60.6-60.6s60.6,27.2,60.6,60.6
			S278.3,305.7,244.9,305.7z"/>
		<path d="M0,110.2v269.3h489.7V110.2H0z M455.9,304.9c0,4.3-3.5,7.8-7.8,7.8c-16.3,0-29.5,13.6-29.5,30.7c0,4.3-3.5,7.8-7.8,7.8
			H78.9c-4.3,0-7.8-3.5-7.8-7.8c0-16.7-13.2-30.7-29.5-30.7c-4.3,0-7.8-3.5-7.8-7.8V185.2c0-4.3,3.5-7.8,7.8-7.8
			c16.3,0,29.5-13.6,29.5-30.7c0-4.3,3.5-7.8,7.8-7.8h332c4.3,0,7.8,3.5,7.8,7.8c0,16.7,13.2,30.7,29.5,30.7c4.3,0,7.8,3.5,7.8,7.8
			L455.9,304.9z"/>
		<path d="M266,259.8c0-11.3-9-20.5-20.3-20.8c-0.2,0-0.4,0-0.6,0c-4.9,0-8.9-4-8.9-8.9s4-8.9,8.9-8.9c2.5,0,4.8,1,6.5,2.8
			c2.3,2.4,6,2.5,8.4,0.3c2.4-2.3,2.5-6,0.3-8.4c-2.5-2.7-5.7-4.6-9.2-5.7v-4.3c0-3.3-2.7-6-6-6s-6,2.7-6,6v4.1
			c-8.6,2.6-14.9,10.6-14.9,20c0,11.3,9,20.5,20.3,20.8c0.2,0,0.4,0,0.6,0c4.9,0,8.9,4,8.9,8.9s-4,8.9-8.9,8.9c-2.5,0-4.8-1-6.5-2.8
			c-2.3-2.4-6-2.5-8.4-0.3c-2.4,2.3-2.5,6-0.3,8.4c2.5,2.7,5.7,4.6,9.2,5.7v4.2c0,3.3,2.7,6,6,6c3.3,0,6-2.7,6-6v-4.1
			C259.7,277.2,266,269.2,266,259.8z"/>
	</g>
</g>
<g>
</g>
<g>
</g>
<g>
</g>
<g>
</g>
<g>
</g>
<g>
</g>
<g>
</g>
<g>
</g>
<g>
</g>
<g>
</g>
<g>
</g>
<g>
</g>
<g>
</g>
<g>
</g>
<g>
</g>
</svg>
