<?xml version="1.0" encoding="iso-8859-1"?>
<!-- Generator: Adobe Illustrator 19.0.0, SVG Export Plug-In . SVG Version: 6.00 Build 0)  -->
<svg version="1.1" id="Capa_1" xmlns="http://www.w3.org/2000/svg" xmlns:xlink="http://www.w3.org/1999/xlink" x="0px" y="0px"
	 viewBox="0 0 490 490" style="enable-background:new 0 0 490 490;" xml:space="preserve">
<g>
	<g>
		<rect x="0.1" width="489.9" height="73.9"/>
		<path d="M0,490h490V100.4H0V490z M108.9,376v-87.5c0-5.8,4.7-10.5,10.5-10.5h115.1v-77c-12.1-4.3-20.6-15.6-20.6-29.2
			c0-17.1,14-31.1,31.1-31.1s31.1,14,31.1,31.1c0,13.6-8.6,24.9-20.6,29.2v77h115.1c5.8,0,10.5,4.7,10.5,10.5v87.9
			c12.1,4.3,20.6,15.6,20.6,29.2c0,17.1-14,31.1-31.1,31.1s-31.1-14-31.1-31.1c0-13.6,8.6-24.9,20.6-29.2V299H255.5v77
			c12.1,4.3,20.6,15.6,20.6,29.2c0,17.1-14,31.1-31.1,31.1s-31.1-14-31.1-31.1c0-13.6,8.6-24.9,20.6-29.2v-77H129.9v77
			c12.1,4.3,20.6,15.6,20.6,29.2c0,17.1-14,31.1-31.1,31.1s-31.1-14-31.1-31.1C88.3,392,96.9,380.7,108.9,376z"/>
	</g>
</g>
<g>
</g>
<g>
</g>
<g>
</g>
<g>
</g>
<g>
</g>
<g>
</g>
<g>
</g>
<g>
</g>
<g>
</g>
<g>
</g>
<g>
</g>
<g>
</g>
<g>
</g>
<g>
</g>
<g>
</g>
</svg>
