<?xml version="1.0" encoding="iso-8859-1"?>
<!-- Generator: Adobe Illustrator 19.0.0, SVG Export Plug-In . SVG Version: 6.00 Build 0)  -->
<svg version="1.1" id="Capa_1" xmlns="http://www.w3.org/2000/svg" xmlns:xlink="http://www.w3.org/1999/xlink" x="0px" y="0px"
	 viewBox="0 0 490.1 490.1" style="enable-background:new 0 0 490.1 490.1;" xml:space="preserve">
<g>
	<path d="M445.15,379.8V109.5c25.2-5,44.3-27.6,44.3-54.4c0-30.3-24.9-55.1-55.5-55.1s-55.5,24.9-55.5,55.5
		c0,26.8,19,48.9,44.3,54.4v123.9h-367c-6.2,0-11.3,5-11.3,11.3v135.1c-25.2,5-44.3,27.6-44.3,54.4c0,30.7,24.9,55.5,55.5,55.5
		s55.5-24.9,55.5-55.5c0-26.8-19-48.9-44.3-54.4V255.9h167v123.9c-25.2,5-44.3,27.6-44.3,54.4c0,30.7,24.9,55.5,55.5,55.5
		s55.5-24.9,55.5-55.5c0-26.8-19-48.9-44.3-54.4V255.9h167v123.9c-25.2,5-44.3,27.6-44.3,54.4c0,30.7,24.9,55.5,55.5,55.5
		s55.5-24.9,55.5-55.5C489.45,406.9,470.35,384.8,445.15,379.8z"/>
</g>
<g>
</g>
<g>
</g>
<g>
</g>
<g>
</g>
<g>
</g>
<g>
</g>
<g>
</g>
<g>
</g>
<g>
</g>
<g>
</g>
<g>
</g>
<g>
</g>
<g>
</g>
<g>
</g>
<g>
</g>
</svg>
