<?xml version="1.0" encoding="iso-8859-1"?>
<!-- Generator: Adobe Illustrator 19.0.0, SVG Export Plug-In . SVG Version: 6.00 Build 0)  -->
<svg version="1.1" id="Capa_1" xmlns="http://www.w3.org/2000/svg" xmlns:xlink="http://www.w3.org/1999/xlink" x="0px" y="0px"
	 viewBox="0 0 489.5 489.5" style="enable-background:new 0 0 489.5 489.5;" xml:space="preserve">
<g>
	<path d="M446.447,385.6V256.9c0-5.4-4.3-9.7-9.7-9.7h-182.3v-101c35.8-4.7,63.7-35.4,63.7-72.7c0-40.4-33-73.5-73.5-73.5
		s-73.5,33-73.5,73.5c0,37.3,27.6,68,63.7,72.7v100.7h-181.7c-5.4,0-9.7,4.3-9.7,9.7v128.7c-24.5,4.7-42.8,26-42.8,51.7
		c0,29.2,23.7,52.5,52.5,52.5s52.5-23.7,52.5-52.5c0-25.7-18.3-47-42.8-51.7V266.7h172.2v118.6c-24.5,4.7-42.8,26-42.8,51.7
		c0,29.2,23.7,52.5,52.5,52.5c29.2,0,52.5-23.7,52.5-52.5c0-25.7-18.3-47-42.8-51.7V266.7h172.2v118.6c-24.5,4.7-42.8,26-42.8,51.7
		c0,29.2,23.7,52.5,52.5,52.5c29.2,0,52.5-23.7,52.5-52.5C489.247,411.3,470.547,389.9,446.447,385.6z"/>
</g>
<g>
</g>
<g>
</g>
<g>
</g>
<g>
</g>
<g>
</g>
<g>
</g>
<g>
</g>
<g>
</g>
<g>
</g>
<g>
</g>
<g>
</g>
<g>
</g>
<g>
</g>
<g>
</g>
<g>
</g>
</svg>
