<?xml version="1.0" encoding="iso-8859-1"?>
<!-- Generator: Adobe Illustrator 19.0.0, SVG Export Plug-In . SVG Version: 6.00 Build 0)  -->
<svg version="1.1" id="Capa_1" xmlns="http://www.w3.org/2000/svg" xmlns:xlink="http://www.w3.org/1999/xlink" x="0px" y="0px"
	 viewBox="0 0 489.801 489.801" style="enable-background:new 0 0 489.801 489.801;" xml:space="preserve">
<g>
	<g>
		<g>
			<path d="M91.4,354.95c-50.6,0-91.4,40.8-91.4,91.4c0,6.6,0.8,12.8,1.9,19.1c25.3,13.2,56,21,89.4,21s64.2-7.8,89.4-21
				c1.2-6.2,1.9-12.4,1.9-19.1C183.2,396.15,141.9,354.95,91.4,354.95z"/>
			<circle cx="91.4" cy="285.65" r="48.2"/>
			<path d="M398.6,354.95c-50.6,0-91.4,40.8-91.4,91.4c0,6.6,0.8,12.8,1.9,19.1c25.3,13.2,56,21,89.4,21s64.2-7.8,89.4-21
				c1.2-6.2,1.9-12.4,1.9-19.1C490,396.15,449.2,354.95,398.6,354.95z"/>
			<circle cx="398.6" cy="285.65" r="48.2"/>
			<path d="M245,252.65c33.4,0,64.2-7.8,89.4-21c1.2-6.2,1.9-12.4,1.9-19.1c0-50.6-40.8-91.4-91.4-91.4s-91.4,40.8-91.4,91.4
				c0,6.6,0.8,12.8,1.9,19.1C180.8,244.85,211.6,252.65,245,252.65z"/>
			<circle cx="245" cy="51.55" r="48.2"/>
			<path d="M258.2,330.45v-55.7c0-5.5-4.5-10.2-10.1-10.1c-5.3,0.2-9.4,4.4-9.4,9.7v56l-44.7,44.3c-3.8,3.8-3.9,9.9-0.2,13.8
				c3.9,4,10.5,3.9,14.4-0.1l39.8-39.8l40.4,40c3.9,3.8,10.1,3.8,14,0l0,0c3.9-3.9,3.9-10.2,0-14L258.2,330.45z"/>
		</g>
	</g>
</g>
<g>
</g>
<g>
</g>
<g>
</g>
<g>
</g>
<g>
</g>
<g>
</g>
<g>
</g>
<g>
</g>
<g>
</g>
<g>
</g>
<g>
</g>
<g>
</g>
<g>
</g>
<g>
</g>
<g>
</g>
</svg>
