<?xml version="1.0" encoding="iso-8859-1"?>
<!-- Generator: Adobe Illustrator 19.0.0, SVG Export Plug-In . SVG Version: 6.00 Build 0)  -->
<svg version="1.1" id="Capa_1" xmlns="http://www.w3.org/2000/svg" xmlns:xlink="http://www.w3.org/1999/xlink" x="0px" y="0px"
	 viewBox="0 0 490 490" style="enable-background:new 0 0 490 490;" xml:space="preserve">
<g>
	<g>
		<g>
			<rect x="162.9" width="22.9" height="84.4"/>
			<path d="M145.8,73.9h-36.9v374.5h272.2V73.9h-36.9v20.6c0,5.8-4.7,10.1-10.1,10.1h-36.6c-5.8,0-10.1-4.7-10.1-10.1V73.9H203v20.6
				c0,5.8-4.7,10.1-10.1,10.1h-36.6c-5.8,0-10.1-4.7-10.1-10.1V73.9H145.8z M349.2,407.6H140.8c-5.8,0-10.1-4.7-10.1-10.1
				c0-5.8,4.7-10.1,10.1-10.1h208.4c5.8,0,10.1,4.7,10.1,10.1C359.7,402.9,355.1,407.6,349.2,407.6z M349.2,333.3H140.8
				c-5.8,0-10.1-4.7-10.1-10.1s4.7-10.1,10.1-10.1h208.4c5.8,0,10.1,4.7,10.1,10.1S355.1,333.3,349.2,333.3z M349.2,258.6H140.8
				c-5.8,0-10.1-4.7-10.1-10.1c0-5.8,4.7-10.1,10.1-10.1h208.4c5.8,0,10.1,4.7,10.1,10.1C359.7,253.9,355.1,258.6,349.2,258.6z
				 M349.2,163.3c5.8,0,10.1,4.7,10.1,10.1c0,5.8-4.7,10.1-10.1,10.1H140.8c-5.8,0-10.1-4.7-10.1-10.1c0-5.8,4.7-10.1,10.1-10.1
				H349.2z"/>
			<rect x="203" y="32.3" width="84" height="21"/>
			<rect x="304.1" width="22.9" height="84.4"/>
			<path d="M344.2,53.3h47.1c5.8,0,10.1,4.7,10.1,10.1v395.1c0,5.8-4.7,10.1-10.1,10.1H98.8c-5.8,0-10.1-4.7-10.1-10.1V63.8
				c0-5.8,4.7-10.1,10.1-10.1h47.1V32.3H67.3V490h355.4V32.3h-78.6v21H344.2z"/>
		</g>
	</g>
</g>
<g>
</g>
<g>
</g>
<g>
</g>
<g>
</g>
<g>
</g>
<g>
</g>
<g>
</g>
<g>
</g>
<g>
</g>
<g>
</g>
<g>
</g>
<g>
</g>
<g>
</g>
<g>
</g>
<g>
</g>
</svg>
