<?xml version="1.0" encoding="iso-8859-1"?>
<!-- Generator: Adobe Illustrator 19.0.0, SVG Export Plug-In . SVG Version: 6.00 Build 0)  -->
<svg version="1.1" id="Capa_1" xmlns="http://www.w3.org/2000/svg" xmlns:xlink="http://www.w3.org/1999/xlink" x="0px" y="0px"
	 viewBox="0 0 489.6 489.6" style="enable-background:new 0 0 489.6 489.6;" xml:space="preserve">
<g>
	<g>
		<path d="M146.35,96.4c5.8,0,10.9-4.7,10.9-10.9V10.9c0-5.8-4.7-10.9-10.9-10.9c-5.8,0-10.9,4.7-10.9,10.9v74.6
			C135.85,91.3,140.55,96.4,146.35,96.4z"/>
		<path d="M245.05,96.4c5.8,0,10.9-4.7,10.9-10.9V10.9c0-6.2-5.1-10.9-10.9-10.9s-10.9,4.7-10.9,10.9v74.6
			C234.15,91.3,239.25,96.4,245.05,96.4z"/>
		<path d="M343.75,96.4c5.8,0,10.9-4.7,10.9-10.9V10.9c0-5.8-4.7-10.9-10.9-10.9s-10.9,4.7-10.9,10.9v74.6
			C332.85,91.3,337.55,96.4,343.75,96.4z"/>
		<path d="M375.65,42.3v43.1c0,17.9-14.4,32.3-32.3,32.3s-32.3-14.4-32.3-32.3V42.3h-34.2v43.1c0,17.9-14.4,32.3-32.3,32.3
			s-32.3-14.4-32.3-32.3V42.3h-34.2v43.1c0,17.9-14.4,32.3-32.3,32.3s-32.3-14.4-32.3-32.3V42.3h-40v447.3h342.7V42.3H375.65z
			 M360.85,427h-231.6c-5.8,0-10.9-4.7-10.9-10.9c0-5.8,4.7-10.9,10.9-10.9h231.2c5.8,0,10.9,4.7,10.9,10.9
			C371.35,422,366.65,427,360.85,427z M360.85,349.7h-231.6c-5.8,0-10.9-4.7-10.9-10.9c0-5.8,4.7-10.9,10.9-10.9h231.2
			c5.8,0,10.9,4.7,10.9,10.9S366.65,349.7,360.85,349.7z M360.85,272.8h-231.6c-5.8,0-10.9-4.7-10.9-10.9c0-5.8,4.7-10.9,10.9-10.9
			h231.2c5.8,0,10.9,4.7,10.9,10.9C371.35,267.7,366.65,272.8,360.85,272.8z M360.85,195.5h-231.6c-5.8,0-10.9-4.7-10.9-10.9
			c0-5.8,4.7-10.9,10.9-10.9h231.2c5.8,0,10.9,4.7,10.9,10.9S366.65,195.5,360.85,195.5z"/>
	</g>
</g>
<g>
</g>
<g>
</g>
<g>
</g>
<g>
</g>
<g>
</g>
<g>
</g>
<g>
</g>
<g>
</g>
<g>
</g>
<g>
</g>
<g>
</g>
<g>
</g>
<g>
</g>
<g>
</g>
<g>
</g>
</svg>
