<?xml version="1.0" encoding="iso-8859-1"?>
<!-- Generator: Adobe Illustrator 19.0.0, SVG Export Plug-In . SVG Version: 6.00 Build 0)  -->
<svg version="1.1" id="Capa_1" xmlns="http://www.w3.org/2000/svg" xmlns:xlink="http://www.w3.org/1999/xlink" x="0px" y="0px"
	 viewBox="0 0 490.1 490.1" style="enable-background:new 0 0 490.1 490.1;" xml:space="preserve">
<g>
	<g>
		<g>
			<path d="M125.75,428.7c0-6.2-5.1-11.7-11.7-11.7h-53.2c-4.3,0-7.8-3.5-7.8-7.8s3.5-7.8,7.8-7.8h23.7c6.2,0,11.7-5.1,11.7-11.7
				c0-6.2-5.1-11.7-11.7-11.7h-23.7c-17.1,0-30.7,13.6-30.7,30.7s13.6,30.7,30.7,30.7h53.6C120.65,440.4,125.75,435.3,125.75,428.7z
				"/>
			<path d="M60.85,330.4h53.6c6.2,0,11.7-5.1,11.7-11.7c0-6.2-5.1-11.7-11.7-11.7h-53.6c-4.3,0-7.8-3.5-7.8-7.8s3.5-7.8,7.8-7.8
				h23.7c6.2,0,11.7-5.1,11.7-11.7c0-6.2-5.1-11.7-11.7-11.7h-23.7c-17.1,0-30.7,13.6-30.7,30.7
				C30.15,316.8,43.75,330.4,60.85,330.4z"/>
			<path d="M60.85,220.8h53.6c6.2,0,11.7-5.1,11.7-11.7c0-6.2-5.1-11.7-11.7-11.7h-53.6c-4.3,0-7.8-3.5-7.8-7.8s3.5-7.8,7.8-7.8
				h23.7c6.2,0,11.7-5.1,11.7-11.7c0-6.2-5.1-11.7-11.7-11.7h-23.7c-17.1,0-30.7,13.6-30.7,30.7
				C30.15,206.8,43.75,220.8,60.85,220.8z"/>
			<path d="M60.85,110.8h53.6c6.2,0,11.7-5.1,11.7-11.7c0-6.2-5.1-11.7-11.7-11.7h-53.6c-4.3,0-7.8-3.5-7.8-7.8s3.5-7.8,7.8-7.8
				h23.7c6.2,0,11.7-5.1,11.7-11.7c0-6.2-5.1-11.7-11.7-11.7h-23.7c-17.1,0-30.7,13.6-30.7,30.7C30.15,97.2,43.75,110.8,60.85,110.8
				z"/>
			<path d="M84.15,0v26.4l0,0c19,0,34.6,15.5,34.6,34.6c0,1.6,0,2.7-0.4,4.3c17.1,2.3,30.3,16.7,30.3,34.2c0,19-15.5,34.6-34.6,34.6
				h-29.9v1.9l0,0c19,0,34.6,15.5,34.6,34.6c0,1.6,0,2.7-0.4,4.3c17.1,2.3,30.3,16.7,30.3,34.2c0,19-15.5,34.6-34.6,34.6h-29.9v2.3
				l0,0c19,0,34.6,15.5,34.6,34.6c0,1.6,0,2.7-0.4,4.3c17.1,2.3,30.3,16.7,30.3,34.2c0,19-15.5,34.6-34.6,34.6h-29.9v2.3l0,0
				c19,0,34.6,15.5,34.6,34.6c0,1.6,0,2.7-0.4,4.3c17.1,2.3,30.3,16.7,30.3,34.2c0,19-15.5,34.6-34.6,34.6h-29.9v26.4h375.8V0H84.15
				z M403.65,409.3h-220.4c-6.2,0-11.7-5.1-11.7-11.7c0-6.2,5.1-11.7,11.7-11.7h220.4c6.2,0,11.7,5.1,11.7,11.7
				C415.25,404.3,410.25,409.3,403.65,409.3z M403.65,307.5h-220.4c-6.2,0-11.7-5.1-11.7-11.7c0-6.2,5.1-11.7,11.7-11.7h220.4
				c6.2,0,11.7,5.1,11.7,11.7C415.25,302.4,410.25,307.5,403.65,307.5z M403.65,205.3h-220.4c-6.2,0-11.7-5.1-11.7-11.7
				s5.1-11.7,11.7-11.7h220.4c6.2,0,11.7,5.1,11.7,11.7S410.25,205.3,403.65,205.3z M403.65,103.4h-220.4c-6.2,0-11.7-5.1-11.7-11.7
				c0-6.2,5.1-11.7,11.7-11.7h220.4c6.2,0,11.7,5.1,11.7,11.7S410.25,103.4,403.65,103.4z"/>
		</g>
	</g>
</g>
<g>
</g>
<g>
</g>
<g>
</g>
<g>
</g>
<g>
</g>
<g>
</g>
<g>
</g>
<g>
</g>
<g>
</g>
<g>
</g>
<g>
</g>
<g>
</g>
<g>
</g>
<g>
</g>
<g>
</g>
</svg>
