<?xml version="1.0" encoding="iso-8859-1"?>
<!-- Generator: Adobe Illustrator 19.0.0, SVG Export Plug-In . SVG Version: 6.00 Build 0)  -->
<svg version="1.1" id="Capa_1" xmlns="http://www.w3.org/2000/svg" xmlns:xlink="http://www.w3.org/1999/xlink" x="0px" y="0px"
	 viewBox="0 0 490 490" style="enable-background:new 0 0 490 490;" xml:space="preserve">
<g>
	<g>
		<path d="M255.1,84.4v269.4h187.4V84.4H255.1z M316.2,304.5h-11.7c-5.1,0-9.3-4.3-9.3-9.3c0-5.1,4.3-9.3,9.3-9.3h11.7
			c5.1,0,9.3,4.3,9.3,9.3S321.2,304.5,316.2,304.5z M369.4,304.5h-11.7c-5.1,0-9.3-4.3-9.3-9.3c0-5.1,4.3-9.3,9.3-9.3h11.7
			c5.1,0,9.3,4.3,9.3,9.3C378.8,300.2,374.5,304.5,369.4,304.5z M416.9,147.4h-10.1l-17.1,89.8c-0.8,4.3-4.7,7.8-9.3,7.8h-85.1h-0.4
			c-2.3,0-4.7,1.9-4.7,4.7c0,2.3,1.9,4.7,4.7,4.7H383c4.3,0,8.2,2.7,9.4,6.8c1.7,6.1-3.1,11.8-9,11.8h-88.1
			c-12.9,0-23.7-10.2-23.9-23c-0.1-9.1,5-17,12.8-20.9l-8.6-44.9c-1.1-5.8,3.3-11.1,9.2-11.1h98.5l7-36.2c0.8-4.3,4.7-7.8,9.3-7.8
			h17.9c5.1,0,9.3,4.3,9.3,9.3C426.6,143.1,422.3,147.4,416.9,147.4z"/>
		<path d="M234.9,84.4H47.5v269.4h187.4V84.4z M203.8,333.3H78.2c-5.8,0-10.1-4.7-10.1-10.1s4.7-10.1,10.1-10.1h125.6
			c5.8,0,10.1,4.7,10.1,10.1C213.9,328.6,209.6,333.3,203.8,333.3z M203.8,281.2H78.2c-5.8,0-10.1-4.7-10.1-10.1
			c0-5.8,4.7-10.1,10.1-10.1h125.6c5.8,0,10.1,4.7,10.1,10.1C214.3,276.9,209.6,281.2,203.8,281.2z M203.8,229.4H78.2
			c-5.8,0-10.1-4.7-10.1-10.1c0-5.8,4.7-10.1,10.1-10.1h125.6c5.8,0,10.1,4.7,10.1,10.1C214.3,224.8,209.6,229.4,203.8,229.4z
			 M203.8,177.3H78.2c-5.8,0-10.1-4.7-10.1-10.1c0-5.4,4.7-10.1,10.1-10.1h125.6c5.8,0,10.1,4.7,10.1,10.1
			C213.9,172.7,209.6,177.3,203.8,177.3z M203.8,125.6H78.2c-5.8,0-10.1-4.7-10.1-10.1c0-5.8,4.7-10.1,10.1-10.1h125.6
			c5.8,0,10.1,4.7,10.1,10.1C214.3,121,209.6,125.6,203.8,125.6z"/>
		<path d="M463.1,364c0,5.8-4.7,10.1-10.1,10.1H245H37c-5.8,0-10.1-4.7-10.1-10.1V145.1H0v260.5h490V145.1h-26.8V364H463.1z"/>
	</g>
</g>
<g>
</g>
<g>
</g>
<g>
</g>
<g>
</g>
<g>
</g>
<g>
</g>
<g>
</g>
<g>
</g>
<g>
</g>
<g>
</g>
<g>
</g>
<g>
</g>
<g>
</g>
<g>
</g>
<g>
</g>
</svg>
