<?xml version="1.0" encoding="iso-8859-1"?>
<!-- Generator: Adobe Illustrator 19.0.0, SVG Export Plug-In . SVG Version: 6.00 Build 0)  -->
<svg version="1.1" id="Capa_1" xmlns="http://www.w3.org/2000/svg" xmlns:xlink="http://www.w3.org/1999/xlink" x="0px" y="0px"
	 viewBox="0 0 490 490" style="enable-background:new 0 0 490 490;" xml:space="preserve">
<g>
	<g>
		<path d="M187.7,0C84.3,0,0.4,83.9,0,188.1h187.7V0z"/>
		<path d="M490,383.1c0-40.5-32.7-73.5-73-74.1c-0.4,0-0.7,0-1.1,0c-17.5,0-31.7-14.2-31.7-31.7s14.2-31.7,31.7-31.7
			c8.8,0,17.1,3.5,23.1,10c8,8.5,21.4,8.9,30,0.9c8.5-8,8.9-21.4,0.9-30c-9-9.6-20.4-16.5-32.8-20.2v-14.7
			c0-11.7-9.5-21.2-21.2-21.2s-21.2,9.5-21.2,21.2v14.7c-30.6,9.1-52.9,37.5-52.9,71c0,40.5,32.7,73.5,73,74.1c0.4,0,0.7,0,1.1,0
			c17.5,0,31.7,14.2,31.7,31.7s-14.2,31.7-31.7,31.7c-8.8,0-17.1-3.5-23.1-10c-8-8.5-21.4-8.9-30-0.9c-8.5,8-8.9,21.4-0.9,30
			c9,9.6,20.4,16.5,32.8,20.2v14.7c0,11.7,9.5,21.2,21.2,21.2s21.2-9.5,21.2-21.2v-14.7C467.6,445,490,416.6,490,383.1z"/>
		<path d="M220.5,31.5V221H30.7v0.1c0,104.7,84.9,189.6,189.6,189.6c52.4,0,99.9-21.3,134.2-55.7c-3.2-2.5-6.3-5.3-9.2-8.2
			c-18.4-18.7-28.6-43.4-28.6-69.6c0-21.7,6.9-42.4,20.1-59.7c8.8-11.6,20.1-21.2,32.9-27.9c0.7-17.6,11.3-32.6,26.4-39.8
			C367.9,80.5,299.9,31.5,220.5,31.5z"/>
	</g>
</g>
<g>
</g>
<g>
</g>
<g>
</g>
<g>
</g>
<g>
</g>
<g>
</g>
<g>
</g>
<g>
</g>
<g>
</g>
<g>
</g>
<g>
</g>
<g>
</g>
<g>
</g>
<g>
</g>
<g>
</g>
</svg>
