<?xml version="1.0" encoding="iso-8859-1"?>
<!-- Generator: Adobe Illustrator 19.0.0, SVG Export Plug-In . SVG Version: 6.00 Build 0)  -->
<svg version="1.1" id="Capa_1" xmlns="http://www.w3.org/2000/svg" xmlns:xlink="http://www.w3.org/1999/xlink" x="0px" y="0px"
	 viewBox="0 0 489.6 489.6" style="enable-background:new 0 0 489.6 489.6;" xml:space="preserve">
<g>
	<g>
		<rect y="30.3" width="489.6" height="48.6"/>
		<polygon points="280.5,392.5 302.7,459.3 351.7,459.3 329.5,392.5 		"/>
		<polygon points="137.9,459.3 186.9,459.3 209.1,392.5 160.1,392.5 		"/>
		<path d="M39.6,370.3h410.3V101H39.6V370.3z M261.1,138.3c44.7,0,80.8,36.5,80.8,81.2l0,0h-80.8V138.3z M147.7,252.2
			c0-44.7,36.1-81.2,80.8-81.2v80.8h80.8c0,44.7-36.1,80.8-80.8,80.8C183.8,333,147.7,296.9,147.7,252.2L147.7,252.2z"/>
	</g>
</g>
<g>
</g>
<g>
</g>
<g>
</g>
<g>
</g>
<g>
</g>
<g>
</g>
<g>
</g>
<g>
</g>
<g>
</g>
<g>
</g>
<g>
</g>
<g>
</g>
<g>
</g>
<g>
</g>
<g>
</g>
</svg>
