<?xml version="1.0" encoding="iso-8859-1"?>
<!-- Generator: Adobe Illustrator 19.0.0, SVG Export Plug-In . SVG Version: 6.00 Build 0)  -->
<svg version="1.1" id="Capa_1" xmlns="http://www.w3.org/2000/svg" xmlns:xlink="http://www.w3.org/1999/xlink" x="0px" y="0px"
	 viewBox="0 0 490 490" style="enable-background:new 0 0 490 490;" xml:space="preserve">
<g>
	<g>
		<g>
			<rect x="341.1" y="460.05" width="87.1" height="21.8"/>
			<rect x="61.8" y="460.05" width="87.1" height="21.8"/>
			<path d="M397.4,130.25c0,6.6,5.4,12.1,12.1,12.1h53.7c6.6,0,12.1-5.4,12.1-12.1c0-6.6-5.4-12.1-12.1-12.1h-53.7
				C402.9,118.15,397.4,123.65,397.4,130.25z"/>
			<path d="M475.6,313.35c0-6.6-5.4-12.1-12.1-12.1h-53.7c-6.6,0-12.1,5.4-12.1,12.1c0,6.6,5.4,12.1,12.1,12.1h53.7
				C470.2,325.45,475.6,320.05,475.6,313.35z"/>
			<path d="M245,314.55c51.3,0,92.9-41.6,92.9-92.9s-41.6-92.9-92.9-92.9s-92.9,41.6-92.9,92.9S193.7,314.55,245,314.55z"/>
			<path d="M0,8.15v427.4h490v-96.8c-6.6,7-15.9,11.3-26.4,11.3h-12.4v34.2c0,6.6-5.4,12.1-12.1,12.1H51.3
				c-6.6,0-12.1-5.4-12.1-12.1V59.45c0-6.6,5.4-12.1,12.1-12.1h387.3c6.6,0,12.1,5.4,12.1,12.1v34.2h12.4c10.5,0,19.8,4.3,26.4,11.3
				V8.15H0z"/>
			<path d="M450.7,167.15v109.7h12.4c10.5,0,19.8,4.3,26.4,11.3v-132.6c-6.6,7-15.9,11.3-26.4,11.3h-12.4V167.15z"/>
			<path d="M63.8,371.75h362.8v-21.8h-16.7c-20.2,0-36.6-16.3-36.6-36.6c0-20.2,16.3-36.6,36.6-36.6h16.7v-109.6h-16.7
				c-20.2,0-36.6-16.3-36.6-36.6s16.3-36.6,36.6-36.6h16.7v-21.7H63.8V371.75z M245,104.55c64.6,0,117.1,52.5,117.1,117.1
				s-52.5,117.4-117.1,117.4s-117.1-52.5-117.1-117.1S180.4,104.55,245,104.55z"/>
		</g>
	</g>
</g>
<g>
</g>
<g>
</g>
<g>
</g>
<g>
</g>
<g>
</g>
<g>
</g>
<g>
</g>
<g>
</g>
<g>
</g>
<g>
</g>
<g>
</g>
<g>
</g>
<g>
</g>
<g>
</g>
<g>
</g>
</svg>
