<?xml version="1.0" encoding="iso-8859-1"?>
<!-- Generator: Adobe Illustrator 19.0.0, SVG Export Plug-In . SVG Version: 6.00 Build 0)  -->
<svg version="1.1" id="Capa_1" xmlns="http://www.w3.org/2000/svg" xmlns:xlink="http://www.w3.org/1999/xlink" x="0px" y="0px"
	 viewBox="0 0 489.842 489.842" style="enable-background:new 0 0 489.842 489.842;" xml:space="preserve">
<g>
	<g>
		<circle cx="174.1" cy="128.446" r="34.2"/>
		<path d="M174.3,171.946c-37.5,0-69.7,20.3-84.3,49.6c14.6,29.2,46.8,49.6,84.3,49.6s69.7-20.3,84.3-49.6
			C244.1,192.246,211.8,171.946,174.3,171.946z"/>
		<path d="M348.5,174.446c0-96.2-78-174.3-174.3-174.3S0,78.246,0,174.446s78,174.3,174.3,174.3S348.5,270.746,348.5,174.446z
			 M174.2,291.246c-64.5,0-116.8-52.3-116.8-116.8s52.3-116.7,116.8-116.7s116.8,52.2,116.8,116.7S238.7,291.246,174.2,291.246z"/>
		<path d="M450.5,329.746l-102.3-68.9c-18.7,37.6-49.2,68.3-86.7,87.2l68.5,102.6c30.3,45.9,95.6,52.5,134.5,13.6
			C503.3,425.346,496.7,360.446,450.5,329.746z"/>
	</g>
</g>
<g>
</g>
<g>
</g>
<g>
</g>
<g>
</g>
<g>
</g>
<g>
</g>
<g>
</g>
<g>
</g>
<g>
</g>
<g>
</g>
<g>
</g>
<g>
</g>
<g>
</g>
<g>
</g>
<g>
</g>
</svg>
