<?xml version="1.0" encoding="iso-8859-1"?>
<!-- Generator: Adobe Illustrator 19.0.0, SVG Export Plug-In . SVG Version: 6.00 Build 0)  -->
<svg version="1.1" id="Capa_1" xmlns="http://www.w3.org/2000/svg" xmlns:xlink="http://www.w3.org/1999/xlink" x="0px" y="0px"
	 viewBox="0 0 490.575 490.575" style="enable-background:new 0 0 490.575 490.575;" xml:space="preserve">
<g>
	<g>
		<path d="M175,0.4C78.4,0.4,0,78.7,0,175.4s78.3,175,175,175c96.6,0,175-78.3,175-175S271.7,0.4,175,0.4z M175,297
			c-67.2,0-121.6-54.4-121.6-121.6S107.9,53.8,175,53.8s121.6,54.4,121.6,121.6S242.2,297,175,297z"/>
		<circle cx="175" cy="175.4" r="100.6"/>
		<path d="M471,378L352,259c-9.7,20.2-22.6,38.9-38.5,54.8c-15.9,15.9-34.2,28.8-54.8,38.5l119.4,118.6c25.7,25.7,67.3,25.7,92.9,0
			C497.1,445.3,497.1,403.7,471,378z"/>
	</g>
</g>
<g>
</g>
<g>
</g>
<g>
</g>
<g>
</g>
<g>
</g>
<g>
</g>
<g>
</g>
<g>
</g>
<g>
</g>
<g>
</g>
<g>
</g>
<g>
</g>
<g>
</g>
<g>
</g>
<g>
</g>
</svg>
