<?xml version="1.0" encoding="iso-8859-1"?>
<!-- Generator: Adobe Illustrator 19.0.0, SVG Export Plug-In . SVG Version: 6.00 Build 0)  -->
<svg version="1.1" id="Capa_1" xmlns="http://www.w3.org/2000/svg" xmlns:xlink="http://www.w3.org/1999/xlink" x="0px" y="0px"
	 viewBox="0 0 489.6 489.6" style="enable-background:new 0 0 489.6 489.6;" xml:space="preserve">
<g>
	<g>
		<g>
			<path d="M465.5,303.35c-3.5-21-12.1-40.4-23.7-57.6l17.5-17.5l-33.5-33.4l-17.5,17.5c-16.7-12.1-36.2-20.2-57.6-23.7v-24.5h-47.4
				v24.5c-21,3.5-40.4,12.1-57.6,23.7l-17.4-17.5l-33.5,33.5l17.5,17.5c-12.1,16.7-20.2,36.2-23.7,57.6h-24.5v47.1h24.5
				c3.5,21,12.1,40.4,23.7,57.6l-17.5,17.3l33.4,33.4l17.5-17.5c16.7,12.1,36.2,20.2,57.6,23.7v24.5h47.1v-24.5
				c21-3.5,40.4-12.1,57.6-23.7l17.5,17.5l33.4-33.4l-17.5-17.5c12.1-16.7,20.2-36.2,23.7-57.6h24.5v-47.1h-24.1V303.35z
				 M327.1,392.05c-35.8,0-64.9-29.2-64.9-64.9s29.2-64.9,64.9-64.9s64.9,29.2,64.9,64.9C392,362.85,362.8,392.05,327.1,392.05z"/>
			<path d="M192.9,171.15l-11.3-11.7c7.8-10.9,13.2-23.7,15.6-37.7h15.9v-30.7h-15.9c-2.3-14-7.8-26.4-15.6-37.7l11.3-11.3
				l-21.8-21.8l-11.7,11.3c-10.9-7.8-23.7-13.2-37.7-15.6V0.05H91v15.9c-14,2.3-26.4,7.8-37.7,15.6L42,20.25l-21.8,21.8l11.3,11.3
				c-7.8,10.9-13.2,23.7-15.6,37.7H0v30.7h15.9c2.3,14,7.8,26.4,15.6,37.7l-11.3,11.7l21.8,21.8l11.3-11.3
				c10.9,7.8,23.7,13.2,37.7,15.6v15.9h30.7v-15.9c14-2.3,26.4-7.8,37.7-15.6l11.3,11.3L192.9,171.15z M106.5,148.95
				c-23.3,0-42.4-19.1-42.4-42.4s19.1-42.4,42.4-42.4s42.4,19.1,42.4,42.4S129.9,148.95,106.5,148.95z"/>
		</g>
	</g>
</g>
<g>
</g>
<g>
</g>
<g>
</g>
<g>
</g>
<g>
</g>
<g>
</g>
<g>
</g>
<g>
</g>
<g>
</g>
<g>
</g>
<g>
</g>
<g>
</g>
<g>
</g>
<g>
</g>
<g>
</g>
</svg>
