<?xml version="1.0" encoding="iso-8859-1"?>
<!-- Generator: Adobe Illustrator 19.0.0, SVG Export Plug-In . SVG Version: 6.00 Build 0)  -->
<svg version="1.1" id="Capa_1" xmlns="http://www.w3.org/2000/svg" xmlns:xlink="http://www.w3.org/1999/xlink" x="0px" y="0px"
	 viewBox="0 0 490 490" style="enable-background:new 0 0 490 490;" xml:space="preserve">
<g>
	<g>
		<path d="M490,294.8v-99.6h-49.8c-4.7-19.1-12.4-36.6-22.2-52.9l35-35l-70-70.8l-35,35c-16.3-9.7-34.2-17.1-52.9-22.2V0h-99.9v49.8
			c-19.1,4.7-36.6,12.4-52.9,22.2l-35-35l-70.8,70l35,35c-9.7,16.3-17.1,34.2-22.2,52.9H0v99.6h49.8c4.7,19.1,12.4,36.6,22.2,52.9
			l-35,35l70.4,70.4l35-35c16.3,9.7,34.2,17.1,52.9,22.2v50h99.6v-49.8c19.1-4.7,36.6-12.4,52.9-22.2l35,35l70.4-70.4l-35-35
			c9.7-16.3,17.1-34.2,22.2-52.9H490V294.8z M245,374.9c-71.6,0-129.9-58.3-129.9-129.9S173.4,115.1,245,115.1
			S374.9,173.4,374.9,245S316.6,374.9,245,374.9z"/>
		<path d="M294.4,280.3c0-27.2-22.2-49.4-49.4-49.4c-11.7,0-21.1-9.5-21.1-21.1c0-11.7,9.5-21.1,21.1-21.1c5.9,0,11.4,2.4,15.4,6.7
			c5.3,5.7,14.3,5.9,20,0.6c5.7-5.3,6-14.3,0.6-20c-6-6.4-13.6-11-21.8-13.5v-9.8c0-7.8-6.3-14.1-14.1-14.1s-14.1,6.3-14.1,14.1v9.8
			c-20.4,6.1-35.3,25-35.3,47.3c0,27.2,22.2,49.4,49.4,49.4c11.7,0,21.1,9.5,21.1,21.1s-9.5,21.1-21.1,21.1
			c-5.9,0-11.4-2.4-15.4-6.7c-5.3-5.7-14.3-5.9-20-0.6s-6,14.3-0.6,20c6,6.4,13.6,11,21.8,13.5v9.8c0,7.8,6.3,14.1,14.1,14.1
			s14.1-6.3,14.1-14.1v-9.8C279.5,321.5,294.4,302.6,294.4,280.3z"/>
	</g>
</g>
<g>
</g>
<g>
</g>
<g>
</g>
<g>
</g>
<g>
</g>
<g>
</g>
<g>
</g>
<g>
</g>
<g>
</g>
<g>
</g>
<g>
</g>
<g>
</g>
<g>
</g>
<g>
</g>
<g>
</g>
</svg>
