<?xml version="1.0" encoding="iso-8859-1"?>
<!-- Generator: Adobe Illustrator 19.0.0, SVG Export Plug-In . SVG Version: 6.00 Build 0)  -->
<svg version="1.1" id="Capa_1" xmlns="http://www.w3.org/2000/svg" xmlns:xlink="http://www.w3.org/1999/xlink" x="0px" y="0px"
	 viewBox="0 0 490 490" style="enable-background:new 0 0 490 490;" xml:space="preserve">
<g>
	<path d="M448,211.2c-5.1-31.5-17.5-60.3-35.4-85.2l29.9-29.9l-48.2-48.2l-29.9,29.9c-24.9-17.9-54.1-30.3-85.2-35.4V0h-68.1v42
		c-31.5,5.1-60.3,17.5-85.2,35.4L96,47.5L47.8,95.7l29.9,29.9c-17.9,24.9-30.3,54.1-35.4,85.2H0v68.1h42
		c5.1,31.5,17.5,60.3,35.4,85.2L47.5,394l48.2,48.2l29.9-29.9c24.9,17.9,54.1,30.3,85.2,35.4V490h68.1v-42
		c31.5-5.1,60.3-17.5,85.2-35.4l29.9,29.9l48.2-48.2l-29.9-29.9c17.9-24.9,30.3-54.1,35.4-85.2H490v-68.1L448,211.2z M245,356.2
		c-61.4,0-111.2-49.8-111.2-111.2S183.6,133.8,245,133.8S356.2,183.6,356.2,245S306.4,356.2,245,356.2z"/>
</g>
<g>
</g>
<g>
</g>
<g>
</g>
<g>
</g>
<g>
</g>
<g>
</g>
<g>
</g>
<g>
</g>
<g>
</g>
<g>
</g>
<g>
</g>
<g>
</g>
<g>
</g>
<g>
</g>
<g>
</g>
</svg>
