<?xml version="1.0" encoding="iso-8859-1"?>
<!-- Generator: Adobe Illustrator 19.0.0, SVG Export Plug-In . SVG Version: 6.00 Build 0)  -->
<svg version="1.1" id="Capa_1" xmlns="http://www.w3.org/2000/svg" xmlns:xlink="http://www.w3.org/1999/xlink" x="0px" y="0px"
	 viewBox="0 0 489.8 489.8" style="enable-background:new 0 0 489.8 489.8;" xml:space="preserve">
<g>
	<g>
		<path d="M48.6,357h353.7V132.4H48.6V357z M318.4,149.9L318.4,149.9c30.7,0,56,24.9,56,56l0,0h-56V149.9z M294.3,174v56h56
			c0,30.7-24.9,56-56,56l0,0c-30.7,0-56-24.9-56-56l0,0C238.3,198.8,263.6,174,294.3,174z M151.6,172c14.8,0,26.8,12,26.8,26.8
			s-12,26.8-26.8,26.8s-26.8-12-26.8-26.8S136.8,172,151.6,172z M151.6,242.8c30.3,0,56,19.8,68.4,48.2
			c-7.8,25.7-35.4,45.1-68.4,45.1S91,317.1,83.2,291C95.6,262.6,121.3,242.8,151.6,242.8z"/>
		<path d="M0,87.3v315.2h489.8V87.3H0z M422.1,366.8c0,5.4-4.3,9.7-9.7,9.7H38.9c-5.4,0-9.7-4.3-9.7-9.7V122.7
			c0-5.4,4.3-9.7,9.7-9.7h373.2c5.4,0,9.7,4.3,9.7,9.7v244.1L422.1,366.8L422.1,366.8z M463.7,275.4c0,5.4-4.3,9.7-9.7,9.7
			c-5.4,0-9.7-4.3-9.7-9.7v-44.7c0-5.4,4.3-9.7,9.7-9.7c5.4,0,9.7,4.3,9.7,9.7V275.4z"/>
	</g>
</g>
<g>
</g>
<g>
</g>
<g>
</g>
<g>
</g>
<g>
</g>
<g>
</g>
<g>
</g>
<g>
</g>
<g>
</g>
<g>
</g>
<g>
</g>
<g>
</g>
<g>
</g>
<g>
</g>
<g>
</g>
</svg>
