<?xml version="1.0" encoding="iso-8859-1"?>
<!-- Generator: Adobe Illustrator 19.0.0, SVG Export Plug-In . SVG Version: 6.00 Build 0)  -->
<svg version="1.1" id="Capa_1" xmlns="http://www.w3.org/2000/svg" xmlns:xlink="http://www.w3.org/1999/xlink" x="0px" y="0px"
	 viewBox="0 0 489.4 489.4" style="enable-background:new 0 0 489.4 489.4;" xml:space="preserve">
<g>
	<g>
		<path d="M95.35,387.2h298.7v-301H95.35V387.2z M298.85,169.7c0-5.4,4.3-9.7,9.7-9.7c5.4,0,9.7,4.3,9.7,9.7v120.4
			c0,5.4-4.3,9.7-9.7,9.7c-5.4,0-9.7-4.3-9.7-9.7V169.7z M235.55,207.8c0-5.4,4.3-9.7,9.7-9.7c5.4,0,9.7,4.3,9.7,9.7v82.3
			c0,5.4-4.3,9.7-9.7,9.7c-5.4,0-9.7-4.3-9.7-9.7L235.55,207.8L235.55,207.8z M171.05,145.3c0-5.4,4.3-9.7,9.7-9.7s9.7,4.3,9.7,9.7
			v144.9c0,5.4-4.3,9.7-9.7,9.7s-9.7-4.3-9.7-9.7V145.3z M162.55,318.5h164.7c5.4,0,9.7,4.3,9.7,9.7c0,5.4-4.3,9.7-9.7,9.7h-164.7
			c-5.4,0-9.7-4.3-9.7-9.7C152.75,322.8,157.05,318.5,162.55,318.5z"/>
		<path d="M95.35,0v66.4h298.7V0H95.35z M297.65,43.1h-105.6c-5.4,0-9.7-4.3-9.7-9.7s4.3-10.1,9.7-10.1h105.6c5.4,0,9.7,4.3,9.7,9.7
			C307.35,38.9,303.15,43.1,297.65,43.1z"/>
		<path d="M95.35,489.4h298.7v-82.3H95.35V489.4z M223.85,438.5h41.9c5.4,0,9.7,4.3,9.7,9.7s-4.3,9.7-9.7,9.7h-41.9
			c-5.4,0-9.7-4.3-9.7-9.7C213.75,442.8,218.45,438.5,223.85,438.5z"/>
	</g>
</g>
<g>
</g>
<g>
</g>
<g>
</g>
<g>
</g>
<g>
</g>
<g>
</g>
<g>
</g>
<g>
</g>
<g>
</g>
<g>
</g>
<g>
</g>
<g>
</g>
<g>
</g>
<g>
</g>
<g>
</g>
</svg>
