<?xml version="1.0" encoding="iso-8859-1"?>
<!-- Generator: Adobe Illustrator 19.0.0, SVG Export Plug-In . SVG Version: 6.00 Build 0)  -->
<svg version="1.1" id="Capa_1" xmlns="http://www.w3.org/2000/svg" xmlns:xlink="http://www.w3.org/1999/xlink" x="0px" y="0px"
	 viewBox="0 0 490 490" style="enable-background:new 0 0 490 490;" xml:space="preserve">
<g>
	<g>
		<path d="M88.5,490h313v-75h-313V490z M307,442.9h31.5c5.1,0,9.3,4.3,9.3,9.3c0,5.1-4.3,9.3-9.3,9.3H307c-5.1,0-9.3-4.3-9.3-9.3
			C297.7,447.2,302,442.9,307,442.9z M229.3,442.9h31.1c5.1,0,9.3,4.3,9.3,9.3c0,5.1-4.3,9.3-9.3,9.3h-31.1c-5.1,0-9.3-4.3-9.3-9.3
			C219.5,447.2,223.8,442.9,229.3,442.9z M151.1,442.9h31.5c5.1,0,9.3,4.3,9.3,9.3c0,5.1-4.3,9.3-9.3,9.3h-31.5
			c-5.1,0-9.3-4.3-9.3-9.3C141.8,447.2,146,442.9,151.1,442.9z"/>
		<path d="M88.5,0v63.8h313V0H88.5z M211.4,41.3h-44.7c-5.1,0-9.3-4.3-9.3-9.3c0-5.1,4.3-9.3,9.3-9.3h44.7c5.1,0,9.3,4.3,9.3,9.3
			C221.1,37.4,216.8,41.3,211.4,41.3z M323,41.3h-44.7c-5.1,0-9.3-4.3-9.3-9.3c0-5.1,4.3-9.3,9.3-9.3H323c5.1,0,9.3,4.3,9.3,9.3
			C332.3,37.4,328,41.3,323,41.3z"/>
		<path d="M88.5,395.9h313v-313h-313V395.9z M316.7,157.9h28v174.6h-28V157.9z M230.8,216.2h28v115.9h-28L230.8,216.2z M144.9,266.4
			h28v65.7h-28V266.4z"/>
	</g>
</g>
<g>
</g>
<g>
</g>
<g>
</g>
<g>
</g>
<g>
</g>
<g>
</g>
<g>
</g>
<g>
</g>
<g>
</g>
<g>
</g>
<g>
</g>
<g>
</g>
<g>
</g>
<g>
</g>
<g>
</g>
</svg>
