<?xml version="1.0" encoding="iso-8859-1"?>
<!-- Generator: Adobe Illustrator 19.0.0, SVG Export Plug-In . SVG Version: 6.00 Build 0)  -->
<svg version="1.1" id="Capa_1" xmlns="http://www.w3.org/2000/svg" xmlns:xlink="http://www.w3.org/1999/xlink" x="0px" y="0px"
	 viewBox="0 0 490 490" style="enable-background:new 0 0 490 490;" xml:space="preserve">
<g>
	<g>
		<polygon points="177,122.15 325.1,248.95 473.2,122.15 		"/>
		<polygon points="392,218.65 490,313.85 490,134.65 		"/>
		<polygon points="159.9,313.85 258.2,218.65 159.9,134.65 		"/>
		<path d="M376,232.25l-44.3,38c-3.8,3.3-9.4,3.3-13.2,0l-44.8-38l-99.1,96h300.2L376,232.25z"/>
		<path d="M320,0.05H0v53.3h320V0.05z M189,37.05h-57.9c-5.8,0-10.1-4.7-10.1-10.1s4.7-10.1,10.1-10.1h57.5
			c5.8,0,10.1,4.7,10.1,10.1S194.5,37.05,189,37.05z"/>
		<polygon points="320,353.95 134.2,353.95 134.2,96.55 320,96.55 320,79.05 0,79.05 0,391.65 320,391.65 320,354.35 320,354.35 		
			"/>
		<path d="M0,417.25v71.9v0.4v0.4h320v-0.4l0,0v-72.3H0z M196.8,463.95L196.8,463.95h-73.9c-5.8,0-10.1-4.7-10.1-10.1
			c0-5.8,4.7-10.1,10.1-10.1l0,0h73.9c5.8,0,10.1,4.7,10.1,10.1C207.3,459.25,202.6,463.95,196.8,463.95z"/>
	</g>
</g>
<g>
</g>
<g>
</g>
<g>
</g>
<g>
</g>
<g>
</g>
<g>
</g>
<g>
</g>
<g>
</g>
<g>
</g>
<g>
</g>
<g>
</g>
<g>
</g>
<g>
</g>
<g>
</g>
<g>
</g>
</svg>
