<?xml version="1.0" encoding="iso-8859-1"?>
<!-- Generator: Adobe Illustrator 19.0.0, SVG Export Plug-In . SVG Version: 6.00 Build 0)  -->
<svg version="1.1" id="Capa_1" xmlns="http://www.w3.org/2000/svg" xmlns:xlink="http://www.w3.org/1999/xlink" x="0px" y="0px"
	 viewBox="0 0 490 490" style="enable-background:new 0 0 490 490;" xml:space="preserve">
<g>
	<g>
		<path d="M258.6,147v67.6h67.6C326.2,177.3,295.9,147,258.6,147z"/>
		<path d="M231.4,313.3L231.4,313.3c37.3,0,67.6-30.3,67.6-67.6h-67.6v-67.6l0,0c-37.3,0-67.6,30.3-67.6,67.6
			S194.1,313.3,231.4,313.3z"/>
		<path d="M367,0H123c-20.2,0-36.5,16.3-36.5,36.5v417c0,20.2,16.3,36.5,36.5,36.5h244c20.2,0,36.5-16.3,36.5-36.5V36.2
			C403.6,16.4,387.2,0,367,0z M198,23.8h94.4c4.3,0,7.8,3.5,7.8,7.8s-3.5,7.8-7.8,7.8H198c-4.3,0-7.8-3.5-7.8-7.8
			S193.7,23.8,198,23.8z M298.6,461H191.4c-4.3,0-7.8-3.5-7.8-7.8s3.5-7.8,7.8-7.8h107.3c4.3,0,7.8,3.5,7.8,7.8
			C306.4,457.5,302.9,461,298.6,461z M360,417.9H130V63.4h230V417.9z"/>
	</g>
</g>
<g>
</g>
<g>
</g>
<g>
</g>
<g>
</g>
<g>
</g>
<g>
</g>
<g>
</g>
<g>
</g>
<g>
</g>
<g>
</g>
<g>
</g>
<g>
</g>
<g>
</g>
<g>
</g>
<g>
</g>
</svg>
