<?xml version="1.0" encoding="iso-8859-1"?>
<!-- Generator: Adobe Illustrator 19.0.0, SVG Export Plug-In . SVG Version: 6.00 Build 0)  -->
<svg version="1.1" id="Capa_1" xmlns="http://www.w3.org/2000/svg" xmlns:xlink="http://www.w3.org/1999/xlink" x="0px" y="0px"
	 viewBox="0 0 490 490" style="enable-background:new 0 0 490 490;" xml:space="preserve">
<g>
	<g>
		<path d="M82.65,490h324.7v-70H82.65V490z M325.65,444.8h33c5.4,0,9.7,4.3,9.7,9.7c0,5.4-4.3,9.7-9.7,9.7h-33
			c-5.4,0-9.7-4.3-9.7-9.7C315.95,449.5,320.15,444.8,325.65,444.8z M228.05,444.8h33c5.4,0,9.7,4.3,9.7,9.7c0,5.4-4.3,9.7-9.7,9.7
			h-33c-5.4,0-9.7-4.3-9.7-9.7C218.35,449.5,222.55,444.8,228.05,444.8z M130.85,444.8h33c5.4,0,9.7,4.3,9.7,9.7
			c0,5.4-4.3,9.7-9.7,9.7h-33c-5.4,0-9.7-4.3-9.7-9.7C120.75,449.5,125.35,444.8,130.85,444.8z"/>
		<path d="M82.65,0v70h324.7V0H82.65z M279.35,45.2h-69.2c-5.4,0-9.7-4.3-9.7-9.7s4.3-9.7,9.7-9.7h69.2c5.4,0,9.7,4.3,9.7,9.7
			C289.05,40.5,284.85,45.2,279.35,45.2z"/>
		<path d="M82.65,400.1h324.7V89.9H82.65V400.1z M145.25,197.6c2.7-2.7,6.2-3.9,9.7-3.9l47.8-47.8c0-3.5,1.6-7,3.9-9.7
			c5.4-5.4,14.4-5.4,19.4,0c2.7,2.7,3.9,5.8,3.9,9.3l42.4,48.2l0,0l47.8-47.8c0-3.5,1.6-7,3.9-9.7c5.4-5.4,14.4-5.4,19.4,0
			c5.4,5.4,5.4,14.4,0,19.4c-2.7,2.7-6.2,3.9-9.7,3.9l-47,48.2c0,3.5-1.6,7-3.9,9.7c-5.4,5.4-14.4,5.4-19.4,0
			c-2.7-2.7-3.9-5.8-3.9-9.3l-42.8-48.2l0,0l-47.8,47.8c0,3.5-1.6,7-3.9,9.7c-5.4,5.4-14.4,5.4-19.4,0
			C139.75,212,139.75,203,145.25,197.6z M136.25,255.9h217.3c5.4,0,9.7,4.3,9.7,9.7c0,5.4-4.3,9.7-9.7,9.7h-217.3
			c-5.4,0-9.7-4.3-9.7-9.7C126.15,260.6,130.85,255.9,136.25,255.9z M136.25,301.4h217.3c5.4,0,9.7,4.3,9.7,9.7
			c0,5.4-4.3,9.7-9.7,9.7h-217.3c-5.4,0-9.7-4.3-9.7-9.7C126.15,305.7,130.85,301.4,136.25,301.4z M136.25,346.5h217.3
			c5.4,0,9.7,4.3,9.7,9.7c0,5.4-4.3,9.7-9.7,9.7h-217.3c-5.4,0-9.7-4.3-9.7-9.7C126.15,350.8,130.85,346.5,136.25,346.5z"/>
	</g>
</g>
<g>
</g>
<g>
</g>
<g>
</g>
<g>
</g>
<g>
</g>
<g>
</g>
<g>
</g>
<g>
</g>
<g>
</g>
<g>
</g>
<g>
</g>
<g>
</g>
<g>
</g>
<g>
</g>
<g>
</g>
</svg>
