<?xml version="1.0" encoding="iso-8859-1"?>
<!-- Generator: Adobe Illustrator 19.0.0, SVG Export Plug-In . SVG Version: 6.00 Build 0)  -->
<svg version="1.1" id="Capa_1" xmlns="http://www.w3.org/2000/svg" xmlns:xlink="http://www.w3.org/1999/xlink" x="0px" y="0px"
	 viewBox="0 0 490.1 490.1" style="enable-background:new 0 0 490.1 490.1;" xml:space="preserve">
<g>
	<g>
		<path d="M457.4,104.3h-45.1v225.8c0,34.2-28,62.2-62.2,62.2H154.3v9.3c0,17.9,14.4,32.3,32.3,32.3h186.1l56.3,56v-56h28.8
			c17.9,0,32.3-14.4,32.3-32.3v-265C489.6,118.7,475.2,104.3,457.4,104.3z"/>
		<path d="M349.7,0.2H37.3C16.7,0.2,0,16.9,0,37.1v293C0,350.7,16.7,367,37.3,367h33v64.9l64.9-64.9h214.5v0.4
			c20.6,0,37.3-16.7,37.3-36.9V37.1C387,16.5,370.3,0.2,349.7,0.2z M210.7,281.2v11.9c0,9.5-7.7,17.2-17.2,17.2s-17.2-7.7-17.2-17.2
			v-12c-10.1-3-19.3-8.6-26.7-16.4c-6.5-6.9-6.2-17.8,0.7-24.3c6.9-6.5,17.8-6.2,24.3,0.7c4.9,5.2,11.6,8.1,18.8,8.1
			c14.2,0,25.8-11.6,25.8-25.8s-11.6-25.8-25.8-25.8c-33.2,0-60.2-27-60.2-60.2c0-27.2,18.2-50.3,43-57.7V67.8
			c0-9.5,7.7-17.2,17.2-17.2s17.2,7.7,17.2,17.2v12c10.1,3,19.3,8.6,26.7,16.4c6.5,6.9,6.2,17.8-0.7,24.3s-17.8,6.2-24.3-0.7
			c-4.9-5.2-11.6-8.1-18.8-8.1c-14.2,0-25.8,11.6-25.8,25.8s11.6,25.8,25.8,25.8c33.2,0,60.2,27,60.2,60.2
			C253.8,250.7,235.6,273.8,210.7,281.2z"/>
	</g>
</g>
<g>
</g>
<g>
</g>
<g>
</g>
<g>
</g>
<g>
</g>
<g>
</g>
<g>
</g>
<g>
</g>
<g>
</g>
<g>
</g>
<g>
</g>
<g>
</g>
<g>
</g>
<g>
</g>
<g>
</g>
</svg>
