<?xml version="1.0" encoding="iso-8859-1"?>
<!-- Generator: Adobe Illustrator 19.0.0, SVG Export Plug-In . SVG Version: 6.00 Build 0)  -->
<svg version="1.1" id="Capa_1" xmlns="http://www.w3.org/2000/svg" xmlns:xlink="http://www.w3.org/1999/xlink" x="0px" y="0px"
	 viewBox="0 0 489.607 489.607" style="enable-background:new 0 0 489.607 489.607;" xml:space="preserve">
<g>
	<g>
		<path d="M452.7,90.004h-26.4v217.4c0,36.9-30.3,67.3-67.3,67.3H187.8l-45.5,28.8c7,8.9,17.5,14.8,29.6,14.8h157.9l102.3,64.9
			v-64.9h20.2c20.6,0,37.3-16.7,37.3-37.3v-253.6C490,106.704,473.3,90.004,452.7,90.004z"/>
		<path d="M358.9,6.404H42c-23.3,0-42,18.7-42,42v259c0,23.3,18.7,42.4,42,42.4h22.9v73.5l69.6-44.3l45.9-29.2h178.5
			c23.3,0,42-18.7,42-42v-259.4C400.9,25.104,381.9,6.404,358.9,6.404z M222.5,270.204v12.1c0,9.7-7.8,17.5-17.5,17.5
			s-17.5-7.8-17.5-17.5v-12.2c-10.2-3.1-19.6-8.8-27.1-16.7c-6.6-7-6.3-18.1,0.8-24.7s18.1-6.3,24.7,0.8c5,5.3,11.8,8.3,19.1,8.3
			c14.5,0,26.2-11.8,26.2-26.2s-11.8-26.2-26.2-26.2c-33.8,0-61.2-27.5-61.2-61.2c0-27.7,18.5-51.1,43.7-58.6v-12.2
			c0-9.7,7.8-17.5,17.5-17.5s17.5,7.8,17.5,17.5v12.2c10.2,3.1,19.6,8.8,27.1,16.7c6.6,7,6.3,18.1-0.8,24.7
			c-7,6.6-18.1,6.3-24.7-0.8c-5-5.3-11.8-8.3-19.1-8.3c-14.5,0-26.2,11.8-26.2,26.2s11.8,26.2,26.2,26.2c33.8,0,61.2,27.5,61.2,61.2
			C266.2,239.204,247.8,262.704,222.5,270.204z"/>
	</g>
</g>
<g>
</g>
<g>
</g>
<g>
</g>
<g>
</g>
<g>
</g>
<g>
</g>
<g>
</g>
<g>
</g>
<g>
</g>
<g>
</g>
<g>
</g>
<g>
</g>
<g>
</g>
<g>
</g>
<g>
</g>
</svg>
