<?xml version="1.0" encoding="iso-8859-1"?>
<!-- Generator: Adobe Illustrator 19.0.0, SVG Export Plug-In . SVG Version: 6.00 Build 0)  -->
<svg version="1.1" id="Capa_1" xmlns="http://www.w3.org/2000/svg" xmlns:xlink="http://www.w3.org/1999/xlink" x="0px" y="0px"
	 viewBox="0 0 489.6 489.6" style="enable-background:new 0 0 489.6 489.6;" xml:space="preserve">
<g>
	<g>
		<polygon points="299.6,143.8 354.4,85.9 278.6,74.2 244.8,0 211,74.2 135.2,85.9 190,143.8 177.2,225.4 244.8,186.9 312.4,225.4 
					"/>
		<polygon points="489.6,350.5 413.8,338.4 380,264.2 346.2,338.4 270.4,350.5 325.2,408 312.4,489.6 380,451.1 447.6,489.6 
			434.8,408 		"/>
		<polygon points="143.4,338.4 109.6,264.2 75.8,338.4 0,350.5 54.8,408 42,489.6 109.6,451.1 177.2,489.6 164.4,408 219.2,350.5 		
			"/>
	</g>
</g>
<g>
</g>
<g>
</g>
<g>
</g>
<g>
</g>
<g>
</g>
<g>
</g>
<g>
</g>
<g>
</g>
<g>
</g>
<g>
</g>
<g>
</g>
<g>
</g>
<g>
</g>
<g>
</g>
<g>
</g>
</svg>
