<?xml version="1.0" encoding="iso-8859-1"?>
<!-- Generator: Adobe Illustrator 19.0.0, SVG Export Plug-In . SVG Version: 6.00 Build 0)  -->
<svg version="1.1" id="Capa_1" xmlns="http://www.w3.org/2000/svg" xmlns:xlink="http://www.w3.org/1999/xlink" x="0px" y="0px"
	 viewBox="0 0 489.9 489.9" style="enable-background:new 0 0 489.9 489.9;" xml:space="preserve">
<g>
	<g>
		<rect x="153" width="184.3" height="57.9"/>
		<rect x="361.4" y="463.1" width="61.8" height="26.8"/>
		<rect x="67.1" y="463.1" width="61.8" height="26.8"/>
		<path d="M384.8,28.8c0-7-5.4-12.4-12.4-12.4h-10.1v79.3h22.9V28.8H384.8z"/>
		<path d="M128.2,16.4H122c-7,0-12.4,5.4-12.4,12.4v66.9h19.1L128.2,16.4z"/>
		<path d="M420.5,121H69.8C34,121,4.9,150.2,4.9,185.9v187.4c0,35.8,29.2,64.9,64.9,64.9h350.3c35.8,0,64.9-29.2,64.9-64.9V185.5
			C485.1,149.7,456.3,121,420.5,121z M409.3,379.9H81.1c-7,0-12.4-5.4-12.4-12.4s5.4-12.4,12.4-12.4h328.2c7,0,12.4,5.4,12.4,12.4
			S416.3,379.9,409.3,379.9z M409.3,305.7H81.1c-7,0-12.4-5.4-12.4-12.4s5.4-12.4,12.4-12.4h328.2c7,0,12.4,5.4,12.4,12.4
			C421.7,299.8,416.3,305.7,409.3,305.7z M409.3,231H81.1c-7,0-12.4-5.4-12.4-12.4s5.4-12.4,12.4-12.4h328.2c7,0,12.4,5.4,12.4,12.4
			S416.3,231,409.3,231z"/>
	</g>
</g>
<g>
</g>
<g>
</g>
<g>
</g>
<g>
</g>
<g>
</g>
<g>
</g>
<g>
</g>
<g>
</g>
<g>
</g>
<g>
</g>
<g>
</g>
<g>
</g>
<g>
</g>
<g>
</g>
<g>
</g>
</svg>
