<?xml version="1.0" encoding="iso-8859-1"?>
<!-- Generator: Adobe Illustrator 19.0.0, SVG Export Plug-In . SVG Version: 6.00 Build 0)  -->
<svg version="1.1" id="Capa_1" xmlns="http://www.w3.org/2000/svg" xmlns:xlink="http://www.w3.org/1999/xlink" x="0px" y="0px"
	 viewBox="0 0 490.135 490.135" style="enable-background:new 0 0 490.135 490.135;" xml:space="preserve">
<g>
	<g>
		<path d="M373.134,333.4c-16.3-16.3-43.2-16.3-58.7,0.4c-0.4,0.4-0.4,0.4-0.8,0.8c-17.1,19.1-46.3,20.6-64.2,2.7l-82.1-82.5
			c-17.9-17.9-16.3-47.1,2.7-64.2c0.4-0.4,0.4-0.4,0.8-0.8c16.7-15.6,16.7-42.4,0.4-58.7l-69.6-69.2c-16.7-16.7-44-16.3-59.5,1.2
			c-12,12.3-19.4,34.6-19.4,35.4c-21.8,72.7-0.4,151.3,53.3,205l124.9,124.9c53.7,53.7,132.3,75.1,205,53.3
			c3.6-0.8,21.3-6.5,35.4-19.4c17.5-15.6,17.9-42.8,1.2-59.5L373.134,333.4z"/>
		<path d="M361.834,0c-63,0-114,45.9-114,102.7c0,38.1,23,71.2,57.2,89.1l-4.7,61.1l46.3-48.2c5.1,0.8,10.1,0.8,15.2,0.8
			c63,0,114-45.9,114-102.7C476.234,45.9,424.834,0,361.834,0z M370.234,151.1v5.8c0,4.7-3.8,8.4-8.4,8.4s-8.4-3.8-8.4-8.4V151
			c-4.9-1.5-9.5-4.2-13-8c-3.2-3.4-3-8.7,0.4-11.9s8.7-3,11.9,0.4c2.2,2.3,5.1,3.7,8.3,3.9c0.3,0,0.6,0,0.9,0s0.6,0,0.9,0
			c6.6-0.4,11.8-5.9,11.8-12.6c0-7-5.7-12.6-12.6-12.6c-16.2,0-29.5-13.2-29.5-29.5c0-13.3,8.9-24.6,21-28.2v-5.8
			c0-4.7,3.8-8.4,8.4-8.4s8.4,3.8,8.4,8.4v5.9c4.9,1.5,9.5,4.2,13,8c3.2,3.4,3,8.7-0.4,11.9c-3.4,3.2-8.7,3-11.9-0.4
			c-2.2-2.3-5.1-3.7-8.3-3.9c-0.3,0-0.6,0-0.9,0s-0.6,0-0.9,0c-6.6,0.4-11.8,5.9-11.8,12.6c0,7,5.7,12.6,12.6,12.6
			c16.2,0,29.5,13.2,29.5,29.5C391.334,136.2,382.434,147.4,370.234,151.1z"/>
	</g>
</g>
<g>
</g>
<g>
</g>
<g>
</g>
<g>
</g>
<g>
</g>
<g>
</g>
<g>
</g>
<g>
</g>
<g>
</g>
<g>
</g>
<g>
</g>
<g>
</g>
<g>
</g>
<g>
</g>
<g>
</g>
</svg>
