<?xml version="1.0" encoding="iso-8859-1"?>
<!-- Generator: Adobe Illustrator 19.0.0, SVG Export Plug-In . SVG Version: 6.00 Build 0)  -->
<svg version="1.1" id="Capa_1" xmlns="http://www.w3.org/2000/svg" xmlns:xlink="http://www.w3.org/1999/xlink" x="0px" y="0px"
	 viewBox="0 0 482.2 482.2" style="enable-background:new 0 0 482.2 482.2;" xml:space="preserve">
<g>
	<g>
		<polygon points="180.8,337.2 296.3,277.3 290.5,212.3 187,266 		"/>
		<polygon points="189,242.3 288.5,190.5 282.7,125.6 195.6,171.1 		"/>
		<polygon points="298.3,299 178.5,361.3 175.4,398.2 193.7,421.2 303.7,364 		"/>
		<polygon points="305.7,385.8 206.1,437.5 241.1,482.2 306.8,398.2 		"/>
		<path d="M241.3,50.2c31.3,0,57.5-21.5,64-50.2h-128C183.8,28.7,209.9,50.2,241.3,50.2z"/>
		<path d="M241.3,70.2c-12.7,0-25.2-2.8-36.5-8.1l-7.6,84.9l83.2-43.2l-3.3-41.4C265.9,67.5,253.7,70.2,241.3,70.2z"/>
	</g>
</g>
<g>
</g>
<g>
</g>
<g>
</g>
<g>
</g>
<g>
</g>
<g>
</g>
<g>
</g>
<g>
</g>
<g>
</g>
<g>
</g>
<g>
</g>
<g>
</g>
<g>
</g>
<g>
</g>
<g>
</g>
</svg>
