<?xml version="1.0" encoding="iso-8859-1"?>
<!-- Generator: Adobe Illustrator 19.0.0, SVG Export Plug-In . SVG Version: 6.00 Build 0)  -->
<svg version="1.1" id="Capa_1" xmlns="http://www.w3.org/2000/svg" xmlns:xlink="http://www.w3.org/1999/xlink" x="0px" y="0px"
	 viewBox="0 0 490.075 490.075" style="enable-background:new 0 0 490.075 490.075;" xml:space="preserve">
<g>
	<g>
		<g>
			<circle cx="222.573" cy="445.375" r="44.7"/>
			<path d="M487.373,354.375c-1.6-5.1-7.4-7.8-12.4-5.8l-196,67.3c5,7,5.8,15.2,6.2,18.3l196-67.3
				C486.173,364.875,488.873,359.475,487.373,354.375z"/>
			<path d="M210.873,382.775l-120.9-352.3c-8.2-23.3-33.8-36.2-57.2-28s-36.2,33.8-28,57.2c1.6,5.1,7.4,7.8,12.4,5.8
				c5.2-1.5,7.9-7.4,5.9-12.4c-4.6-12.8,2.8-27.6,16-32.3s28,2.7,32.7,15.9l121.3,352.3
				C194.273,386.675,206.373,382.375,210.873,382.775z"/>
			<path d="M266.073,37.175l-52.9,18.3l12.5,35.3c1.8,5.1-0.9,10.7-6,12.4l0,0c-5,1.7-10.4-0.9-12.2-5.9l-12.9-35.6l-52.9,18.3
				l39.7,114.7h0.4l123.6-42.4L266.073,37.175z"/>
			<path d="M379.273,147.175l-191.7,66.1l59.9,173.4c3.9,1.6,7.8,3.9,11.3,6.2l183.5-63L379.273,147.175z M352.773,240.475
				c-2.3,4.7-8.2,6.6-12.8,4.3l-28.8-14l30.8,89.9c1.7,5-1,10.5-6,12.3c-5,1.7-10.5-1-12.2-6l-30.8-89.9l-13.7,28
				c-2.5,5.1-8.7,7.1-13.7,4.5l0,0c-4.8-2.5-6.8-8.5-4.4-13.4l24.1-48.6c2.4-4.9,8.3-6.9,13.2-4.5l50.2,24.7
				C353.173,229.975,355.173,235.775,352.773,240.475z"/>
		</g>
	</g>
</g>
<g>
</g>
<g>
</g>
<g>
</g>
<g>
</g>
<g>
</g>
<g>
</g>
<g>
</g>
<g>
</g>
<g>
</g>
<g>
</g>
<g>
</g>
<g>
</g>
<g>
</g>
<g>
</g>
<g>
</g>
</svg>
