<?xml version="1.0" encoding="iso-8859-1"?>
<!-- Generator: Adobe Illustrator 19.0.0, SVG Export Plug-In . SVG Version: 6.00 Build 0)  -->
<svg version="1.1" id="Capa_1" xmlns="http://www.w3.org/2000/svg" xmlns:xlink="http://www.w3.org/1999/xlink" x="0px" y="0px"
	 viewBox="0 0 489.55 489.55" style="enable-background:new 0 0 489.55 489.55;" xml:space="preserve">
<g>
	<g>
		<path d="M236.581,117.975c-17.5,5.8-32.7,29.5-41.6,62.2h41.6L236.581,117.975L236.581,117.975z"/>
		<path d="M116.881,196.975c-4.7,12.4-7.4,25.7-8.2,39.3h61.8c0.4-13.6,1.6-26.8,3.9-39.3H116.881z"/>
		<path d="M186.881,236.175h49.4v-39.3h-45.1C188.781,209.375,187.281,222.575,186.881,236.175z"/>
		<path d="M191.081,292.175h45.1v-39.3h-49.4C187.281,266.575,188.781,279.775,191.081,292.175z"/>
		<path d="M236.581,371.575v-62.2h-41.6C203.981,341.975,219.081,365.675,236.581,371.575z"/>
		<path d="M252.981,236.175h49.4c-0.4-13.6-1.6-26.8-3.9-39.3h-45.5V236.175z"/>
		<path d="M108.681,253.375c0.8,13.6,3.5,26.8,8.2,39.3h57.2c-2.3-12.4-3.5-25.7-3.9-39.3H108.681z"/>
		<path d="M252.981,117.975v62.2h41.6C285.581,147.575,270.481,123.875,252.981,117.975z"/>
		<path d="M311.681,308.975c-7.8,30.7-21,55.2-37.3,68.8c39.3-8.6,71.9-34.2,90.6-68.8H311.681z"/>
		<path d="M177.881,180.575c7.8-30.7,21-55.2,37.3-68.8c-39.3,8.6-72.3,34.2-90.6,68.8H177.881z"/>
		<path d="M311.681,180.575h53.3c-18.3-34.6-51.3-60.3-90.2-68.8C291.081,124.975,304.281,149.475,311.681,180.575z"/>
		<path d="M252.981,371.575c17.5-5.8,32.7-29.5,41.6-62.2h-41.6V371.575z"/>
		<path d="M177.881,308.975h-53.3c18.3,34.6,51.3,59.9,90.6,68.8C198.481,364.575,185.281,340.075,177.881,308.975z"/>
		<path d="M372.681,197.375h-57.5c2.3,12.4,3.5,25.7,3.9,39.3h61.8C380.081,222.975,377.381,209.775,372.681,197.375z"/>
		<path d="M302.681,252.975h-49.8v39.3h45.1C300.781,280.175,301.981,266.975,302.681,252.975z"/>
		<path d="M315.181,292.575h57.5c4.7-12.4,7.4-25.7,8.2-39.3h-61.8C318.681,266.975,317.481,280.175,315.181,292.575z"/>
		<path d="M225.581,39.175l10.6-10.6v54.4c0,4.7,3.9,8.2,8.2,8.2c4.7,0,8.2-3.9,8.2-8.2v-54.4l10.9,10.9c4,4,11.8,2.9,13.6-3.3
			c0.9-3.1-0.1-6.5-2.4-8.8l-25.2-25.2c-2.9-2.9-7.6-2.9-10.5,0l-25.2,25.2c-3.2,3.2-3.3,8.5-0.1,11.8
			C216.981,42.475,222.281,42.475,225.581,39.175z"/>
		<path d="M77.381,121.375c4.7,0.1,8.5-3.7,8.5-8.4v-15l38.5,38.5c3.3,3.3,8.5,3,11.5,0c3.3-3.3,3-8.5,0-11.5l-38.5-38.5h15.4
			c5.6,0,10.3-6.3,7.3-12c-1.5-2.9-4.6-4.5-7.9-4.5h-35.7c-4.1,0-7.4,3.3-7.4,7.4v35.6
			C69.081,117.575,72.781,121.275,77.381,121.375z"/>
		<path d="M28.581,253.375h54.4c4.7,0,8.2-3.9,8.2-8.2c0-4.7-3.9-8.2-8.2-8.2h-54.4l10.9-10.9c4-4,2.9-11.8-3.3-13.6
			c-3.1-0.9-6.5,0.1-8.8,2.4l-25.2,25.2c-2.9,2.9-2.9,7.6,0,10.5l25.2,25.2c3.2,3.2,8.5,3.3,11.8,0.1l0,0c3.4-3.3,3.4-8.6,0.1-12
			L28.581,253.375z"/>
		<path d="M124.881,353.675l-38.5,38.5v-15.4c0-5.6-6.3-10.3-12-7.3c-2.9,1.5-4.5,4.6-4.5,7.9v35.7c0,4.1,3.3,7.4,7.4,7.4h35.6
			c4.6,0,8.3-3.7,8.4-8.2l0,0c0.1-4.7-3.7-8.5-8.4-8.5h-15l38.5-38.5c3.3-3.3,3-8.5,0-11.5
			C133.181,350.375,127.981,350.575,124.881,353.675z"/>
		<path d="M263.981,450.375l-10.6,10.6v-54.4c0-4.7-3.9-8.2-8.2-8.2c-4.7,0-8.2,3.9-8.2,8.2v54.4l-10.9-10.9c-4-4-11.8-2.9-13.6,3.3
			c-0.9,3.1,0.1,6.5,2.4,8.8l25.2,25.2c2.9,2.9,7.6,2.9,10.5,0l25.2-25.2c3.2-3.2,3.3-8.5,0.1-11.8
			C272.581,447.075,267.281,447.075,263.981,450.375z"/>
		<path d="M412.181,368.175L412.181,368.175c-4.7-0.1-8.5,3.7-8.5,8.4v15l-38.5-38.5c-3.3-3.3-8.5-3-11.5,0c-3.3,3.3-3,8.5,0,11.5
			l38.5,38.5h-15.4c-5.6,0-10.3,6.3-7.3,12c1.5,2.9,4.6,4.5,7.9,4.5h35.7c4.1,0,7.4-3.3,7.4-7.4v-35.6
			C420.481,371.975,416.781,368.275,412.181,368.175z"/>
		<path d="M487.381,238.975l-25.2-25.2c-3.2-3.2-8.5-3.3-11.8-0.1l0,0c-3.4,3.3-3.4,8.6-0.1,12l10.6,10.6h-54.4
			c-4.7,0-8.2,3.9-8.2,8.2c0,4.7,3.9,8.2,8.2,8.2h54.4l-10.9,10.9c-4,4-2.9,11.8,3.3,13.6c3.1,0.9,6.5-0.1,8.8-2.4l25.2-25.2
			C490.281,246.575,490.281,241.875,487.381,238.975z"/>
		<path d="M364.681,135.875l38.5-38.5v15.4c0,5.6,6.3,10.3,12,7.3c2.9-1.5,4.5-4.6,4.5-7.9v-35.7c0-4.1-3.3-7.4-7.4-7.4h-35.6
			c-4.6,0-8.3,3.7-8.4,8.2c-0.1,4.7,3.7,8.5,8.4,8.5h15l-38.5,38.5c-3.3,3.3-3,8.5,0,11.5
			C356.381,139.175,361.581,138.975,364.681,135.875z"/>
	</g>
</g>
<g>
</g>
<g>
</g>
<g>
</g>
<g>
</g>
<g>
</g>
<g>
</g>
<g>
</g>
<g>
</g>
<g>
</g>
<g>
</g>
<g>
</g>
<g>
</g>
<g>
</g>
<g>
</g>
<g>
</g>
</svg>
