<?xml version="1.0" encoding="iso-8859-1"?>
<!-- Generator: Adobe Illustrator 19.0.0, SVG Export Plug-In . SVG Version: 6.00 Build 0)  -->
<svg version="1.1" id="Capa_1" xmlns="http://www.w3.org/2000/svg" xmlns:xlink="http://www.w3.org/1999/xlink" x="0px" y="0px"
	 viewBox="0 0 490 490" style="enable-background:new 0 0 490 490;" xml:space="preserve">
<g>
	<g>
		<g>
			<path d="M334.85,80.5V0h-219.3v80.5c32.3-22.2,70.8-33.8,109.7-33.8S302.65,58.3,334.85,80.5z"/>
			<path d="M115.55,402.1V490h218.9v-87.9c-32.3,21.8-70.4,33.8-109.7,33.8C186.35,435.9,147.85,423.9,115.55,402.1z"/>
			<path d="M429.75,219.3c-5.4,0-9.7,4.3-9.7,9.7v5.8h-20C396.75,141,319.75,66,225.15,66c-96.6,0-175,78.4-175,175
				s78.4,175,175,175c92.1,0,167.5-71.1,174.5-161.4h20.8v5.8c0,5.4,4.3,9.7,9.7,9.7c5.4,0,9.7-4.3,9.7-9.7v-31.9
				C439.85,223.6,435.25,219.3,429.75,219.3z M90.65,250.8h-9.7c-5.4,0-9.7-4.3-9.7-9.7c0-5.4,4.3-9.7,9.7-9.7h9.7
				c5.4,0,9.7,4.3,9.7,9.7C100.35,246.6,96.15,250.8,90.65,250.8z M215.45,96.8c0-5.4,4.3-9.7,9.7-9.7s9.7,4.3,9.7,9.7v9.7
				c0,5.4-4.3,9.7-9.7,9.7s-9.7-4.3-9.7-9.7V96.8z M136.95,343.1l-6.9,6.9c-3.8,3.8-9.9,3.8-13.7,0s-3.8-9.9,0-13.7l6.9-6.9
				c3.8-3.8,9.9-3.8,13.7,0C140.75,333.2,140.75,339.3,136.95,343.1z M136.95,152.8c-3.8,3.8-9.9,3.8-13.7,0l-6.9-6.9
				c-3.8-3.8-3.8-9.9,0-13.7c3.8-3.8,9.9-3.8,13.7,0l6.9,6.9C140.75,142.9,140.75,149,136.95,152.8z M234.95,385.4
				c0,5.4-4.3,9.7-9.7,9.7s-9.7-4.3-9.7-9.7v-9.7c0-5.4,4.3-9.7,9.7-9.7s9.7,4.3,9.7,9.7V385.4z M238.05,152.3h-0.4v89.4
				c0,5.4-4.3,9.7-9.7,9.7h-74.3c-5.4,0-9.7-4.3-9.7-9.7c0-5.4,4.3-9.7,9.7-9.7h64.9v-79.7c0-5.4,4.3-9.7,9.7-9.7
				C233.75,142.5,238.05,146.8,238.05,152.3z M313.45,139.1l6.9-6.9c3.8-3.8,9.9-3.9,13.7,0c3.8,3.8,3.8,9.9,0,13.7l-6.9,6.9
				c-3.8,3.8-9.9,3.8-13.7,0C309.65,149,309.65,142.9,313.45,139.1z M334.15,350c-3.8,3.8-9.9,3.8-13.7,0l-6.9-6.9
				c-3.8-3.8-3.8-9.9,0-13.7s9.9-3.8,13.7,0l6.9,6.9C337.95,340.1,337.95,346.2,334.15,350z M369.45,250.8h-9.7
				c-5.4,0-9.7-4.3-9.7-9.7c0-5.4,4.3-9.7,9.7-9.7h9.7c5.4,0,9.7,4.3,9.7,9.7C379.25,246.6,374.95,250.8,369.45,250.8z"/>
		</g>
	</g>
</g>
<g>
</g>
<g>
</g>
<g>
</g>
<g>
</g>
<g>
</g>
<g>
</g>
<g>
</g>
<g>
</g>
<g>
</g>
<g>
</g>
<g>
</g>
<g>
</g>
<g>
</g>
<g>
</g>
<g>
</g>
</svg>
